<svg width="1025" height="1025" viewBox="0 0 1025 1025" fill="none" xmlns="http://www.w3.org/2000/svg">
<path d="M266.65 394.694H344.446V707.01L266.65 631.027V394.694Z" fill="#0C2340"/>
<path d="M422.577 707.016V631.023L266.661 631.02L344.442 707.013L422.577 707.016Z" fill="#6F00FF"/>
<rect x="344.446" y="318.694" width="76" height="76" fill="#1E90FF"/>
<rect x="115.992" y="318.694" width="150.658" height="76" fill="#0C2340"/>
<path d="M542.761 426.383V440.745H521.55V503.934H502.66V440.745H481.56V426.383H542.761ZM611.739 473.334C611.739 475.469 611.591 477.458 611.297 479.299H568.876C569.244 482.024 570.459 484.27 572.522 486.038C574.584 487.732 577.161 488.579 580.255 488.579C582.611 488.579 584.379 488.247 585.557 487.584C586.735 486.848 587.987 485.669 589.313 484.049H609.75C607.983 490.236 604.448 495.244 599.145 499.073C593.842 502.829 587.546 504.707 580.255 504.707C574.363 504.707 569.06 503.418 564.347 500.841C559.707 498.263 556.061 494.581 553.41 489.794C550.832 484.933 549.544 479.336 549.544 473.002C549.544 466.668 550.832 461.145 553.41 456.431C556.061 451.644 559.707 447.999 564.347 445.495C568.986 442.917 574.252 441.628 580.144 441.628C586.109 441.628 591.486 442.88 596.273 445.384C601.06 447.815 604.816 451.423 607.541 456.211C610.339 460.998 611.739 466.705 611.739 473.334ZM592.075 467.479C591.78 464.606 590.528 462.286 588.319 460.519C586.109 458.678 583.385 457.757 580.144 457.757C577.345 457.757 574.915 458.678 572.853 460.519C570.791 462.286 569.502 464.606 568.986 467.479H592.075ZM650.054 441.628C657.566 441.628 663.937 443.506 669.166 447.262C674.395 450.945 677.856 456.247 679.55 463.17H659.113C657.345 459.488 654.326 457.647 650.054 457.647C646.298 457.647 643.426 459.083 641.437 461.955C639.522 464.754 638.565 468.473 638.565 473.113C638.565 477.752 639.522 481.508 641.437 484.381C643.426 487.179 646.298 488.579 650.054 488.579C652.411 488.579 654.252 488.173 655.578 487.363C656.903 486.553 658.082 485.117 659.113 483.055H679.55C677.856 489.683 674.358 494.949 669.055 498.852C663.752 502.756 657.419 504.707 650.054 504.707C644.162 504.707 638.86 503.418 634.146 500.841C629.506 498.263 625.861 494.581 623.21 489.794C620.632 485.007 619.343 479.446 619.343 473.113C619.343 466.779 620.632 461.255 623.21 456.542C625.861 451.755 629.506 448.073 634.146 445.495C638.86 442.917 644.162 441.628 650.054 441.628ZM727.672 441.628C732.312 441.628 736.399 442.696 739.934 444.832C743.543 446.894 746.342 449.914 748.33 453.891C750.392 457.868 751.423 462.544 751.423 467.92V503.934H732.643V470.461C732.643 466.484 731.575 463.428 729.44 461.292C727.377 459.083 724.505 457.978 720.823 457.978C717.14 457.978 714.231 459.083 712.096 461.292C710.034 463.428 709.002 466.484 709.002 470.461V503.934H690.112V422.185H709.002V451.35C710.844 448.33 713.348 445.974 716.514 444.28C719.755 442.512 723.474 441.628 727.672 441.628ZM805.023 441.628C809.663 441.628 813.751 442.696 817.286 444.832C820.894 446.894 823.693 449.914 825.681 453.891C827.744 457.868 828.775 462.544 828.775 467.92V503.934H809.995V470.461C809.995 466.484 808.927 463.428 806.791 461.292C804.729 459.083 801.856 457.978 798.174 457.978C794.492 457.978 791.583 459.083 789.447 461.292C787.385 463.428 786.354 466.484 786.354 470.461V503.934H767.463V442.291H786.354V451.35C788.195 448.33 790.699 445.974 793.866 444.28C797.106 442.512 800.825 441.628 805.023 441.628ZM872.653 441.628C878.545 441.628 883.921 442.917 888.782 445.495C893.716 447.999 897.62 451.644 900.492 456.431C903.364 461.145 904.8 466.668 904.8 473.002C904.8 479.336 903.364 484.896 900.492 489.683C897.693 494.47 893.864 498.19 889.003 500.841C884.142 503.418 878.729 504.707 872.764 504.707C866.798 504.707 861.348 503.418 856.414 500.841C851.48 498.19 847.576 494.47 844.704 489.683C841.832 484.896 840.396 479.336 840.396 473.002C840.396 466.668 841.832 461.145 844.704 456.431C847.576 451.644 851.443 447.999 856.303 445.495C861.238 442.917 866.688 441.628 872.653 441.628ZM872.653 457.757C869.044 457.757 865.951 459.083 863.374 461.734C860.87 464.312 859.618 468.105 859.618 473.113C859.618 478.121 860.906 481.95 863.484 484.602C866.135 487.253 869.229 488.579 872.764 488.579C876.299 488.579 879.318 487.253 881.822 484.602C884.326 481.95 885.578 478.121 885.578 473.113C885.578 468.105 884.289 464.312 881.712 461.734C879.134 459.083 876.115 457.757 872.653 457.757Z" fill="url(#paint0_linear_3_324)"/>
<path d="M550.146 577.903C550.146 581.806 549.078 585.488 546.942 588.95C544.88 592.411 541.824 595.21 537.773 597.346C533.723 599.481 528.972 600.549 523.523 600.549C515.642 600.549 509.198 598.671 504.19 594.915C499.182 591.159 496.678 585.967 496.678 579.339H510.156C510.45 582.727 511.702 585.415 513.912 587.403C516.121 589.392 519.325 590.386 523.523 590.386C527.868 590.386 531.255 589.281 533.686 587.072C536.19 584.862 537.442 582.027 537.442 578.566C537.442 575.841 536.669 573.705 535.122 572.158C533.649 570.538 531.771 569.323 529.488 568.513C527.205 567.629 524.075 566.708 520.098 565.751C515.09 564.573 511.039 563.357 507.946 562.105C504.853 560.78 502.202 558.718 499.992 555.919C497.783 553.047 496.678 549.18 496.678 544.32C496.678 539.901 497.783 535.997 499.992 532.61C502.202 529.222 505.295 526.607 509.272 524.766C513.249 522.925 517.815 522.004 522.97 522.004C530.482 522.004 536.521 523.772 541.087 527.307C545.727 530.842 548.305 535.961 548.82 542.663H534.901C534.606 539.717 533.354 537.249 531.145 535.261C528.936 533.273 525.99 532.278 522.307 532.278C518.478 532.278 515.384 533.236 513.028 535.151C510.671 537.065 509.493 539.901 509.493 543.657C509.493 546.382 510.229 548.591 511.702 550.285C513.249 551.905 515.164 553.157 517.447 554.041C519.73 554.851 522.897 555.735 526.947 556.692C531.881 557.871 535.895 559.123 538.988 560.448C542.082 561.7 544.696 563.726 546.832 566.524C549.041 569.249 550.146 573.042 550.146 577.903ZM589.531 537.912C594.318 537.912 598.516 539.017 602.124 541.226C605.807 543.362 608.642 546.198 610.631 549.733V538.907H623.335V599.776H610.631V588.398C608.569 592.154 605.733 595.173 602.124 597.456C598.516 599.666 594.318 600.77 589.531 600.77C584.228 600.77 579.367 599.445 574.949 596.793C570.603 594.068 567.142 590.312 564.564 585.525C562.06 580.665 560.808 575.178 560.808 569.065C560.808 562.952 562.06 557.539 564.564 552.826C567.142 548.112 570.603 544.467 574.949 541.889C579.367 539.238 584.228 537.912 589.531 537.912ZM592.182 548.849C588.942 548.849 585.922 549.659 583.123 551.279C580.325 552.826 578.042 555.146 576.274 558.239C574.58 561.258 573.733 564.867 573.733 569.065C573.733 573.263 574.58 576.945 576.274 580.112C578.042 583.279 580.325 585.709 583.123 587.403C585.996 589.024 589.015 589.834 592.182 589.834C595.422 589.834 598.442 589.024 601.241 587.403C604.039 585.783 606.285 583.426 607.979 580.333C609.747 577.166 610.631 573.484 610.631 569.286C610.631 565.088 609.747 561.443 607.979 558.349C606.285 555.256 604.039 552.9 601.241 551.279C598.442 549.659 595.422 548.849 592.182 548.849ZM663.406 588.508L680.64 538.907H694.228L671.029 599.776H655.784L632.696 538.907H646.173L663.406 588.508ZM727.057 588.508L744.29 538.907H757.878L734.679 599.776H719.434L696.346 538.907H709.823L727.057 588.508ZM774.026 538.907L791.149 585.304L808.935 538.907H821.97L784.631 628.388H771.596L783.968 598.782L759.996 538.907H774.026ZM852.795 537.912C859.571 537.912 865.021 539.68 869.145 543.215C873.343 546.676 875.589 551.427 875.884 557.466H862.959C862.738 554.446 861.67 552.089 859.755 550.396C857.914 548.702 855.299 547.855 851.911 547.855C848.524 547.855 845.872 548.628 843.958 550.175C842.043 551.648 841.085 553.562 841.085 555.919C841.085 557.834 841.711 559.38 842.963 560.559C844.215 561.737 845.799 562.658 847.714 563.321C849.702 563.91 852.353 564.573 855.667 565.309C860.16 566.34 863.769 567.371 866.494 568.402C869.292 569.433 871.686 571.127 873.674 573.484C875.663 575.767 876.657 578.897 876.657 582.874C876.657 586.335 875.626 589.429 873.564 592.154C871.575 594.879 868.777 597.014 865.168 598.561C861.559 600.034 857.472 600.77 852.906 600.77C845.836 600.77 840.128 599.076 835.783 595.689C831.437 592.301 829.044 587.477 828.602 581.217H841.638C841.859 584.236 842.963 586.593 844.952 588.287C846.94 589.981 849.592 590.828 852.906 590.828C856.441 590.828 859.203 590.091 861.191 588.618C863.253 587.072 864.284 585.083 864.284 582.653C864.284 580.665 863.621 579.081 862.296 577.903C861.044 576.724 859.423 575.841 857.435 575.251C855.447 574.589 852.758 573.889 849.371 573.153C844.952 572.121 841.38 571.127 838.655 570.17C835.93 569.139 833.573 567.519 831.585 565.309C829.67 563.1 828.713 560.117 828.713 556.361C828.713 552.973 829.67 549.88 831.585 547.081C833.5 544.283 836.261 542.073 839.87 540.453C843.552 538.759 847.861 537.912 852.795 537.912Z" fill="#0C2340"/>
<defs>
<linearGradient id="paint0_linear_3_324" x1="478.577" y1="464.934" x2="909.577" y2="464.934" gradientUnits="userSpaceOnUse">
<stop stop-color="#6F00FF"/>
<stop offset="1" stop-color="#1E90FF"/>
</linearGradient>
</defs>
</svg>
