<svg width="1025" height="1025" viewBox="0 0 1025 1025" fill="none" xmlns="http://www.w3.org/2000/svg">
<path d="M266.067 394.694H343.863V707.01L266.067 631.027V394.694Z" fill="white"/>
<path d="M421.994 707.016V631.023L266.078 631.02L343.858 707.013L421.994 707.016Z" fill="#6F00FF"/>
<rect x="343.862" y="318.694" width="76" height="76" fill="#1E90FF"/>
<rect x="115.409" y="318.694" width="150.658" height="76" fill="white"/>
<path d="M542.046 439.143V453.504H520.836V516.694H501.945V453.504H480.845V439.143H542.046ZM611.024 486.093C611.024 488.229 610.877 490.218 610.582 492.059H568.161C568.529 494.784 569.745 497.03 571.807 498.797C573.869 500.491 576.446 501.338 579.54 501.338C581.896 501.338 583.664 501.007 584.842 500.344C586.021 499.608 587.273 498.429 588.598 496.809H609.035C607.268 502.995 603.733 508.003 598.43 511.833C593.128 515.589 586.831 517.467 579.54 517.467C573.648 517.467 568.345 516.178 563.632 513.601C558.992 511.023 555.347 507.341 552.695 502.553C550.118 497.693 548.829 492.096 548.829 485.762C548.829 479.428 550.118 473.905 552.695 469.191C555.347 464.404 558.992 460.759 563.632 458.255C568.272 455.677 573.537 454.388 579.429 454.388C585.395 454.388 590.771 455.64 595.558 458.144C600.345 460.575 604.101 464.183 606.826 468.97C609.625 473.757 611.024 479.465 611.024 486.093ZM591.36 480.238C591.065 477.366 589.813 475.046 587.604 473.279C585.395 471.437 582.67 470.517 579.429 470.517C576.631 470.517 574.2 471.437 572.138 473.279C570.076 475.046 568.787 477.366 568.272 480.238H591.36ZM649.339 454.388C656.851 454.388 663.222 456.266 668.451 460.022C673.68 463.705 677.141 469.007 678.835 475.93H658.398C656.63 472.248 653.611 470.406 649.339 470.406C645.583 470.406 642.711 471.843 640.722 474.715C638.808 477.513 637.85 481.233 637.85 485.872C637.85 490.512 638.808 494.268 640.722 497.14C642.711 499.939 645.583 501.338 649.339 501.338C651.696 501.338 653.537 500.933 654.863 500.123C656.188 499.313 657.367 497.877 658.398 495.815H678.835C677.141 502.443 673.643 507.709 668.34 511.612C663.038 515.515 656.704 517.467 649.339 517.467C643.447 517.467 638.145 516.178 633.431 513.601C628.792 511.023 625.146 507.341 622.495 502.553C619.917 497.766 618.628 492.206 618.628 485.872C618.628 479.539 619.917 474.015 622.495 469.302C625.146 464.515 628.792 460.832 633.431 458.255C638.145 455.677 643.447 454.388 649.339 454.388ZM726.957 454.388C731.597 454.388 735.684 455.456 739.219 457.592C742.828 459.654 745.627 462.673 747.615 466.65C749.677 470.627 750.708 475.304 750.708 480.68V516.694H731.928V483.221C731.928 479.244 730.861 476.188 728.725 474.052C726.663 471.843 723.79 470.738 720.108 470.738C716.426 470.738 713.517 471.843 711.381 474.052C709.319 476.188 708.288 479.244 708.288 483.221V516.694H689.397V434.945H708.288V464.11C710.129 461.09 712.633 458.733 715.8 457.039C719.04 455.272 722.759 454.388 726.957 454.388ZM804.308 454.388C808.948 454.388 813.036 455.456 816.571 457.592C820.179 459.654 822.978 462.673 824.967 466.65C827.029 470.627 828.06 475.304 828.06 480.68V516.694H809.28V483.221C809.28 479.244 808.212 476.188 806.076 474.052C804.014 471.843 801.142 470.738 797.459 470.738C793.777 470.738 790.868 471.843 788.732 474.052C786.67 476.188 785.639 479.244 785.639 483.221V516.694H766.748V455.051H785.639V464.11C787.48 461.09 789.984 458.733 793.151 457.039C796.391 455.272 800.111 454.388 804.308 454.388ZM871.938 454.388C877.83 454.388 883.206 455.677 888.067 458.255C893.001 460.759 896.905 464.404 899.777 469.191C902.649 473.905 904.085 479.428 904.085 485.762C904.085 492.096 902.649 497.656 899.777 502.443C896.978 507.23 893.149 510.949 888.288 513.601C883.427 516.178 878.014 517.467 872.049 517.467C866.083 517.467 860.633 516.178 855.699 513.601C850.765 510.949 846.861 507.23 843.989 502.443C841.117 497.656 839.681 492.096 839.681 485.762C839.681 479.428 841.117 473.905 843.989 469.191C846.861 464.404 850.728 460.759 855.589 458.255C860.523 455.677 865.973 454.388 871.938 454.388ZM871.938 470.517C868.33 470.517 865.236 471.843 862.659 474.494C860.155 477.072 858.903 480.864 858.903 485.872C858.903 490.88 860.192 494.71 862.769 497.361C865.421 500.013 868.514 501.338 872.049 501.338C875.584 501.338 878.603 500.013 881.107 497.361C883.611 494.71 884.863 490.88 884.863 485.872C884.863 480.864 883.575 477.072 880.997 474.494C878.419 471.843 875.4 470.517 871.938 470.517Z" fill="url(#paint0_linear_3_323)"/>
<path d="M549.431 590.663C549.431 594.566 548.363 598.248 546.228 601.71C544.165 605.171 541.109 607.97 537.058 610.105C533.008 612.241 528.258 613.309 522.808 613.309C514.927 613.309 508.483 611.431 503.475 607.675C498.467 603.919 495.963 598.727 495.963 592.099H509.441C509.735 595.486 510.987 598.175 513.197 600.163C515.406 602.152 518.61 603.146 522.808 603.146C527.153 603.146 530.541 602.041 532.971 599.832C535.475 597.622 536.727 594.787 536.727 591.325C536.727 588.6 535.954 586.465 534.407 584.918C532.934 583.298 531.056 582.083 528.773 581.273C526.49 580.389 523.36 579.468 519.383 578.511C514.375 577.332 510.324 576.117 507.231 574.865C504.138 573.54 501.487 571.477 499.277 568.679C497.068 565.807 495.963 561.94 495.963 557.079C495.963 552.661 497.068 548.757 499.277 545.369C501.487 541.982 504.58 539.367 508.557 537.526C512.534 535.685 517.1 534.764 522.255 534.764C529.767 534.764 535.806 536.532 540.373 540.067C545.012 543.602 547.59 548.72 548.106 555.422H534.186C533.892 552.476 532.64 550.009 530.43 548.021C528.221 546.032 525.275 545.038 521.593 545.038C517.763 545.038 514.67 545.995 512.313 547.91C509.956 549.825 508.778 552.661 508.778 556.417C508.778 559.142 509.514 561.351 510.987 563.045C512.534 564.665 514.449 565.917 516.732 566.801C519.015 567.611 522.182 568.495 526.232 569.452C531.167 570.63 535.18 571.882 538.274 573.208C541.367 574.46 543.981 576.485 546.117 579.284C548.326 582.009 549.431 585.802 549.431 590.663ZM588.816 550.672C593.603 550.672 597.801 551.777 601.41 553.986C605.092 556.122 607.927 558.957 609.916 562.492V551.666H622.62V612.536H609.916V601.157C607.854 604.913 605.018 607.933 601.41 610.216C597.801 612.425 593.603 613.53 588.816 613.53C583.513 613.53 578.653 612.204 574.234 609.553C569.888 606.828 566.427 603.072 563.849 598.285C561.345 593.424 560.093 587.938 560.093 581.825C560.093 575.712 561.345 570.299 563.849 565.586C566.427 560.872 569.888 557.227 574.234 554.649C578.653 551.998 583.513 550.672 588.816 550.672ZM591.467 561.609C588.227 561.609 585.207 562.419 582.409 564.039C579.61 565.586 577.327 567.906 575.559 570.999C573.865 574.018 573.018 577.627 573.018 581.825C573.018 586.023 573.865 589.705 575.559 592.872C577.327 596.039 579.61 598.469 582.409 600.163C585.281 601.783 588.3 602.593 591.467 602.593C594.708 602.593 597.727 601.783 600.526 600.163C603.324 598.543 605.571 596.186 607.264 593.093C609.032 589.926 609.916 586.244 609.916 582.046C609.916 577.848 609.032 574.202 607.264 571.109C605.571 568.016 603.324 565.659 600.526 564.039C597.727 562.419 594.708 561.609 591.467 561.609ZM662.692 601.268L679.925 551.666H693.513L670.314 612.536H655.069L631.981 551.666H645.458L662.692 601.268ZM726.342 601.268L743.575 551.666H757.163L733.964 612.536H718.719L695.631 551.666H709.108L726.342 601.268ZM773.311 551.666L790.434 598.064L808.22 551.666H821.255L783.916 641.148H770.881L783.253 611.542L759.281 551.666H773.311ZM852.08 550.672C858.856 550.672 864.306 552.44 868.43 555.975C872.628 559.436 874.874 564.186 875.169 570.225H862.244C862.023 567.206 860.955 564.849 859.04 563.155C857.199 561.461 854.584 560.614 851.197 560.614C847.809 560.614 845.158 561.388 843.243 562.934C841.328 564.407 840.37 566.322 840.37 568.679C840.37 570.594 840.996 572.14 842.248 573.319C843.5 574.497 845.084 575.418 846.999 576.08C848.987 576.67 851.638 577.332 854.953 578.069C859.445 579.1 863.054 580.131 865.779 581.162C868.577 582.193 870.971 583.887 872.959 586.244C874.948 588.527 875.942 591.657 875.942 595.634C875.942 599.095 874.911 602.188 872.849 604.913C870.86 607.638 868.062 609.774 864.453 611.321C860.844 612.794 856.757 613.53 852.191 613.53C845.121 613.53 839.413 611.836 835.068 608.448C830.723 605.061 828.329 600.237 827.887 593.977H840.923C841.144 596.996 842.248 599.353 844.237 601.047C846.225 602.741 848.877 603.588 852.191 603.588C855.726 603.588 858.488 602.851 860.476 601.378C862.538 599.832 863.569 597.843 863.569 595.413C863.569 593.424 862.907 591.841 861.581 590.663C860.329 589.484 858.709 588.6 856.72 588.011C854.732 587.348 852.044 586.649 848.656 585.912C844.237 584.881 840.665 583.887 837.94 582.93C835.215 581.899 832.858 580.278 830.87 578.069C828.955 575.859 827.998 572.877 827.998 569.121C827.998 565.733 828.955 562.64 830.87 559.841C832.785 557.043 835.547 554.833 839.155 553.213C842.838 551.519 847.146 550.672 852.08 550.672Z" fill="white"/>
<defs>
<linearGradient id="paint0_linear_3_323" x1="477.862" y1="477.694" x2="908.862" y2="477.694" gradientUnits="userSpaceOnUse">
<stop stop-color="#6F00FF"/>
<stop offset="1" stop-color="#1E90FF"/>
</linearGradient>
</defs>
</svg>
