<svg width="86" height="46" viewBox="0 0 86 46" fill="none" xmlns="http://www.w3.org/2000/svg">
<g clip-path="url(#clip0_4_619)">
<path d="M16.0332 10.1509H24.5183V44.2154L16.0332 35.9279V10.1509Z" fill="#0C2340"/>
<path d="M33.04 44.2162V35.9276L16.0342 35.9272L24.5178 44.2158L33.04 44.2162Z" fill="#0075FF"/>
<path d="M32.8074 1.86133H24.5181V10.1507H32.8074V1.86133Z" fill="#00D3FF"/>
<path d="M16.0334 1.86133H-0.398926V10.1507H16.0334V1.86133Z" fill="#0C2340"/>
<path d="M46.1489 13.6073V15.1738H43.8355V22.0658H41.775V15.1738H39.4736V13.6073H46.1489ZM53.6723 18.7283C53.6723 18.9611 53.6563 19.1781 53.6241 19.3789H48.9972C49.0374 19.6761 49.17 19.9211 49.3949 20.1139C49.6198 20.2987 49.9009 20.391 50.2384 20.391C50.4953 20.391 50.6882 20.3548 50.8166 20.2825C50.9452 20.2022 51.0818 20.0737 51.2263 19.897H53.4554C53.2627 20.5718 52.8771 21.118 52.2987 21.5356C51.7204 21.9453 51.0336 22.1501 50.2384 22.1501C49.5957 22.1501 49.0173 22.0095 48.5033 21.7285C47.9972 21.4473 47.5996 21.0457 47.3104 20.5236C47.0293 19.9934 46.8887 19.3829 46.8887 18.6921C46.8887 18.0012 47.0293 17.3988 47.3104 16.8846C47.5996 16.3625 47.9972 15.965 48.5033 15.6918C49.0094 15.4107 49.5836 15.2701 50.2263 15.2701C50.877 15.2701 51.4633 15.4066 51.9854 15.6797C52.5076 15.9449 52.9172 16.3384 53.2145 16.8607C53.5197 17.3828 53.6723 18.0052 53.6723 18.7283ZM51.5276 18.0897C51.4954 17.7763 51.3588 17.5233 51.1179 17.3305C50.877 17.1297 50.5797 17.0293 50.2263 17.0293C49.9211 17.0293 49.6559 17.1297 49.431 17.3305C49.2061 17.5233 49.0655 17.7763 49.0093 18.0897H51.5276ZM57.8514 15.2701C58.6707 15.2701 59.3656 15.4749 59.9359 15.8846C60.5063 16.2863 60.8838 16.8646 61.0685 17.6197H58.8394C58.6466 17.2181 58.3173 17.0173 57.8514 17.0173C57.4417 17.0173 57.1285 17.1739 56.9115 17.4872C56.7028 17.7924 56.5983 18.1981 56.5983 18.7042C56.5983 19.2101 56.7028 19.6198 56.9115 19.9332C57.1285 20.2383 57.4417 20.391 57.8514 20.391C58.1085 20.391 58.3092 20.3468 58.4539 20.2584C58.5984 20.1701 58.727 20.0134 58.8394 19.7885H61.0685C60.8838 20.5115 60.5022 21.0858 59.9238 21.5115C59.3455 21.9373 58.6547 22.1501 57.8514 22.1501C57.2087 22.1501 56.6304 22.0095 56.1163 21.7285C55.6103 21.4473 55.2126 21.0457 54.9235 20.5236C54.6423 20.0014 54.5017 19.3949 54.5017 18.7042C54.5017 18.0133 54.6423 17.4108 54.9235 16.8968C55.2126 16.3746 55.6103 15.973 56.1163 15.6918C56.6304 15.4107 57.2087 15.2701 57.8514 15.2701ZM66.3172 15.2701C66.8233 15.2701 67.2691 15.3866 67.6546 15.6195C68.0483 15.8444 68.3536 16.1738 68.5704 16.6076C68.7953 17.0414 68.9078 17.5514 68.9078 18.1378V22.0658H66.8594V18.4149C66.8594 17.9811 66.743 17.6478 66.5101 17.4148C66.2851 17.1739 65.9718 17.0534 65.5702 17.0534C65.1686 17.0534 64.8513 17.1739 64.6183 17.4148C64.3934 17.6478 64.281 17.9811 64.281 18.4149V22.0658H62.2205V13.1494H64.281V16.3305C64.4818 16.0011 64.7549 15.7441 65.1003 15.5593C65.4537 15.3665 65.8593 15.2701 66.3172 15.2701ZM74.7539 15.2701C75.26 15.2701 75.7059 15.3866 76.0915 15.6195C76.485 15.8444 76.7903 16.1738 77.0072 16.6076C77.2321 17.0414 77.3446 17.5514 77.3446 18.1378V22.0658H75.2962V18.4149C75.2962 17.9811 75.1797 17.6478 74.9468 17.4148C74.7219 17.1739 74.4086 17.0534 74.0069 17.0534C73.6053 17.0534 73.288 17.1739 73.0551 17.4148C72.8301 17.6478 72.7177 17.9811 72.7177 18.4149V22.0658H70.6572V15.3424H72.7177V16.3305C72.9185 16.0011 73.1916 15.7441 73.537 15.5593C73.8904 15.3665 74.2962 15.2701 74.7539 15.2701ZM82.1304 15.2701C82.773 15.2701 83.3594 15.4107 83.8896 15.6918C84.4277 15.965 84.8535 16.3625 85.1668 16.8846C85.48 17.3988 85.6367 18.0012 85.6367 18.6921C85.6367 19.3829 85.48 19.9893 85.1668 20.5115C84.8615 21.0336 84.4439 21.4393 83.9137 21.7285C83.3835 22.0095 82.7931 22.1501 82.1425 22.1501C81.4918 22.1501 80.8973 22.0095 80.3592 21.7285C79.821 21.4393 79.3952 21.0336 79.082 20.5115C78.7687 19.9893 78.6121 19.3829 78.6121 18.6921C78.6121 18.0012 78.7687 17.3988 79.082 16.8846C79.3952 16.3625 79.817 15.965 80.3472 15.6918C80.8853 15.4107 81.4798 15.2701 82.1304 15.2701ZM82.1304 17.0293C81.7369 17.0293 81.3994 17.1739 81.1183 17.463C80.8452 17.7442 80.7086 18.1579 80.7086 18.7042C80.7086 19.2504 80.8492 19.668 81.1303 19.9573C81.4196 20.2464 81.7569 20.391 82.1425 20.391C82.5281 20.391 82.8573 20.2464 83.1304 19.9573C83.4036 19.668 83.5401 19.2504 83.5401 18.7042C83.5401 18.1579 83.3996 17.7442 83.1185 17.463C82.8373 17.1739 82.508 17.0293 82.1304 17.0293Z" fill="url(#paint0_linear_4_619)"/>
<path d="M46.9539 30.1336C46.9539 30.5593 46.8374 30.9609 46.6045 31.3385C46.3795 31.716 46.0462 32.0212 45.6043 32.2542C45.1626 32.4871 44.6445 32.6036 44.0501 32.6036C43.1905 32.6036 42.4876 32.3987 41.9414 31.9891C41.3952 31.5794 41.1221 31.0131 41.1221 30.2902H42.5921C42.6242 30.6597 42.7607 30.9529 43.0018 31.1697C43.2427 31.3867 43.5922 31.4951 44.0501 31.4951C44.524 31.4951 44.8935 31.3746 45.1586 31.1336C45.4317 30.8926 45.5682 30.5834 45.5682 30.2059C45.5682 29.9086 45.4839 29.6757 45.3152 29.5069C45.1545 29.3303 44.9497 29.1977 44.7007 29.1094C44.4517 29.013 44.1103 28.9125 43.6765 28.8081C43.1303 28.6796 42.6884 28.547 42.3511 28.4105C42.0137 28.2659 41.7246 28.041 41.4835 27.7357C41.2426 27.4225 41.1221 27.0007 41.1221 26.4706C41.1221 25.9887 41.2426 25.5628 41.4835 25.1934C41.7246 24.8239 42.0619 24.5387 42.4957 24.3379C42.9295 24.1371 43.4275 24.0366 43.9898 24.0366C44.8091 24.0366 45.4678 24.2295 45.9659 24.615C46.4719 25.0006 46.7531 25.5589 46.8093 26.2899H45.2911C45.259 25.9686 45.1225 25.6994 44.8814 25.4826C44.6405 25.2657 44.3191 25.1572 43.9176 25.1572C43.4998 25.1572 43.1625 25.2617 42.9054 25.4706C42.6483 25.6793 42.5198 25.9887 42.5198 26.3983C42.5198 26.6955 42.6001 26.9365 42.7607 27.1212C42.9295 27.2979 43.1383 27.4345 43.3874 27.5309C43.6364 27.6193 43.9818 27.7157 44.4235 27.8201C44.9618 27.9487 45.3995 28.0852 45.737 28.2297C46.0743 28.3663 46.3594 28.5873 46.5924 28.8924C46.8333 29.1897 46.9539 29.6034 46.9539 30.1336ZM51.2496 25.7717C51.7717 25.7717 52.2296 25.8922 52.6232 26.1332C53.0248 26.3661 53.3341 26.6755 53.551 27.061V25.8802H54.9366V32.5193H53.551V31.2783C53.3261 31.6879 53.0168 32.0172 52.6232 32.2662C52.2296 32.5073 51.7717 32.6277 51.2496 32.6277C50.6712 32.6277 50.1411 32.4832 49.6591 32.1939C49.1851 31.8967 48.8076 31.487 48.5264 30.9649C48.2533 30.4348 48.1168 29.8363 48.1168 29.1696C48.1168 28.5028 48.2533 27.9124 48.5264 27.3984C48.8076 26.8842 49.1851 26.4867 49.6591 26.2055C50.1411 25.9163 50.6712 25.7717 51.2496 25.7717ZM51.5387 26.9646C51.1854 26.9646 50.856 27.053 50.5508 27.2297C50.2455 27.3984 49.9965 27.6514 49.8037 27.9888C49.6189 28.3181 49.5265 28.7117 49.5265 29.1696C49.5265 29.6275 49.6189 30.0291 49.8037 30.3745C49.9965 30.7199 50.2455 30.985 50.5508 31.1697C50.864 31.3465 51.1933 31.4349 51.5387 31.4349C51.8922 31.4349 52.2215 31.3465 52.5268 31.1697C52.832 30.993 53.0771 30.736 53.2617 30.3986C53.4546 30.0532 53.551 29.6516 53.551 29.1937C53.551 28.7358 53.4546 28.3383 53.2617 28.0008C53.0771 27.6634 52.832 27.4065 52.5268 27.2297C52.2215 27.053 51.8922 26.9646 51.5387 26.9646ZM59.3073 31.2902L61.1869 25.8802H62.669L60.1386 32.5193H58.4759L55.9576 25.8802H57.4276L59.3073 31.2902ZM66.2496 31.2902L68.1293 25.8802H69.6113L67.081 32.5193H65.4182L62.9 25.8802H64.3699L66.2496 31.2902ZM71.3726 25.8802L73.2402 30.9408L75.1801 25.8802H76.6019L72.5293 35.64H71.1075L72.457 32.4108L69.8423 25.8802H71.3726ZM79.964 25.7717C80.703 25.7717 81.2975 25.9646 81.7473 26.3501C82.2051 26.7276 82.4501 27.2458 82.4823 27.9045H81.0726C81.0485 27.5751 80.932 27.318 80.7231 27.1334C80.5223 26.9486 80.2371 26.8562 79.8677 26.8562C79.4981 26.8562 79.209 26.9405 79.0001 27.1092C78.7912 27.2699 78.6867 27.4787 78.6867 27.7357C78.6867 27.9446 78.755 28.1132 78.8916 28.2418C79.0281 28.3703 79.2009 28.4708 79.4098 28.5431C79.6266 28.6073 79.9158 28.6796 80.2773 28.7599C80.7673 28.8724 81.1609 28.9848 81.4581 29.0973C81.7633 29.2097 82.0244 29.3945 82.2412 29.6516C82.4582 29.9006 82.5666 30.242 82.5666 30.6757C82.5666 31.0532 82.4542 31.3907 82.2292 31.6879C82.0123 31.9851 81.7071 32.218 81.3135 32.3867C80.9199 32.5474 80.4741 32.6277 79.9761 32.6277C79.2049 32.6277 78.5824 32.4429 78.1085 32.0735C77.6345 31.704 77.3734 31.1778 77.3252 30.495H78.7471C78.7712 30.8243 78.8916 31.0814 79.1085 31.2661C79.3254 31.4509 79.6146 31.5433 79.9761 31.5433C80.3616 31.5433 80.6629 31.4629 80.8797 31.3022C81.1046 31.1336 81.2171 30.9167 81.2171 30.6516C81.2171 30.4348 81.1449 30.262 81.0002 30.1336C80.8637 30.005 80.687 29.9086 80.47 29.8443C80.2532 29.7721 79.96 29.6957 79.5905 29.6155C79.1085 29.5029 78.7189 29.3945 78.4217 29.2901C78.1245 29.1777 77.8674 29.001 77.6506 28.7599C77.4417 28.519 77.3373 28.1936 77.3373 27.784C77.3373 27.4144 77.4417 27.0771 77.6506 26.7718C77.8594 26.4666 78.1607 26.2256 78.5542 26.0489C78.9559 25.8641 79.4258 25.7717 79.964 25.7717Z" fill="#0C2340"/>
</g>
<defs>
<linearGradient id="paint0_linear_4_619" x1="39.1483" y1="17.8121" x2="86.1577" y2="17.8121" gradientUnits="userSpaceOnUse">
<stop stop-color="#0075FF"/>
<stop offset="1" stop-color="#00D3FF"/>
</linearGradient>
<clipPath id="clip0_4_619">
<rect width="86" height="46" fill="white"/>
</clipPath>
</defs>
</svg>
