<svg width="571" height="263" viewBox="0 0 571 263" fill="none" xmlns="http://www.w3.org/2000/svg">
<path d="M237.517 75.5848V83.7631H225.438V119.748H214.68V83.7631H202.664V75.5848H237.517ZM276.798 102.322C276.798 103.538 276.714 104.67 276.546 105.719H252.389C252.598 107.271 253.29 108.55 254.465 109.556C255.639 110.521 257.107 111.003 258.868 111.003C260.21 111.003 261.217 110.815 261.888 110.437C262.559 110.018 263.272 109.347 264.027 108.424H275.665C274.659 111.947 272.646 114.799 269.626 116.98C266.606 119.119 263.02 120.188 258.868 120.188C255.513 120.188 252.493 119.454 249.809 117.986C247.167 116.518 245.091 114.421 243.581 111.695C242.113 108.927 241.379 105.74 241.379 102.133C241.379 98.5261 242.113 95.3806 243.581 92.6964C245.091 89.9703 247.167 87.8943 249.809 86.4683C252.452 85.0004 255.45 84.2664 258.805 84.2664C262.203 84.2664 265.264 84.9794 267.99 86.4054C270.717 87.7894 272.855 89.8445 274.407 92.5706C276.001 95.2967 276.798 98.5471 276.798 102.322ZM265.6 98.9874C265.432 97.3518 264.719 96.0307 263.461 95.0241C262.203 93.9756 260.651 93.4513 258.805 93.4513C257.212 93.4513 255.828 93.9756 254.653 95.0241C253.479 96.0307 252.745 97.3518 252.452 98.9874H265.6ZM298.617 84.2664C302.895 84.2664 306.523 85.3359 309.501 87.4748C312.479 89.5719 314.45 92.5916 315.414 96.5339H303.776C302.77 94.4369 301.05 93.3884 298.617 93.3884C296.478 93.3884 294.843 94.2063 293.71 95.8419C292.62 97.4357 292.075 99.5536 292.075 102.196C292.075 104.838 292.62 106.977 293.71 108.613C294.843 110.206 296.478 111.003 298.617 111.003C299.96 111.003 301.008 110.773 301.763 110.311C302.518 109.85 303.189 109.032 303.776 107.858H315.414C314.45 111.632 312.458 114.631 309.438 116.854C306.418 119.077 302.811 120.188 298.617 120.188C295.262 120.188 292.243 119.454 289.558 117.986C286.916 116.518 284.84 114.421 283.33 111.695C281.862 108.969 281.128 105.803 281.128 102.196C281.128 98.589 281.862 95.4435 283.33 92.7593C284.84 90.0332 286.916 87.9362 289.558 86.4683C292.243 85.0004 295.262 84.2664 298.617 84.2664ZM342.819 84.2664C345.461 84.2664 347.789 84.8746 349.802 86.0908C351.857 87.2651 353.451 88.9847 354.583 91.2495C355.757 93.5142 356.345 96.1774 356.345 99.2391V119.748H345.65V100.686C345.65 98.4212 345.042 96.6807 343.825 95.4645C342.651 94.2063 341.015 93.5772 338.918 93.5772C336.821 93.5772 335.165 94.2063 333.948 95.4645C332.774 96.6807 332.187 98.4212 332.187 100.686V119.748H321.429V73.1942H332.187V89.8025C333.235 88.083 334.661 86.7409 336.465 85.7763C338.31 84.7697 340.428 84.2664 342.819 84.2664ZM386.868 84.2664C389.511 84.2664 391.838 84.8746 393.851 86.0908C395.906 87.2651 397.5 88.9847 398.633 91.2495C399.807 93.5142 400.394 96.1774 400.394 99.2391V119.748H389.699V100.686C389.699 98.4212 389.091 96.6807 387.875 95.4645C386.701 94.2063 385.065 93.5772 382.968 93.5772C380.871 93.5772 379.214 94.2063 377.998 95.4645C376.824 96.6807 376.236 98.4212 376.236 100.686V119.748H365.479V84.6439H376.236V89.8025C377.285 88.083 378.711 86.7409 380.514 85.7763C382.36 84.7697 384.478 84.2664 386.868 84.2664ZM425.382 84.2664C428.737 84.2664 431.799 85.0004 434.567 86.4683C437.377 87.8943 439.599 89.9703 441.235 92.6964C442.871 95.3806 443.689 98.5261 443.689 102.133C443.689 105.74 442.871 108.906 441.235 111.632C439.641 114.359 437.461 116.477 434.692 117.986C431.924 119.454 428.842 120.188 425.445 120.188C422.048 120.188 418.944 119.454 416.134 117.986C413.324 116.477 411.101 114.359 409.465 111.632C407.83 108.906 407.012 105.74 407.012 102.133C407.012 98.5261 407.83 95.3806 409.465 92.6964C411.101 89.9703 413.303 87.8943 416.071 86.4683C418.881 85.0004 421.985 84.2664 425.382 84.2664ZM425.382 93.4513C423.327 93.4513 421.565 94.2063 420.097 95.7161C418.671 97.184 417.958 99.3439 417.958 102.196C417.958 105.048 418.692 107.229 420.16 108.739C421.67 110.248 423.432 111.003 425.445 111.003C427.458 111.003 429.177 110.248 430.603 108.739C432.029 107.229 432.742 105.048 432.742 102.196C432.742 99.3439 432.008 97.184 430.54 95.7161C429.072 94.2063 427.353 93.4513 425.382 93.4513Z" fill="#6E44FF"/>
<path d="M241.723 161.871C241.723 164.094 241.115 166.191 239.898 168.162C238.724 170.133 236.983 171.727 234.677 172.943C232.37 174.159 229.665 174.768 226.561 174.768C222.074 174.768 218.404 173.698 215.552 171.559C212.7 169.42 211.274 166.463 211.274 162.689H218.949C219.117 164.618 219.83 166.149 221.088 167.281C222.346 168.414 224.171 168.98 226.561 168.98C229.036 168.98 230.965 168.351 232.349 167.093C233.775 165.834 234.488 164.22 234.488 162.248C234.488 160.697 234.048 159.48 233.167 158.6C232.328 157.677 231.259 156.985 229.958 156.524C228.658 156.02 226.876 155.496 224.611 154.951C221.759 154.28 219.452 153.588 217.691 152.875C215.929 152.12 214.42 150.946 213.161 149.352C211.903 147.716 211.274 145.514 211.274 142.746C211.274 140.23 211.903 138.007 213.161 136.078C214.42 134.149 216.181 132.66 218.446 131.611C220.711 130.563 223.311 130.038 226.247 130.038C230.525 130.038 233.964 131.045 236.564 133.058C239.206 135.071 240.674 137.986 240.968 141.803H233.041C232.873 140.125 232.16 138.72 230.902 137.588C229.644 136.455 227.966 135.889 225.869 135.889C223.688 135.889 221.927 136.434 220.585 137.525C219.243 138.615 218.572 140.23 218.572 142.369C218.572 143.921 218.991 145.179 219.83 146.143C220.711 147.066 221.801 147.779 223.101 148.282C224.401 148.744 226.205 149.247 228.511 149.792C231.321 150.463 233.607 151.176 235.369 151.931C237.13 152.644 238.619 153.798 239.835 155.391C241.094 156.943 241.723 159.103 241.723 161.871ZM264.151 139.097C266.877 139.097 269.268 139.727 271.323 140.985C273.42 142.201 275.035 143.816 276.167 145.829V139.664H283.402V174.327H276.167V167.847C274.993 169.986 273.378 171.706 271.323 173.006C269.268 174.264 266.877 174.893 264.151 174.893C261.131 174.893 258.363 174.139 255.847 172.629C253.373 171.077 251.401 168.938 249.933 166.212C248.507 163.444 247.794 160.319 247.794 156.838C247.794 153.357 248.507 150.275 249.933 147.59C251.401 144.906 253.373 142.83 255.847 141.362C258.363 139.852 261.131 139.097 264.151 139.097ZM265.661 145.326C263.816 145.326 262.096 145.787 260.502 146.71C258.909 147.59 257.608 148.911 256.602 150.673C255.637 152.393 255.155 154.448 255.155 156.838C255.155 159.229 255.637 161.326 256.602 163.129C257.608 164.933 258.909 166.317 260.502 167.281C262.138 168.204 263.858 168.665 265.661 168.665C267.506 168.665 269.226 168.204 270.82 167.281C272.413 166.359 273.693 165.017 274.657 163.255C275.664 161.452 276.167 159.355 276.167 156.964C276.167 154.573 275.664 152.497 274.657 150.736C273.693 148.974 272.413 147.632 270.82 146.71C269.226 145.787 267.506 145.326 265.661 145.326ZM306.221 167.91L316.035 139.664H323.773L310.562 174.327H301.881L288.732 139.664H296.407L306.221 167.91ZM342.469 167.91L352.283 139.664H360.021L346.809 174.327H338.128L324.98 139.664H332.655L342.469 167.91ZM369.216 139.664L378.967 166.086L389.096 139.664H396.519L375.256 190.621H367.832L374.878 173.761L361.227 139.664H369.216ZM414.073 139.097C417.932 139.097 421.035 140.104 423.384 142.117C425.775 144.088 427.054 146.793 427.222 150.233H419.861C419.735 148.513 419.127 147.171 418.037 146.206C416.988 145.242 415.499 144.759 413.57 144.759C411.641 144.759 410.131 145.2 409.041 146.081C407.95 146.919 407.405 148.01 407.405 149.352C407.405 150.442 407.761 151.323 408.474 151.994C409.187 152.665 410.089 153.189 411.18 153.567C412.312 153.902 413.822 154.28 415.709 154.699C418.267 155.286 420.322 155.874 421.874 156.461C423.468 157.048 424.831 158.013 425.963 159.355C427.096 160.655 427.662 162.437 427.662 164.702C427.662 166.673 427.075 168.435 425.901 169.986C424.768 171.538 423.174 172.754 421.119 173.635C419.064 174.474 416.737 174.893 414.136 174.893C410.11 174.893 406.86 173.929 404.385 172C401.911 170.07 400.548 167.323 400.296 163.758H407.719C407.845 165.478 408.474 166.82 409.607 167.785C410.739 168.749 412.249 169.232 414.136 169.232C416.149 169.232 417.722 168.812 418.855 167.973C420.029 167.093 420.616 165.96 420.616 164.576C420.616 163.444 420.239 162.542 419.484 161.871C418.771 161.2 417.848 160.697 416.716 160.361C415.583 159.984 414.052 159.585 412.123 159.166C409.607 158.579 407.573 158.013 406.021 157.467C404.469 156.88 403.127 155.957 401.995 154.699C400.904 153.441 400.359 151.742 400.359 149.603C400.359 147.674 400.904 145.913 401.995 144.319C403.085 142.725 404.658 141.467 406.713 140.544C408.81 139.58 411.263 139.097 414.073 139.097Z" fill="#212529"/>
<path d="M69.9116 225.629V123.692C69.9116 96.5398 91.9227 74.5287 119.075 74.5287H132.729V176.466C132.729 203.618 110.717 225.629 83.5654 225.629H69.9116Z" fill="url(#paint0_linear_58_86)"/>
<path d="M10.0428 194.049C4.40905 190.737 0.949457 184.69 0.949448 178.155L0.949291 70.4724C0.949282 63.8035 4.55085 57.6544 10.3676 54.3923L63.7662 24.4458V225.629L10.0428 194.049Z" fill="url(#paint1_linear_58_86)"/>
<defs>
<linearGradient id="paint0_linear_58_86" x1="0.949288" y1="42.7183" x2="132.729" y2="225.629" gradientUnits="userSpaceOnUse">
<stop stop-color="#FFD166"/>
<stop offset="1" stop-color="#6E44FF"/>
</linearGradient>
<linearGradient id="paint1_linear_58_86" x1="0.949288" y1="42.7183" x2="132.729" y2="225.629" gradientUnits="userSpaceOnUse">
<stop stop-color="#FFD166"/>
<stop offset="1" stop-color="#6E44FF"/>
</linearGradient>
</defs>
</svg>
