<svg width="195" height="40" viewBox="0 0 195 40" fill="none" xmlns="http://www.w3.org/2000/svg">
<path d="M15.4512 7.94531H23.4129V39.9085L15.4512 32.1322V7.94531Z" fill="#7043E3"/>
<path d="M31.4101 39.9091V32.1318L15.4533 32.1315L23.4136 39.9088L31.4101 39.9091Z" fill="#7043E3"/>
<rect x="23.4141" y="0.167236" width="7.77802" height="7.77802" fill="#7043E3"/>
<rect x="0.0332031" y="0.167236" width="15.4187" height="7.77802" fill="#7043E3"/>
<rect x="46.3281" y="5.03064" width="147.689" height="25.6896" fill="#7043E3"/>
<path d="M128.352 25.8512C127.143 25.8512 126.085 25.6624 125.178 25.2846C124.272 24.8917 123.569 24.3402 123.071 23.63C122.587 22.9047 122.345 22.0661 122.345 21.1141V20.6155C122.345 20.5399 122.368 20.4795 122.413 20.4341C122.474 20.3737 122.542 20.3435 122.617 20.3435H125.201C125.277 20.3435 125.337 20.3737 125.382 20.4341C125.443 20.4795 125.473 20.5399 125.473 20.6155V20.9554C125.473 21.5599 125.753 22.0736 126.312 22.4967C126.871 22.9047 127.626 23.1087 128.578 23.1087C129.379 23.1087 129.976 22.9425 130.369 22.61C130.762 22.2625 130.958 21.8394 130.958 21.3408C130.958 20.9781 130.837 20.6759 130.596 20.4341C130.354 20.1773 130.021 19.9582 129.598 19.7768C129.19 19.5804 128.533 19.316 127.626 18.9835C126.614 18.636 125.753 18.2809 125.042 17.9182C124.347 17.5556 123.758 17.0645 123.275 16.445C122.806 15.8103 122.572 15.0321 122.572 14.1104C122.572 13.2038 122.806 12.4105 123.275 11.7305C123.743 11.0505 124.393 10.5292 125.224 10.1666C126.055 9.8039 127.014 9.62258 128.102 9.62258C129.251 9.62258 130.271 9.82657 131.162 10.2346C132.069 10.6425 132.772 11.2167 133.27 11.9571C133.784 12.6825 134.041 13.5286 134.041 14.4957V14.8357C134.041 14.9113 134.011 14.9792 133.95 15.0397C133.905 15.085 133.844 15.1077 133.769 15.1077H131.162C131.087 15.1077 131.019 15.085 130.958 15.0397C130.913 14.9792 130.89 14.9113 130.89 14.8357V14.6544C130.89 14.0197 130.626 13.4833 130.097 13.0451C129.583 12.5918 128.873 12.3651 127.966 12.3651C127.256 12.3651 126.697 12.5162 126.289 12.8184C125.896 13.1207 125.7 13.5362 125.7 14.0651C125.7 14.4428 125.813 14.7601 126.04 15.017C126.282 15.2739 126.629 15.5081 127.082 15.7197C127.551 15.9161 128.269 16.1881 129.236 16.5356C130.308 16.9285 131.147 17.276 131.752 17.5783C132.371 17.8805 132.923 18.3338 133.406 18.9382C133.905 19.5275 134.154 20.2981 134.154 21.2501C134.154 22.6705 133.633 23.7962 132.59 24.6273C131.548 25.4433 130.135 25.8512 128.352 25.8512ZM140.702 13.8384C141.684 13.8384 142.56 14.0122 143.331 14.3597C144.101 14.6921 144.698 15.153 145.121 15.7423C145.56 16.3316 145.779 16.9889 145.779 17.7142V25.3979C145.779 25.4735 145.748 25.5415 145.688 25.6019C145.643 25.6473 145.582 25.6699 145.507 25.6699H142.855C142.779 25.6699 142.711 25.6473 142.651 25.6019C142.605 25.5415 142.583 25.4735 142.583 25.3979V24.65C142.583 24.6046 142.568 24.5744 142.537 24.5593C142.507 24.5442 142.477 24.5593 142.447 24.6046C141.812 25.4357 140.792 25.8512 139.387 25.8512C138.208 25.8512 137.256 25.5641 136.531 24.9899C135.806 24.4158 135.443 23.5696 135.443 22.4514C135.443 21.2879 135.851 20.3888 136.667 19.7542C137.483 19.1044 138.646 18.7795 140.158 18.7795H142.469C142.545 18.7795 142.583 18.7418 142.583 18.6662V18.1676C142.583 17.6689 142.432 17.2836 142.129 17.0116C141.827 16.7245 141.374 16.581 140.769 16.581C140.301 16.581 139.908 16.6641 139.591 16.8303C139.289 16.9965 139.092 17.2307 139.002 17.5329C138.956 17.6991 138.858 17.7747 138.707 17.7596L135.964 17.3969C135.783 17.3667 135.7 17.2987 135.715 17.1929C135.775 16.5583 136.025 15.9841 136.463 15.4703C136.916 14.9566 137.506 14.5562 138.231 14.2691C138.971 13.982 139.795 13.8384 140.702 13.8384ZM140.248 23.4713C140.898 23.4713 141.449 23.2976 141.903 22.95C142.356 22.6025 142.583 22.1567 142.583 21.6128V20.7968C142.583 20.7212 142.545 20.6835 142.469 20.6835H140.837C140.158 20.6835 139.621 20.8119 139.228 21.0688C138.85 21.3257 138.662 21.6883 138.662 22.1567C138.662 22.5647 138.805 22.8896 139.092 23.1314C139.379 23.358 139.765 23.4713 140.248 23.4713ZM150.961 25.6699C150.81 25.6699 150.712 25.5944 150.666 25.4433L147.04 14.3144C147.025 14.2842 147.017 14.2464 147.017 14.2011C147.017 14.0651 147.1 13.9971 147.267 13.9971H150.19C150.357 13.9971 150.462 14.0726 150.508 14.2237L152.366 21.0914C152.381 21.1368 152.404 21.1594 152.434 21.1594C152.465 21.1594 152.487 21.1368 152.502 21.0914L154.361 14.2237C154.406 14.0726 154.512 13.9971 154.678 13.9971L157.602 14.0424C157.693 14.0424 157.761 14.0726 157.806 14.1331C157.851 14.1784 157.859 14.2539 157.829 14.3597L154.225 25.4433C154.18 25.5944 154.081 25.6699 153.93 25.6699H150.961ZM162.737 25.6699C162.586 25.6699 162.487 25.5944 162.442 25.4433L158.815 14.3144C158.8 14.2842 158.793 14.2464 158.793 14.2011C158.793 14.0651 158.876 13.9971 159.042 13.9971H161.966C162.132 13.9971 162.238 14.0726 162.283 14.2237L164.142 21.0914C164.157 21.1368 164.18 21.1594 164.21 21.1594C164.24 21.1594 164.263 21.1368 164.278 21.0914L166.137 14.2237C166.182 14.0726 166.288 13.9971 166.454 13.9971L169.378 14.0424C169.468 14.0424 169.536 14.0726 169.582 14.1331C169.627 14.1784 169.635 14.2539 169.604 14.3597L166.001 25.4433C165.955 25.5944 165.857 25.6699 165.706 25.6699H162.737ZM171.203 30.1804C171.158 30.1804 171.12 30.1502 171.09 30.0897C171.059 30.0444 171.044 29.984 171.044 29.9084V27.8232C171.044 27.7476 171.067 27.6796 171.112 27.6192C171.173 27.5738 171.241 27.5512 171.316 27.5512C171.951 27.5361 172.45 27.4832 172.812 27.3925C173.19 27.3019 173.485 27.1281 173.696 26.8712C173.923 26.6143 174.097 26.2366 174.218 25.7379C174.233 25.7077 174.233 25.6624 174.218 25.6019L170.5 14.3144C170.485 14.2842 170.478 14.2464 170.478 14.2011C170.478 14.0651 170.561 13.9971 170.727 13.9971H173.56C173.726 13.9971 173.832 14.0726 173.878 14.2237L175.782 21.5674C175.797 21.6128 175.819 21.6354 175.85 21.6354C175.88 21.6354 175.902 21.6128 175.918 21.5674L177.821 14.2237C177.867 14.0726 177.973 13.9971 178.139 13.9971H180.904C180.995 13.9971 181.055 14.0273 181.085 14.0877C181.131 14.1331 181.138 14.2086 181.108 14.3144L177.187 26.1006C176.809 27.2036 176.424 28.0272 176.031 28.5711C175.638 29.1302 175.086 29.5382 174.376 29.7951C173.666 30.052 172.661 30.1804 171.362 30.1804H171.203ZM186.52 25.8286C185.508 25.8286 184.624 25.685 183.868 25.3979C183.113 25.1108 182.523 24.7104 182.1 24.1966C181.692 23.6829 181.488 23.1011 181.488 22.4514V22.2247C181.488 22.1492 181.511 22.0887 181.556 22.0434C181.617 21.983 181.685 21.9527 181.76 21.9527H184.276C184.352 21.9527 184.412 21.983 184.457 22.0434C184.518 22.0887 184.548 22.1492 184.548 22.2247V22.2474C184.548 22.5798 184.729 22.8669 185.092 23.1087C185.47 23.3354 185.938 23.4487 186.497 23.4487C187.011 23.4487 187.427 23.3505 187.744 23.154C188.061 22.9425 188.22 22.6856 188.22 22.3834C188.22 22.1114 188.084 21.9074 187.812 21.7714C187.54 21.6354 187.094 21.4919 186.475 21.3408C185.764 21.1594 185.205 20.9857 184.797 20.8195C183.83 20.487 183.06 20.079 182.485 19.5955C181.911 19.112 181.624 18.4169 181.624 17.5103C181.624 16.3921 182.055 15.5081 182.916 14.8584C183.792 14.1935 184.948 13.8611 186.384 13.8611C187.351 13.8611 188.197 14.0197 188.923 14.3371C189.648 14.6393 190.207 15.0699 190.6 15.629C191.008 16.1881 191.212 16.8227 191.212 17.5329C191.212 17.6085 191.182 17.6765 191.121 17.7369C191.076 17.7822 191.015 17.8049 190.94 17.8049H188.515C188.439 17.8049 188.371 17.7822 188.311 17.7369C188.265 17.6765 188.243 17.6085 188.243 17.5329C188.243 17.2005 188.069 16.9209 187.721 16.6943C187.389 16.4676 186.943 16.3543 186.384 16.3543C185.885 16.3543 185.477 16.445 185.16 16.6263C184.843 16.8076 184.684 17.0569 184.684 17.3743C184.684 17.6765 184.835 17.9031 185.137 18.0542C185.455 18.2053 185.976 18.364 186.701 18.5302C186.867 18.5755 187.056 18.6284 187.268 18.6889C187.479 18.7342 187.706 18.7946 187.948 18.8702C189.021 19.1875 189.867 19.5955 190.486 20.0941C191.106 20.5928 191.416 21.3181 191.416 22.2701C191.416 23.3882 190.97 24.2646 190.078 24.8993C189.202 25.5188 188.016 25.8286 186.52 25.8286Z" fill="white"/>
<path d="M60.3692 9.8039C60.4448 9.8039 60.5052 9.83412 60.5506 9.89457C60.611 9.9399 60.6412 10.0003 60.6412 10.0759V12.2971C60.6412 12.3727 60.611 12.4407 60.5506 12.5011C60.5052 12.5465 60.4448 12.5691 60.3692 12.5691H56.3121C56.2365 12.5691 56.1987 12.6069 56.1987 12.6825V25.3979C56.1987 25.4735 56.1685 25.5415 56.1081 25.6019C56.0627 25.6473 56.0023 25.6699 55.9267 25.6699H53.2748C53.1993 25.6699 53.1313 25.6473 53.0709 25.6019C53.0255 25.5415 53.0029 25.4735 53.0029 25.3979V12.6825C53.0029 12.6069 52.9651 12.5691 52.8895 12.5691H48.9457C48.8701 12.5691 48.8021 12.5465 48.7417 12.5011C48.6964 12.4407 48.6737 12.3727 48.6737 12.2971V10.0759C48.6737 10.0003 48.6964 9.9399 48.7417 9.89457C48.8021 9.83412 48.8701 9.8039 48.9457 9.8039H60.3692ZM70.8856 18.6435C70.9763 19.2177 71.0065 19.8599 70.9763 20.5701C70.9612 20.7515 70.8629 20.8421 70.6816 20.8421H63.6779C63.5872 20.8421 63.557 20.8799 63.5872 20.9554C63.6326 21.2577 63.7157 21.5599 63.8366 21.8621C64.2294 22.7083 65.0303 23.1314 66.2391 23.1314C67.2062 23.1162 67.9693 22.7234 68.5284 21.9527C68.5888 21.8621 68.6568 21.8167 68.7324 21.8167C68.7777 21.8167 68.8306 21.847 68.891 21.9074L70.5229 23.5167C70.5985 23.5922 70.6363 23.6602 70.6363 23.7207C70.6363 23.7509 70.6061 23.8113 70.5456 23.902C70.047 24.5215 69.4048 25.0051 68.619 25.3526C67.8333 25.685 66.972 25.8512 66.0351 25.8512C64.7356 25.8512 63.6326 25.5566 62.7259 24.9673C61.8344 24.378 61.1922 23.5545 60.7993 22.4967C60.482 21.7412 60.3234 20.7515 60.3234 19.5275C60.3234 18.6964 60.4367 17.9636 60.6633 17.3289C61.0109 16.2561 61.6153 15.4023 62.4766 14.7677C63.353 14.1331 64.3881 13.8157 65.5818 13.8157C67.0929 13.8157 68.3017 14.2539 69.2083 15.1304C70.1301 16.0068 70.6892 17.1778 70.8856 18.6435ZM65.6045 16.581C64.6525 16.581 64.0254 17.0267 63.7232 17.9182C63.6628 18.1147 63.6099 18.3564 63.5646 18.6435C63.5646 18.7191 63.6023 18.7569 63.6779 18.7569H67.5991C67.6897 18.7569 67.7199 18.7191 67.6897 18.6435C67.6142 18.2053 67.5764 17.9938 67.5764 18.0089C67.4404 17.5556 67.1986 17.208 66.8511 16.9663C66.5187 16.7094 66.1031 16.581 65.6045 16.581ZM78.0683 25.8512C76.8595 25.8512 75.8093 25.549 74.9178 24.9446C74.0414 24.3402 73.4143 23.5091 73.0365 22.4514C72.7797 21.6959 72.6512 20.8043 72.6512 19.7768C72.6512 18.7644 72.7797 17.888 73.0365 17.1476C73.3992 16.1201 74.0263 15.3117 74.9178 14.7224C75.8093 14.1331 76.8595 13.8384 78.0683 13.8384C79.2772 13.8384 80.3349 14.1406 81.2415 14.745C82.1633 15.3495 82.7753 16.1125 83.0775 17.0343C83.1983 17.3969 83.2588 17.6689 83.2588 17.8502V17.8956C83.2588 18.0316 83.1832 18.1147 83.0321 18.1449L80.4256 18.5302H80.3802C80.2442 18.5302 80.1536 18.4547 80.1083 18.3036L80.0403 17.9409C79.9345 17.548 79.7003 17.2232 79.3376 16.9663C78.975 16.7094 78.5443 16.581 78.0457 16.581C77.5621 16.581 77.1541 16.7018 76.8217 16.9436C76.4893 17.1854 76.2551 17.5178 76.1191 17.9409C75.9529 18.3942 75.8698 19.0137 75.8698 19.7995C75.8698 20.5852 75.9453 21.2048 76.0964 21.6581C76.2324 22.1114 76.4666 22.4665 76.7991 22.7234C77.1466 22.9803 77.5621 23.1087 78.0457 23.1087C78.5141 23.1087 78.9221 22.9878 79.2696 22.746C79.6323 22.4892 79.8816 22.1416 80.0176 21.7034C80.0327 21.6732 80.0403 21.6279 80.0403 21.5674C80.0554 21.5523 80.0629 21.5296 80.0629 21.4994C80.078 21.3181 80.1838 21.2425 80.3802 21.2728L82.9868 21.6808C83.1379 21.711 83.2135 21.7941 83.2135 21.9301C83.2135 22.051 83.1681 22.2776 83.0775 22.61C82.7601 23.6225 82.1406 24.4158 81.2189 24.9899C80.3122 25.5641 79.2621 25.8512 78.0683 25.8512ZM91.1943 13.8384C92.4031 13.8384 93.3777 14.2086 94.1182 14.949C94.8586 15.6894 95.2288 16.6943 95.2288 17.9636V25.3979C95.2288 25.4735 95.1986 25.5415 95.1381 25.6019C95.0928 25.6473 95.0323 25.6699 94.9568 25.6699H92.3049C92.2293 25.6699 92.1613 25.6473 92.1009 25.6019C92.0556 25.5415 92.0329 25.4735 92.0329 25.3979V18.6209C92.0329 18.0165 91.8591 17.5254 91.5116 17.1476C91.1792 16.7698 90.7334 16.581 90.1743 16.581C89.6152 16.581 89.1619 16.7698 88.8144 17.1476C88.4819 17.5254 88.3157 18.0165 88.3157 18.6209V25.3979C88.3157 25.4735 88.2855 25.5415 88.2251 25.6019C88.1797 25.6473 88.1193 25.6699 88.0437 25.6699H85.3918C85.3163 25.6699 85.2483 25.6473 85.1879 25.6019C85.1425 25.5415 85.1199 25.4735 85.1199 25.3979V10.0759C85.1199 10.0003 85.1425 9.9399 85.1879 9.89457C85.2483 9.83412 85.3163 9.8039 85.3918 9.8039H88.0437C88.1193 9.8039 88.1797 9.83412 88.2251 9.89457C88.2855 9.9399 88.3157 10.0003 88.3157 10.0759V15.085C88.3157 15.1304 88.3308 15.1606 88.3611 15.1757C88.3913 15.1908 88.4139 15.1832 88.4291 15.153C89.0486 14.2766 89.9703 13.8384 91.1943 13.8384ZM103.59 13.8384C104.798 13.8384 105.773 14.2086 106.513 14.949C107.254 15.6894 107.624 16.6943 107.624 17.9636V25.3979C107.624 25.4735 107.594 25.5415 107.533 25.6019C107.488 25.6473 107.428 25.6699 107.352 25.6699H104.7C104.625 25.6699 104.557 25.6473 104.496 25.6019C104.451 25.5415 104.428 25.4735 104.428 25.3979V18.6209C104.428 18.0165 104.254 17.5254 103.907 17.1476C103.574 16.7698 103.129 16.581 102.57 16.581C102.011 16.581 101.557 16.7698 101.21 17.1476C100.877 17.5254 100.711 18.0165 100.711 18.6209V25.3979C100.711 25.4735 100.681 25.5415 100.62 25.6019C100.575 25.6473 100.515 25.6699 100.439 25.6699H97.7872C97.7116 25.6699 97.6436 25.6473 97.5832 25.6019C97.5378 25.5415 97.5152 25.4735 97.5152 25.3979V14.2917C97.5152 14.2162 97.5378 14.1557 97.5832 14.1104C97.6436 14.05 97.7116 14.0197 97.7872 14.0197H100.439C100.515 14.0197 100.575 14.05 100.62 14.1104C100.681 14.1557 100.711 14.2162 100.711 14.2917V15.085C100.711 15.1304 100.726 15.1606 100.756 15.1757C100.787 15.1908 100.809 15.1832 100.824 15.153C101.444 14.2766 102.366 13.8384 103.59 13.8384ZM114.989 25.8512C113.72 25.8512 112.632 25.5188 111.725 24.854C110.819 24.1891 110.199 23.2825 109.867 22.1341C109.655 21.4239 109.549 20.6532 109.549 19.8222C109.549 18.9306 109.655 18.1298 109.867 17.4196C110.214 16.3014 110.841 15.425 111.748 14.7904C112.655 14.1557 113.743 13.8384 115.012 13.8384C116.251 13.8384 117.309 14.1557 118.185 14.7904C119.062 15.4099 119.681 16.2788 120.044 17.3969C120.285 18.1525 120.406 18.9458 120.406 19.7768C120.406 20.5928 120.301 21.3559 120.089 22.0661C119.757 23.2447 119.137 24.174 118.23 24.854C117.339 25.5188 116.259 25.8512 114.989 25.8512ZM114.989 23.1087C115.488 23.1087 115.911 22.9576 116.259 22.6554C116.606 22.3532 116.855 21.9376 117.006 21.4088C117.127 20.9252 117.188 20.3964 117.188 19.8222C117.188 19.1875 117.127 18.6511 117.006 18.2129C116.84 17.6991 116.583 17.2987 116.236 17.0116C115.888 16.7245 115.465 16.581 114.967 16.581C114.453 16.581 114.022 16.7245 113.675 17.0116C113.342 17.2987 113.1 17.6991 112.949 18.2129C112.828 18.5755 112.768 19.112 112.768 19.8222C112.768 20.5021 112.821 21.031 112.927 21.4088C113.078 21.9376 113.327 22.3532 113.675 22.6554C114.037 22.9576 114.475 23.1087 114.989 23.1087Z" fill="white"/>
</svg>
