<svg width="402" height="403" viewBox="0 0 402 403" fill="none" xmlns="http://www.w3.org/2000/svg">
<rect width="402" height="402" transform="translate(0 0.205078)" fill="white"/>
<path d="M204.072 214.801V112.903C204.072 85.7611 226.074 63.7584 253.216 63.7584H266.864V165.657C266.864 192.798 244.862 214.801 217.72 214.801H204.072Z" fill="#FFD166"/>
<path d="M144.226 183.233C138.594 179.922 135.136 173.878 135.136 167.345L135.136 59.7038C135.136 53.0374 138.736 46.8906 144.55 43.6298L197.928 13.6948L197.928 214.801L144.226 183.233Z" fill="#6E44FF"/>
<path d="M115.051 264.973V273.151H102.972V309.136H92.2145V273.151H80.1986V264.973H115.051ZM154.332 291.71C154.332 292.926 154.248 294.058 154.08 295.107H129.923C130.133 296.659 130.825 297.938 131.999 298.944C133.173 299.909 134.641 300.391 136.403 300.391C137.745 300.391 138.751 300.203 139.422 299.825C140.093 299.406 140.806 298.735 141.561 297.812H153.2C152.193 301.335 150.18 304.187 147.16 306.368C144.141 308.507 140.555 309.576 136.403 309.576C133.047 309.576 130.028 308.842 127.343 307.374C124.701 305.906 122.625 303.809 121.115 301.083C119.647 298.315 118.914 295.128 118.914 291.521C118.914 287.914 119.647 284.769 121.115 282.084C122.625 279.358 124.701 277.282 127.343 275.856C129.986 274.388 132.984 273.654 136.34 273.654C139.737 273.654 142.798 274.367 145.525 275.793C148.251 277.177 150.39 279.232 151.941 281.959C153.535 284.685 154.332 287.935 154.332 291.71ZM143.134 288.375C142.966 286.74 142.253 285.419 140.995 284.412C139.737 283.364 138.185 282.839 136.34 282.839C134.746 282.839 133.362 283.364 132.188 284.412C131.013 285.419 130.279 286.74 129.986 288.375H143.134ZM176.152 273.654C180.43 273.654 184.057 274.724 187.035 276.863C190.013 278.96 191.984 281.98 192.949 285.922H181.31C180.304 283.825 178.584 282.776 176.152 282.776C174.013 282.776 172.377 283.594 171.245 285.23C170.154 286.824 169.609 288.942 169.609 291.584C169.609 294.226 170.154 296.365 171.245 298.001C172.377 299.594 174.013 300.391 176.152 300.391C177.494 300.391 178.542 300.161 179.297 299.699C180.052 299.238 180.723 298.42 181.31 297.246H192.949C191.984 301.02 189.992 304.019 186.972 306.242C183.952 308.465 180.346 309.576 176.152 309.576C172.796 309.576 169.777 308.842 167.093 307.374C164.45 305.906 162.374 303.809 160.864 301.083C159.396 298.357 158.663 295.191 158.663 291.584C158.663 287.977 159.396 284.832 160.864 282.147C162.374 279.421 164.45 277.324 167.093 275.856C169.777 274.388 172.796 273.654 176.152 273.654ZM220.353 273.654C222.995 273.654 225.323 274.263 227.336 275.479C229.391 276.653 230.985 278.373 232.117 280.637C233.292 282.902 233.879 285.565 233.879 288.627V309.136H223.184V290.074C223.184 287.809 222.576 286.069 221.36 284.852C220.185 283.594 218.55 282.965 216.453 282.965C214.356 282.965 212.699 283.594 211.483 284.852C210.308 286.069 209.721 287.809 209.721 290.074V309.136H198.963V262.582H209.721V279.191C210.77 277.471 212.196 276.129 213.999 275.164C215.844 274.158 217.962 273.654 220.353 273.654ZM264.403 273.654C267.045 273.654 269.372 274.263 271.386 275.479C273.441 276.653 275.034 278.373 276.167 280.637C277.341 282.902 277.928 285.565 277.928 288.627V309.136H267.233V290.074C267.233 287.809 266.625 286.069 265.409 284.852C264.235 283.594 262.599 282.965 260.502 282.965C258.405 282.965 256.748 283.594 255.532 284.852C254.358 286.069 253.771 287.809 253.771 290.074V309.136H243.013V274.032H253.771V279.191C254.819 277.471 256.245 276.129 258.049 275.164C259.894 274.158 262.012 273.654 264.403 273.654ZM302.916 273.654C306.271 273.654 309.333 274.388 312.101 275.856C314.911 277.282 317.134 279.358 318.769 282.084C320.405 284.769 321.223 287.914 321.223 291.521C321.223 295.128 320.405 298.294 318.769 301.02C317.176 303.747 314.995 305.865 312.227 307.374C309.459 308.842 306.376 309.576 302.979 309.576C299.582 309.576 296.478 308.842 293.668 307.374C290.858 305.865 288.635 303.747 287 301.02C285.364 298.294 284.546 295.128 284.546 291.521C284.546 287.914 285.364 284.769 287 282.084C288.635 279.358 290.837 277.282 293.605 275.856C296.415 274.388 299.519 273.654 302.916 273.654ZM302.916 282.839C300.861 282.839 299.099 283.594 297.631 285.104C296.205 286.572 295.493 288.732 295.493 291.584C295.493 294.436 296.226 296.617 297.694 298.127C299.204 299.636 300.966 300.391 302.979 300.391C304.992 300.391 306.712 299.636 308.137 298.127C309.563 296.617 310.276 294.436 310.276 291.584C310.276 288.732 309.542 286.572 308.075 285.104C306.607 283.594 304.887 282.839 302.916 282.839Z" fill="#6E44FF"/>
<path d="M119.257 351.259C119.257 353.482 118.649 355.579 117.432 357.55C116.258 359.521 114.518 361.115 112.211 362.331C109.904 363.547 107.199 364.156 104.095 364.156C99.6078 364.156 95.9381 363.086 93.0861 360.947C90.2342 358.808 88.8082 355.851 88.8082 352.077H96.4833C96.651 354.006 97.364 355.537 98.6222 356.669C99.8804 357.802 101.705 358.368 104.095 358.368C106.57 358.368 108.499 357.739 109.883 356.481C111.309 355.222 112.022 353.608 112.022 351.636C112.022 350.085 111.582 348.868 110.701 347.988C109.862 347.065 108.793 346.373 107.493 345.912C106.192 345.408 104.41 344.884 102.145 344.339C99.2933 343.668 96.9866 342.976 95.2251 342.263C93.4636 341.508 91.9537 340.334 90.6955 338.74C89.4373 337.104 88.8082 334.902 88.8082 332.134C88.8082 329.618 89.4373 327.395 90.6955 325.466C91.9537 323.536 93.7152 322.048 95.98 320.999C98.2448 319.951 100.845 319.426 103.781 319.426C108.059 319.426 111.498 320.433 114.098 322.446C116.74 324.459 118.208 327.374 118.502 331.191H110.575C110.407 329.513 109.694 328.108 108.436 326.976C107.178 325.843 105.5 325.277 103.403 325.277C101.223 325.277 99.461 325.822 98.119 326.913C96.7769 328.003 96.1058 329.618 96.1058 331.757C96.1058 333.309 96.5252 334.567 97.364 335.531C98.2448 336.454 99.3352 337.167 100.635 337.67C101.936 338.132 103.739 338.635 106.046 339.18C108.856 339.851 111.141 340.564 112.903 341.319C114.664 342.032 116.153 343.185 117.37 344.779C118.628 346.331 119.257 348.491 119.257 351.259ZM141.685 328.485C144.411 328.485 146.802 329.115 148.857 330.373C150.954 331.589 152.569 333.204 153.701 335.217V329.052H160.936V363.715H153.701V357.235C152.527 359.374 150.912 361.094 148.857 362.394C146.802 363.652 144.411 364.281 141.685 364.281C138.666 364.281 135.898 363.526 133.381 362.017C130.907 360.465 128.936 358.326 127.468 355.6C126.042 352.832 125.329 349.707 125.329 346.226C125.329 342.745 126.042 339.662 127.468 336.978C128.936 334.294 130.907 332.218 133.381 330.75C135.898 329.24 138.666 328.485 141.685 328.485ZM143.195 334.714C141.35 334.714 139.63 335.175 138.037 336.098C136.443 336.978 135.143 338.299 134.136 340.061C133.171 341.78 132.689 343.836 132.689 346.226C132.689 348.617 133.171 350.714 134.136 352.517C135.143 354.321 136.443 355.705 138.037 356.669C139.672 357.592 141.392 358.053 143.195 358.053C145.041 358.053 146.76 357.592 148.354 356.669C149.948 355.747 151.227 354.404 152.191 352.643C153.198 350.84 153.701 348.743 153.701 346.352C153.701 343.961 153.198 341.885 152.191 340.124C151.227 338.362 149.948 337.02 148.354 336.098C146.76 335.175 145.041 334.714 143.195 334.714ZM183.756 357.298L193.57 329.052H201.308L188.096 363.715H179.415L166.267 329.052H173.942L183.756 357.298ZM220.003 357.298L229.817 329.052H237.555L224.344 363.715H215.662L202.514 329.052H210.189L220.003 357.298ZM246.751 329.052L256.502 355.474L266.63 329.052H274.054L252.79 380.009H245.367L252.412 363.149L238.761 329.052H246.751ZM291.608 328.485C295.466 328.485 298.57 329.492 300.918 331.505C303.309 333.476 304.588 336.181 304.756 339.621H297.395C297.27 337.901 296.661 336.559 295.571 335.594C294.522 334.63 293.034 334.147 291.104 334.147C289.175 334.147 287.665 334.588 286.575 335.468C285.484 336.307 284.939 337.398 284.939 338.74C284.939 339.83 285.296 340.711 286.009 341.382C286.722 342.053 287.623 342.577 288.714 342.955C289.846 343.29 291.356 343.668 293.243 344.087C295.802 344.674 297.857 345.262 299.408 345.849C301.002 346.436 302.365 347.4 303.498 348.743C304.63 350.043 305.196 351.825 305.196 354.09C305.196 356.061 304.609 357.823 303.435 359.374C302.302 360.926 300.709 362.142 298.654 363.023C296.598 363.862 294.271 364.281 291.67 364.281C287.644 364.281 284.394 363.317 281.919 361.388C279.445 359.458 278.082 356.711 277.83 353.146H285.254C285.379 354.866 286.009 356.208 287.141 357.173C288.273 358.137 289.783 358.619 291.67 358.619C293.684 358.619 295.256 358.2 296.389 357.361C297.563 356.481 298.15 355.348 298.15 353.964C298.15 352.832 297.773 351.93 297.018 351.259C296.305 350.588 295.382 350.085 294.25 349.749C293.117 349.372 291.587 348.973 289.657 348.554C287.141 347.967 285.107 347.4 283.555 346.855C282.003 346.268 280.661 345.345 279.529 344.087C278.438 342.829 277.893 341.13 277.893 338.991C277.893 337.062 278.438 335.301 279.529 333.707C280.619 332.113 282.192 330.855 284.247 329.932C286.344 328.968 288.798 328.485 291.608 328.485Z" fill="#212529"/>
</svg>
