<svg width="675" height="262" viewBox="0 0 675 262" fill="none" xmlns="http://www.w3.org/2000/svg">
<g clip-path="url(#clip0_15_77)">
<path d="M69.3848 76.5808H105.213V220.418L69.3848 185.424V76.5808Z" fill="#7043E3"/>
<path d="M141.197 220.421V185.422L69.39 185.421L105.212 220.42L141.197 220.421Z" fill="#7043E3"/>
<rect x="105.215" y="41.579" width="35.0018" height="35.0018" fill="#7043E3"/>
<rect y="41.579" width="69.3858" height="35.0018" fill="#7043E3"/>
<path d="M191.031 105.01V114.155H177.524V154.395H165.494V114.155H152.058V105.01H191.031ZM234.956 134.908C234.956 136.268 234.863 137.535 234.675 138.707H207.661C207.896 140.442 208.669 141.873 209.983 142.998C211.296 144.077 212.937 144.616 214.907 144.616C216.408 144.616 217.533 144.405 218.284 143.983C219.034 143.514 219.831 142.764 220.676 141.732H233.69C232.564 145.672 230.313 148.861 226.937 151.299C223.56 153.691 219.55 154.887 214.907 154.887C211.155 154.887 207.778 154.066 204.777 152.425C201.822 150.784 199.501 148.439 197.812 145.39C196.171 142.295 195.35 138.73 195.35 134.697C195.35 130.664 196.171 127.146 197.812 124.145C199.501 121.096 201.822 118.775 204.777 117.18C207.731 115.539 211.085 114.718 214.837 114.718C218.635 114.718 222.059 115.515 225.108 117.11C228.156 118.658 230.548 120.956 232.283 124.004C234.065 127.053 234.956 130.687 234.956 134.908ZM222.434 131.18C222.247 129.351 221.449 127.873 220.042 126.748C218.635 125.575 216.9 124.989 214.837 124.989C213.054 124.989 211.507 125.575 210.194 126.748C208.88 127.873 208.06 129.351 207.731 131.18H222.434ZM259.356 114.718C264.139 114.718 268.196 115.914 271.526 118.306C274.856 120.651 277.06 124.028 278.139 128.436H265.124C263.999 126.091 262.076 124.919 259.356 124.919C256.964 124.919 255.135 125.833 253.869 127.662C252.649 129.444 252.04 131.813 252.04 134.768C252.04 137.722 252.649 140.114 253.869 141.943C255.135 143.725 256.964 144.616 259.356 144.616C260.857 144.616 262.029 144.358 262.873 143.842C263.717 143.327 264.468 142.412 265.124 141.099H278.139C277.06 145.32 274.832 148.673 271.456 151.159C268.079 153.644 264.046 154.887 259.356 154.887C255.604 154.887 252.227 154.066 249.226 152.425C246.271 150.784 243.949 148.439 242.261 145.39C240.62 142.342 239.799 138.801 239.799 134.768C239.799 130.734 240.62 127.217 242.261 124.215C243.949 121.167 246.271 118.822 249.226 117.18C252.227 115.539 255.604 114.718 259.356 114.718ZM308.783 114.718C311.738 114.718 314.341 115.398 316.592 116.758C318.89 118.071 320.672 119.994 321.939 122.527C323.252 125.059 323.908 128.037 323.908 131.461V154.395H311.949V133.079C311.949 130.547 311.269 128.6 309.909 127.24C308.596 125.833 306.767 125.13 304.422 125.13C302.077 125.13 300.224 125.833 298.864 127.24C297.551 128.6 296.894 130.547 296.894 133.079V154.395H284.865V102.337H296.894V120.909C298.067 118.986 299.662 117.485 301.678 116.407C303.742 115.281 306.11 114.718 308.783 114.718ZM358.041 114.718C360.996 114.718 363.599 115.398 365.85 116.758C368.148 118.071 369.93 119.994 371.196 122.527C372.51 125.059 373.166 128.037 373.166 131.461V154.395H361.207V133.079C361.207 130.547 360.527 128.6 359.167 127.24C357.854 125.833 356.025 125.13 353.68 125.13C351.335 125.13 349.482 125.833 348.122 127.24C346.809 128.6 346.152 130.547 346.152 133.079V154.395H334.123V115.14H346.152V120.909C347.325 118.986 348.919 117.485 350.936 116.407C353 115.281 355.368 114.718 358.041 114.718ZM401.108 114.718C404.86 114.718 408.284 115.539 411.379 117.18C414.521 118.775 417.007 121.096 418.836 124.145C420.665 127.146 421.58 130.664 421.58 134.697C421.58 138.73 420.665 142.271 418.836 145.32C417.054 148.368 414.615 150.737 411.52 152.425C408.425 154.066 404.977 154.887 401.179 154.887C397.38 154.887 393.909 154.066 390.767 152.425C387.625 150.737 385.139 148.368 383.31 145.32C381.481 142.271 380.566 138.73 380.566 134.697C380.566 130.664 381.481 127.146 383.31 124.145C385.139 121.096 387.601 118.775 390.697 117.18C393.839 115.539 397.309 114.718 401.108 114.718ZM401.108 124.989C398.81 124.989 396.84 125.833 395.199 127.522C393.604 129.163 392.807 131.578 392.807 134.768C392.807 137.957 393.628 140.395 395.269 142.084C396.958 143.772 398.927 144.616 401.179 144.616C403.43 144.616 405.353 143.772 406.947 142.084C408.542 140.395 409.339 137.957 409.339 134.768C409.339 131.578 408.518 129.163 406.877 127.522C405.235 125.833 403.313 124.989 401.108 124.989Z" fill="#05090F"/>
<path d="M463.338 144.492C463.338 146.978 462.658 149.323 461.298 151.527C459.985 153.731 458.038 155.513 455.459 156.873C452.88 158.234 449.855 158.914 446.384 158.914C441.366 158.914 437.262 157.718 434.073 155.326C430.884 152.934 429.289 149.628 429.289 145.407H437.872C438.059 147.564 438.857 149.276 440.264 150.542C441.671 151.808 443.711 152.442 446.384 152.442C449.151 152.442 451.308 151.738 452.856 150.331C454.451 148.924 455.248 147.118 455.248 144.914C455.248 143.179 454.755 141.819 453.771 140.834C452.833 139.802 451.637 139.028 450.183 138.512C448.729 137.95 446.736 137.363 444.203 136.754C441.014 136.003 438.435 135.23 436.465 134.432C434.495 133.588 432.807 132.275 431.4 130.493C429.993 128.664 429.289 126.201 429.289 123.106C429.289 120.292 429.993 117.807 431.4 115.649C432.807 113.492 434.776 111.827 437.309 110.654C439.842 109.482 442.749 108.896 446.032 108.896C450.816 108.896 454.662 110.021 457.569 112.272C460.524 114.524 462.166 117.783 462.494 122.051H453.63C453.442 120.175 452.645 118.604 451.238 117.338C449.831 116.071 447.955 115.438 445.61 115.438C443.171 115.438 441.202 116.048 439.701 117.267C438.2 118.487 437.45 120.292 437.45 122.684C437.45 124.419 437.919 125.826 438.857 126.905C439.842 127.937 441.061 128.734 442.515 129.297C443.969 129.813 445.985 130.375 448.565 130.985C451.707 131.736 454.263 132.533 456.233 133.377C458.203 134.174 459.867 135.464 461.228 137.246C462.635 138.981 463.338 141.397 463.338 144.492ZM488.418 119.026C491.467 119.026 494.14 119.729 496.438 121.136C498.783 122.496 500.589 124.302 501.855 126.553V119.659H509.945V158.421H501.855V151.175C500.542 153.567 498.736 155.49 496.438 156.944C494.14 158.351 491.467 159.054 488.418 159.054C485.042 159.054 481.946 158.21 479.132 156.522C476.365 154.786 474.161 152.395 472.52 149.346C470.925 146.251 470.128 142.757 470.128 138.864C470.128 134.972 470.925 131.525 472.52 128.523C474.161 125.521 476.365 123.2 479.132 121.558C481.946 119.87 485.042 119.026 488.418 119.026ZM490.107 125.99C488.043 125.99 486.12 126.506 484.338 127.538C482.556 128.523 481.102 130 479.977 131.97C478.898 133.893 478.359 136.191 478.359 138.864C478.359 141.537 478.898 143.882 479.977 145.899C481.102 147.916 482.556 149.463 484.338 150.542C486.167 151.574 488.09 152.09 490.107 152.09C492.17 152.09 494.093 151.574 495.875 150.542C497.658 149.51 499.088 148.01 500.167 146.04C501.292 144.023 501.855 141.678 501.855 139.005C501.855 136.332 501.292 134.01 500.167 132.04C499.088 130.071 497.658 128.57 495.875 127.538C494.093 126.506 492.17 125.99 490.107 125.99ZM535.463 151.246L546.437 119.659H555.09L540.317 158.421H530.609L515.906 119.659H524.489L535.463 151.246ZM575.996 151.246L586.97 119.659H595.623L580.85 158.421H571.142L556.439 119.659H565.021L575.996 151.246ZM605.906 119.659L616.81 149.205L628.136 119.659H636.437L612.66 176.641H604.358L612.237 157.788L596.972 119.659H605.906ZM656.067 119.026C660.382 119.026 663.852 120.151 666.478 122.403C669.152 124.607 670.582 127.632 670.77 131.478H662.539C662.398 129.555 661.718 128.054 660.499 126.975C659.326 125.897 657.661 125.357 655.504 125.357C653.347 125.357 651.658 125.85 650.439 126.835C649.22 127.773 648.61 128.992 648.61 130.493C648.61 131.712 649.009 132.697 649.806 133.447C650.603 134.198 651.611 134.784 652.831 135.206C654.097 135.581 655.785 136.003 657.896 136.472C660.757 137.129 663.055 137.786 664.79 138.442C666.572 139.099 668.097 140.177 669.363 141.678C670.629 143.132 671.262 145.125 671.262 147.658C671.262 149.862 670.606 151.832 669.292 153.567C668.026 155.302 666.244 156.662 663.946 157.647C661.648 158.585 659.045 159.054 656.137 159.054C651.635 159.054 648 157.976 645.233 155.818C642.466 153.661 640.942 150.589 640.661 146.603H648.962C649.102 148.525 649.806 150.026 651.072 151.105C652.338 152.184 654.027 152.723 656.137 152.723C658.388 152.723 660.147 152.254 661.413 151.316C662.727 150.331 663.383 149.065 663.383 147.517C663.383 146.251 662.961 145.242 662.117 144.492C661.32 143.742 660.288 143.179 659.022 142.804C657.755 142.382 656.043 141.936 653.886 141.467C651.072 140.811 648.798 140.177 647.062 139.568C645.327 138.911 643.826 137.879 642.56 136.472C641.341 135.065 640.731 133.166 640.731 130.774C640.731 128.617 641.341 126.647 642.56 124.865C643.779 123.083 645.538 121.676 647.836 120.644C650.181 119.565 652.925 119.026 656.067 119.026Z" fill="#05090F"/>
</g>
<defs>
<clipPath id="clip0_15_77">
<rect width="675" height="262" fill="white"/>
</clipPath>
</defs>
</svg>
