<svg width="675" height="262" viewBox="0 0 675 262" fill="none" xmlns="http://www.w3.org/2000/svg">
<g clip-path="url(#clip0_15_134)">
<path d="M68.9844 76.5808H104.813V220.418L68.9844 185.424V76.5808Z" fill="#7043E3"/>
<path d="M140.797 220.421V185.422L68.9896 185.421L104.812 220.42L140.797 220.421Z" fill="#7043E3"/>
<rect x="104.814" y="41.579" width="35.0018" height="35.0018" fill="#7043E3"/>
<rect x="-0.400391" y="41.579" width="69.3858" height="35.0018" fill="#7043E3"/>
<rect x="140.996" y="84.5394" width="534.203" height="92.9211" fill="#7043E3"/>
<path d="M191.823 106.195V114.79H179.129V152.608H167.823V114.79H155.195V106.195H191.823ZM233.105 134.294C233.105 135.572 233.017 136.762 232.841 137.864H207.453C207.673 139.495 208.4 140.839 209.634 141.897C210.869 142.911 212.411 143.418 214.262 143.418C215.673 143.418 216.731 143.22 217.436 142.823C218.141 142.382 218.891 141.677 219.684 140.707H231.915C230.857 144.41 228.742 147.407 225.568 149.699C222.395 151.947 218.626 153.071 214.262 153.071C210.736 153.071 207.563 152.299 204.742 150.757C201.965 149.214 199.783 147.01 198.196 144.145C196.654 141.236 195.882 137.886 195.882 134.096C195.882 130.305 196.654 126.999 198.196 124.178C199.783 121.313 201.965 119.132 204.742 117.633C207.519 116.09 210.67 115.319 214.196 115.319C217.767 115.319 220.984 116.068 223.849 117.567C226.714 119.021 228.962 121.181 230.593 124.046C232.268 126.911 233.105 130.327 233.105 134.294ZM221.337 130.79C221.161 129.071 220.411 127.682 219.089 126.625C217.767 125.523 216.136 124.972 214.196 124.972C212.521 124.972 211.067 125.523 209.833 126.625C208.599 127.682 207.827 129.071 207.519 130.79H221.337ZM256.036 115.319C260.532 115.319 264.345 116.443 267.474 118.691C270.604 120.895 272.675 124.068 273.689 128.211H261.458C260.4 126.008 258.593 124.906 256.036 124.906C253.789 124.906 252.07 125.765 250.879 127.484C249.733 129.159 249.16 131.385 249.16 134.162C249.16 136.939 249.733 139.187 250.879 140.906C252.07 142.58 253.789 143.418 256.036 143.418C257.447 143.418 258.549 143.175 259.342 142.691C260.136 142.206 260.841 141.346 261.458 140.112H273.689C272.675 144.079 270.582 147.231 267.408 149.567C264.235 151.903 260.444 153.071 256.036 153.071C252.51 153.071 249.337 152.299 246.516 150.757C243.739 149.214 241.557 147.01 239.97 144.145C238.428 141.28 237.656 137.952 237.656 134.162C237.656 130.371 238.428 127.065 239.97 124.244C241.557 121.379 243.739 119.176 246.516 117.633C249.337 116.09 252.51 115.319 256.036 115.319ZM302.49 115.319C305.266 115.319 307.713 115.958 309.828 117.236C311.988 118.47 313.663 120.278 314.853 122.658C316.087 125.038 316.704 127.837 316.704 131.054V152.608H305.465V132.575C305.465 130.195 304.826 128.366 303.547 127.087C302.313 125.765 300.594 125.104 298.39 125.104C296.187 125.104 294.446 125.765 293.167 127.087C291.933 128.366 291.316 130.195 291.316 132.575V152.608H280.01V103.683H291.316V121.137C292.418 119.33 293.917 117.919 295.812 116.906C297.751 115.848 299.977 115.319 302.49 115.319ZM348.783 115.319C351.56 115.319 354.006 115.958 356.122 117.236C358.282 118.47 359.957 120.278 361.147 122.658C362.381 125.038 362.998 127.837 362.998 131.054V152.608H351.758V132.575C351.758 130.195 351.119 128.366 349.841 127.087C348.607 125.765 346.888 125.104 344.684 125.104C342.48 125.104 340.739 125.765 339.461 127.087C338.227 128.366 337.61 130.195 337.61 132.575V152.608H326.304V115.716H337.61V121.137C338.712 119.33 340.21 117.919 342.106 116.906C344.045 115.848 346.271 115.319 348.783 115.319ZM389.259 115.319C392.785 115.319 396.002 116.09 398.911 117.633C401.865 119.132 404.201 121.313 405.92 124.178C407.639 126.999 408.498 130.305 408.498 134.096C408.498 137.886 407.639 141.214 405.92 144.079C404.245 146.944 401.953 149.17 399.044 150.757C396.135 152.299 392.895 153.071 389.325 153.071C385.754 153.071 382.493 152.299 379.54 150.757C376.587 149.17 374.25 146.944 372.531 144.079C370.812 141.214 369.953 137.886 369.953 134.096C369.953 130.305 370.812 126.999 372.531 124.178C374.25 121.313 376.564 119.132 379.474 117.633C382.427 116.09 385.688 115.319 389.259 115.319ZM389.259 124.972C387.099 124.972 385.248 125.765 383.705 127.352C382.206 128.895 381.457 131.165 381.457 134.162C381.457 137.159 382.228 139.451 383.771 141.038C385.358 142.625 387.209 143.418 389.325 143.418C391.44 143.418 393.248 142.625 394.746 141.038C396.245 139.451 396.994 137.159 396.994 134.162C396.994 131.165 396.223 128.895 394.68 127.352C393.137 125.765 391.33 124.972 389.259 124.972Z" fill="white"/>
<path d="M450.595 142.574C450.595 145.13 449.868 147.511 448.413 149.714C447.003 151.874 444.975 153.615 442.33 154.938C439.73 156.216 436.777 156.855 433.471 156.855C428.049 156.855 423.73 155.599 420.512 153.086C417.339 150.574 415.752 147.004 415.752 142.376H427.785C428.094 146.078 429.989 147.929 433.471 147.929C435.102 147.929 436.38 147.511 437.306 146.673C438.231 145.792 438.694 144.646 438.694 143.235C438.694 142.001 438.297 140.987 437.504 140.194C436.711 139.4 435.741 138.783 434.595 138.343C433.449 137.902 431.796 137.373 429.636 136.756C426.727 135.962 424.347 135.147 422.496 134.31C420.645 133.472 419.058 132.194 417.736 130.475C416.413 128.756 415.752 126.464 415.752 123.599C415.752 120.734 416.501 118.222 418 116.062C419.499 113.902 421.526 112.249 424.083 111.103C426.683 109.913 429.548 109.318 432.678 109.318C437.835 109.318 441.956 110.464 445.041 112.756C448.126 115.004 449.735 118.574 449.868 123.467H437.57C437.394 121.792 436.843 120.514 435.917 119.632C435.036 118.706 433.912 118.244 432.545 118.244C431.091 118.244 429.901 118.618 428.975 119.368C428.094 120.117 427.653 121.263 427.653 122.806C427.653 124.084 428.049 125.142 428.843 125.979C429.636 126.772 430.628 127.412 431.818 127.896C433.052 128.337 434.705 128.822 436.777 129.351C439.73 130.188 442.11 131.004 443.917 131.797C445.768 132.591 447.333 133.869 448.611 135.632C449.934 137.351 450.595 139.665 450.595 142.574ZM473.633 119.103C478.35 119.103 481.964 120.844 484.476 124.326V119.5H495.782V156.392H484.476V151.037C481.743 154.916 478.129 156.855 473.633 156.855C470.592 156.855 467.771 156.062 465.171 154.475C462.614 152.888 460.587 150.662 459.088 147.797C457.589 144.932 456.84 141.67 456.84 138.012C456.84 134.354 457.589 131.092 459.088 128.227C460.587 125.362 462.614 123.136 465.171 121.549C467.771 119.919 470.592 119.103 473.633 119.103ZM476.41 128.888C475.088 128.888 473.788 129.241 472.509 129.946C471.275 130.607 470.261 131.621 469.468 132.987C468.719 134.354 468.344 136.029 468.344 138.012C468.344 139.996 468.719 141.67 469.468 143.037C470.261 144.359 471.275 145.373 472.509 146.078C473.744 146.739 475.044 147.07 476.41 147.07C477.732 147.07 479.011 146.739 480.245 146.078C481.523 145.373 482.537 144.337 483.286 142.971C484.08 141.604 484.476 139.929 484.476 137.946C484.476 135.962 484.08 134.31 483.286 132.987C482.537 131.621 481.545 130.607 480.311 129.946C479.077 129.241 477.777 128.888 476.41 128.888ZM521.451 146.938L529.847 119.5H541.88L528.789 156.392H514.112L501.021 119.5H513.054L521.451 146.938ZM562.837 146.938L571.234 119.5H583.267L570.176 156.392H555.498L542.408 119.5H554.441L562.837 146.938ZM596.621 119.5L604.819 143.632L613.811 119.5H625.645L602.108 173.979H590.274L598.141 155.665L583.794 119.5H596.621ZM644.265 119.103C648.673 119.103 652.331 120.183 655.24 122.343C658.149 124.503 659.692 127.456 659.868 131.202H648.298C648.166 129.924 647.725 129.064 646.976 128.624C646.226 128.139 645.102 127.896 643.604 127.896C642.193 127.896 641.091 128.139 640.298 128.624C639.549 129.064 639.174 129.726 639.174 130.607C639.174 131.621 639.725 132.37 640.827 132.855C641.973 133.296 643.824 133.803 646.381 134.376C649.157 134.949 651.449 135.566 653.257 136.227C655.108 136.844 656.695 137.88 658.017 139.334C659.339 140.745 660 142.684 660 145.153C660 147.444 659.317 149.472 657.951 151.235C656.628 152.998 654.777 154.387 652.397 155.4C650.061 156.37 647.438 156.855 644.529 156.855C639.945 156.855 636.155 155.841 633.157 153.814C630.16 151.742 628.529 148.701 628.265 144.69H639.835C640.011 145.88 640.496 146.739 641.29 147.268C642.083 147.797 643.185 148.062 644.595 148.062C645.918 148.062 646.998 147.753 647.835 147.136C648.717 146.519 649.157 145.77 649.157 144.888C649.157 143.83 648.562 143.059 647.372 142.574C646.182 142.045 644.309 141.516 641.752 140.987C638.976 140.414 636.684 139.819 634.876 139.202C633.113 138.585 631.571 137.593 630.248 136.227C628.97 134.816 628.331 132.943 628.331 130.607C628.331 128.491 628.926 126.574 630.116 124.855C631.35 123.092 633.157 121.704 635.538 120.69C637.962 119.632 640.871 119.103 644.265 119.103Z" fill="white"/>
</g>
<defs>
<clipPath id="clip0_15_134">
<rect width="675" height="262" fill="white"/>
</clipPath>
</defs>
</svg>
