<svg width="570" height="262" viewBox="0 0 570 262" fill="none" xmlns="http://www.w3.org/2000/svg">
<path d="M68.9358 224.757L68.9358 122.859C68.9358 95.717 90.9384 73.7144 118.08 73.7144H131.729V175.613C131.729 202.754 109.726 224.757 82.5843 224.757H68.9358Z" fill="#FFD166"/>
<path d="M9.09004 193.188C3.45843 189.878 0.000181639 183.834 0.000172145 177.301L1.56891e-05 69.6597C5.99955e-06 62.9933 3.60019 56.8466 9.41467 53.5858L62.7928 23.6508L62.7928 224.757L9.09004 193.188Z" fill="#6E44FF"/>
<path d="M236.517 74.751V82.9293H224.438V118.914H213.68V82.9293H201.664V74.751H236.517ZM275.798 101.488C275.798 102.704 275.714 103.837 275.546 104.885H251.389C251.598 106.437 252.29 107.716 253.465 108.723C254.639 109.687 256.107 110.17 257.868 110.17C259.21 110.17 260.217 109.981 260.888 109.603C261.559 109.184 262.272 108.513 263.027 107.59H274.665C273.659 111.113 271.646 113.965 268.626 116.146C265.606 118.285 262.02 119.354 257.868 119.354C254.513 119.354 251.493 118.62 248.809 117.153C246.167 115.685 244.091 113.588 242.581 110.862C241.113 108.093 240.379 104.906 240.379 101.299C240.379 97.6923 241.113 94.5468 242.581 91.8626C244.091 89.1365 246.167 87.0605 248.809 85.6345C251.452 84.1666 254.45 83.4326 257.805 83.4326C261.203 83.4326 264.264 84.1456 266.99 85.5716C269.717 86.9556 271.855 89.0107 273.407 91.7368C275.001 94.4629 275.798 97.7133 275.798 101.488ZM264.6 98.1536C264.432 96.518 263.719 95.1969 262.461 94.1903C261.203 93.1418 259.651 92.6175 257.805 92.6175C256.212 92.6175 254.828 93.1418 253.653 94.1903C252.479 95.1969 251.745 96.518 251.452 98.1536H264.6ZM297.617 83.4326C301.895 83.4326 305.523 84.5021 308.501 86.6411C311.479 88.7381 313.45 91.7578 314.414 95.7001H302.776C301.77 93.6031 300.05 92.5546 297.617 92.5546C295.478 92.5546 293.843 93.3725 292.71 95.0081C291.62 96.6019 291.075 98.7198 291.075 101.362C291.075 104.004 291.62 106.143 292.71 107.779C293.843 109.373 295.478 110.17 297.617 110.17C298.96 110.17 300.008 109.939 300.763 109.478C301.518 109.016 302.189 108.198 302.776 107.024H314.414C313.45 110.799 311.458 113.797 308.438 116.02C305.418 118.243 301.811 119.354 297.617 119.354C294.262 119.354 291.243 118.62 288.558 117.153C285.916 115.685 283.84 113.588 282.33 110.862C280.862 108.135 280.128 104.969 280.128 101.362C280.128 97.7552 280.862 94.6097 282.33 91.9255C283.84 89.1994 285.916 87.1024 288.558 85.6345C291.243 84.1666 294.262 83.4326 297.617 83.4326ZM341.819 83.4326C344.461 83.4326 346.789 84.0408 348.802 85.257C350.857 86.4314 352.451 88.1509 353.583 90.4157C354.757 92.6804 355.345 95.3437 355.345 98.4053V118.914H344.65V99.8522C344.65 97.5875 344.042 95.8469 342.825 94.6307C341.651 93.3725 340.015 92.7434 337.918 92.7434C335.821 92.7434 334.165 93.3725 332.948 94.6307C331.774 95.8469 331.187 97.5875 331.187 99.8522V118.914H320.429V72.3604H331.187V88.9687C332.235 87.2492 333.661 85.9071 335.465 84.9425C337.31 83.9359 339.428 83.4326 341.819 83.4326ZM385.868 83.4326C388.511 83.4326 390.838 84.0408 392.851 85.257C394.906 86.4314 396.5 88.1509 397.633 90.4157C398.807 92.6804 399.394 95.3437 399.394 98.4053V118.914H388.699V99.8522C388.699 97.5875 388.091 95.8469 386.875 94.6307C385.701 93.3725 384.065 92.7434 381.968 92.7434C379.871 92.7434 378.214 93.3725 376.998 94.6307C375.824 95.8469 375.236 97.5875 375.236 99.8522V118.914H364.479V83.8101H375.236V88.9687C376.285 87.2492 377.711 85.9071 379.514 84.9425C381.36 83.9359 383.478 83.4326 385.868 83.4326ZM424.382 83.4326C427.737 83.4326 430.799 84.1666 433.567 85.6345C436.377 87.0605 438.599 89.1365 440.235 91.8626C441.871 94.5468 442.689 97.6923 442.689 101.299C442.689 104.906 441.871 108.073 440.235 110.799C438.641 113.525 436.461 115.643 433.692 117.153C430.924 118.62 427.842 119.354 424.445 119.354C421.048 119.354 417.944 118.62 415.134 117.153C412.324 115.643 410.101 113.525 408.465 110.799C406.83 108.073 406.012 104.906 406.012 101.299C406.012 97.6923 406.83 94.5468 408.465 91.8626C410.101 89.1365 412.303 87.0605 415.071 85.6345C417.881 84.1666 420.985 83.4326 424.382 83.4326ZM424.382 92.6175C422.327 92.6175 420.565 93.3725 419.097 94.8823C417.671 96.3502 416.958 98.5101 416.958 101.362C416.958 104.214 417.692 106.395 419.16 107.905C420.67 109.415 422.432 110.17 424.445 110.17C426.458 110.17 428.177 109.415 429.603 107.905C431.029 106.395 431.742 104.214 431.742 101.362C431.742 98.5101 431.008 96.3502 429.54 94.8823C428.072 93.3725 426.353 92.6175 424.382 92.6175Z" fill="#6E44FF"/>
<path d="M240.723 161.037C240.723 163.26 240.115 165.357 238.898 167.328C237.724 169.299 235.983 170.893 233.677 172.109C231.37 173.326 228.665 173.934 225.561 173.934C221.074 173.934 217.404 172.864 214.552 170.725C211.7 168.586 210.274 165.63 210.274 161.855H217.949C218.117 163.784 218.83 165.315 220.088 166.447C221.346 167.58 223.171 168.146 225.561 168.146C228.036 168.146 229.965 167.517 231.349 166.259C232.775 165.001 233.488 163.386 233.488 161.415C233.488 159.863 233.048 158.647 232.167 157.766C231.328 156.843 230.259 156.151 228.958 155.69C227.658 155.186 225.876 154.662 223.611 154.117C220.759 153.446 218.452 152.754 216.691 152.041C214.929 151.286 213.42 150.112 212.161 148.518C210.903 146.882 210.274 144.68 210.274 141.912C210.274 139.396 210.903 137.173 212.161 135.244C213.42 133.315 215.181 131.826 217.446 130.777C219.711 129.729 222.311 129.205 225.247 129.205C229.525 129.205 232.964 130.211 235.564 132.224C238.206 134.237 239.674 137.152 239.968 140.969H232.041C231.873 139.291 231.16 137.886 229.902 136.754C228.644 135.621 226.966 135.055 224.869 135.055C222.688 135.055 220.927 135.6 219.585 136.691C218.243 137.781 217.572 139.396 217.572 141.535C217.572 143.087 217.991 144.345 218.83 145.31C219.711 146.232 220.801 146.945 222.101 147.449C223.401 147.91 225.205 148.413 227.511 148.958C230.321 149.629 232.607 150.342 234.369 151.097C236.13 151.81 237.619 152.964 238.835 154.557C240.094 156.109 240.723 158.269 240.723 161.037ZM263.151 138.264C265.877 138.264 268.268 138.893 270.323 140.151C272.42 141.367 274.035 142.982 275.167 144.995V138.83H282.402V173.493H275.167V167.014C273.993 169.153 272.378 170.872 270.323 172.172C268.268 173.43 265.877 174.06 263.151 174.06C260.131 174.06 257.363 173.305 254.847 171.795C252.373 170.243 250.401 168.104 248.933 165.378C247.507 162.61 246.794 159.485 246.794 156.004C246.794 152.523 247.507 149.441 248.933 146.757C250.401 144.072 252.373 141.996 254.847 140.528C257.363 139.019 260.131 138.264 263.151 138.264ZM264.661 144.492C262.816 144.492 261.096 144.953 259.502 145.876C257.909 146.757 256.608 148.078 255.602 149.839C254.637 151.559 254.155 153.614 254.155 156.004C254.155 158.395 254.637 160.492 255.602 162.295C256.608 164.099 257.909 165.483 259.502 166.447C261.138 167.37 262.858 167.831 264.661 167.831C266.506 167.831 268.226 167.37 269.82 166.447C271.413 165.525 272.693 164.183 273.657 162.421C274.664 160.618 275.167 158.521 275.167 156.13C275.167 153.74 274.664 151.664 273.657 149.902C272.693 148.141 271.413 146.798 269.82 145.876C268.226 144.953 266.506 144.492 264.661 144.492ZM305.221 167.077L315.035 138.83H322.773L309.562 173.493H300.881L287.732 138.83H295.407L305.221 167.077ZM341.469 167.077L351.283 138.83H359.021L345.809 173.493H337.128L323.98 138.83H331.655L341.469 167.077ZM368.216 138.83L377.967 165.252L388.096 138.83H395.519L374.256 189.787H366.832L373.878 172.927L360.227 138.83H368.216ZM413.073 138.264C416.932 138.264 420.035 139.27 422.384 141.283C424.775 143.255 426.054 145.96 426.222 149.399H418.861C418.735 147.679 418.127 146.337 417.037 145.372C415.988 144.408 414.499 143.926 412.57 143.926C410.641 143.926 409.131 144.366 408.041 145.247C406.95 146.085 406.405 147.176 406.405 148.518C406.405 149.608 406.761 150.489 407.474 151.16C408.187 151.831 409.089 152.356 410.18 152.733C411.312 153.069 412.822 153.446 414.709 153.865C417.267 154.453 419.322 155.04 420.874 155.627C422.468 156.214 423.831 157.179 424.963 158.521C426.096 159.821 426.662 161.603 426.662 163.868C426.662 165.839 426.075 167.601 424.901 169.153C423.768 170.704 422.174 171.921 420.119 172.801C418.064 173.64 415.737 174.06 413.136 174.06C409.11 174.06 405.86 173.095 403.385 171.166C400.911 169.236 399.548 166.489 399.296 162.924H406.719C406.845 164.644 407.474 165.986 408.607 166.951C409.739 167.915 411.249 168.398 413.136 168.398C415.149 168.398 416.722 167.978 417.855 167.139C419.029 166.259 419.616 165.126 419.616 163.742C419.616 162.61 419.239 161.708 418.484 161.037C417.771 160.366 416.848 159.863 415.716 159.527C414.583 159.15 413.052 158.751 411.123 158.332C408.607 157.745 406.573 157.179 405.021 156.633C403.469 156.046 402.127 155.124 400.995 153.865C399.904 152.607 399.359 150.909 399.359 148.77C399.359 146.84 399.904 145.079 400.995 143.485C402.085 141.891 403.658 140.633 405.713 139.711C407.81 138.746 410.263 138.264 413.073 138.264Z" fill="#212529"/>
</svg>
