<svg width="675" height="262" viewBox="0 0 675 262" fill="none" xmlns="http://www.w3.org/2000/svg">
<g clip-path="url(#clip0_15_107)">
<path d="M68.9844 76.5808H104.813V220.418L68.9844 185.424V76.5808Z" fill="#7043E3"/>
<path d="M140.797 220.421V185.422L68.9896 185.421L104.812 220.42L140.797 220.421Z" fill="#7043E3"/>
<rect x="104.814" y="41.579" width="35.0018" height="35.0018" fill="#7043E3"/>
<rect x="-0.400391" y="41.579" width="69.3858" height="35.0018" fill="#7043E3"/>
<path d="M204.438 106.195V114.79H191.744V152.608H180.439V114.79H167.811V106.195H204.438ZM245.721 134.294C245.721 135.572 245.632 136.762 245.456 137.864H220.068C220.288 139.495 221.016 140.839 222.25 141.897C223.484 142.911 225.027 143.418 226.878 143.418C228.288 143.418 229.346 143.22 230.051 142.823C230.756 142.382 231.506 141.677 232.299 140.707H244.53C243.473 144.41 241.357 147.407 238.183 149.699C235.01 151.947 231.241 153.071 226.878 153.071C223.352 153.071 220.178 152.299 217.357 150.757C214.58 149.214 212.398 147.01 210.812 144.145C209.269 141.236 208.498 137.886 208.498 134.096C208.498 130.305 209.269 126.999 210.812 124.178C212.398 121.313 214.58 119.132 217.357 117.633C220.134 116.09 223.285 115.319 226.812 115.319C230.382 115.319 233.599 116.068 236.464 117.567C239.329 119.021 241.577 121.181 243.208 124.046C244.883 126.911 245.721 130.327 245.721 134.294ZM233.952 130.79C233.776 129.071 233.026 127.682 231.704 126.625C230.382 125.523 228.751 124.972 226.812 124.972C225.137 124.972 223.682 125.523 222.448 126.625C221.214 127.682 220.443 129.071 220.134 130.79H233.952ZM268.652 115.319C273.148 115.319 276.96 116.443 280.09 118.691C283.219 120.895 285.291 124.068 286.304 128.211H274.073C273.015 126.008 271.208 124.906 268.652 124.906C266.404 124.906 264.685 125.765 263.495 127.484C262.349 129.159 261.776 131.385 261.776 134.162C261.776 136.939 262.349 139.187 263.495 140.906C264.685 142.58 266.404 143.418 268.652 143.418C270.062 143.418 271.164 143.175 271.957 142.691C272.751 142.206 273.456 141.346 274.073 140.112H286.304C285.291 144.079 283.197 147.231 280.024 149.567C276.85 151.903 273.059 153.071 268.652 153.071C265.126 153.071 261.952 152.299 259.131 150.757C256.354 149.214 254.172 147.01 252.586 144.145C251.043 141.28 250.272 137.952 250.272 134.162C250.272 130.371 251.043 127.065 252.586 124.244C254.172 121.379 256.354 119.176 259.131 117.633C261.952 116.09 265.126 115.319 268.652 115.319ZM315.105 115.319C317.882 115.319 320.328 115.958 322.444 117.236C324.603 118.47 326.278 120.278 327.468 122.658C328.703 125.038 329.32 127.837 329.32 131.054V152.608H318.08V132.575C318.08 130.195 317.441 128.366 316.163 127.087C314.929 125.765 313.21 125.104 311.006 125.104C308.802 125.104 307.061 125.765 305.783 127.087C304.548 128.366 303.931 130.195 303.931 132.575V152.608H292.626V103.683H303.931V121.137C305.033 119.33 306.532 117.919 308.427 116.906C310.367 115.848 312.592 115.319 315.105 115.319ZM361.398 115.319C364.175 115.319 366.622 115.958 368.737 117.236C370.897 118.47 372.572 120.278 373.762 122.658C374.996 125.038 375.613 127.837 375.613 131.054V152.608H364.374V132.575C364.374 130.195 363.734 128.366 362.456 127.087C361.222 125.765 359.503 125.104 357.299 125.104C355.095 125.104 353.354 125.765 352.076 127.087C350.842 128.366 350.225 130.195 350.225 132.575V152.608H338.919V115.716H350.225V121.137C351.327 119.33 352.825 117.919 354.721 116.906C356.66 115.848 358.886 115.319 361.398 115.319ZM401.874 115.319C405.4 115.319 408.618 116.09 411.527 117.633C414.48 119.132 416.816 121.313 418.535 124.178C420.254 126.999 421.113 130.305 421.113 134.096C421.113 137.886 420.254 141.214 418.535 144.079C416.86 146.944 414.568 149.17 411.659 150.757C408.75 152.299 405.51 153.071 401.94 153.071C398.37 153.071 395.108 152.299 392.155 150.757C389.202 149.17 386.866 146.944 385.147 144.079C383.428 141.214 382.568 137.886 382.568 134.096C382.568 130.305 383.428 126.999 385.147 124.178C386.866 121.313 389.18 119.132 392.089 117.633C395.042 116.09 398.304 115.319 401.874 115.319ZM401.874 124.972C399.714 124.972 397.863 125.765 396.32 127.352C394.822 128.895 394.072 131.165 394.072 134.162C394.072 137.159 394.844 139.451 396.386 141.038C397.973 142.625 399.824 143.418 401.94 143.418C404.056 143.418 405.863 142.625 407.361 141.038C408.86 139.451 409.609 137.159 409.609 134.162C409.609 131.165 408.838 128.895 407.295 127.352C405.753 125.765 403.945 124.972 401.874 124.972Z" fill="#05090F"/>
<path d="M463.21 142.574C463.21 145.13 462.483 147.511 461.028 149.714C459.618 151.874 457.59 153.615 454.946 154.938C452.345 156.216 449.392 156.855 446.086 156.855C440.665 156.855 436.345 155.599 433.128 153.086C429.954 150.574 428.367 147.004 428.367 142.376H440.4C440.709 146.078 442.604 147.929 446.086 147.929C447.717 147.929 448.995 147.511 449.921 146.673C450.846 145.792 451.309 144.646 451.309 143.235C451.309 142.001 450.913 140.987 450.119 140.194C449.326 139.4 448.356 138.783 447.21 138.343C446.064 137.902 444.411 137.373 442.251 136.756C439.342 135.962 436.962 135.147 435.111 134.31C433.26 133.472 431.673 132.194 430.351 130.475C429.028 128.756 428.367 126.464 428.367 123.599C428.367 120.734 429.117 118.222 430.615 116.062C432.114 113.902 434.141 112.249 436.698 111.103C439.298 109.913 442.163 109.318 445.293 109.318C450.45 109.318 454.571 110.464 457.656 112.756C460.742 115.004 462.351 118.574 462.483 123.467H450.185C450.009 121.792 449.458 120.514 448.532 119.632C447.651 118.706 446.527 118.244 445.161 118.244C443.706 118.244 442.516 118.618 441.59 119.368C440.709 120.117 440.268 121.263 440.268 122.806C440.268 124.084 440.665 125.142 441.458 125.979C442.251 126.772 443.243 127.412 444.433 127.896C445.667 128.337 447.32 128.822 449.392 129.351C452.345 130.188 454.725 131.004 456.532 131.797C458.384 132.591 459.948 133.869 461.227 135.632C462.549 137.351 463.21 139.665 463.21 142.574ZM486.249 119.103C490.965 119.103 494.579 120.844 497.091 124.326V119.5H508.397V156.392H497.091V151.037C494.359 154.916 490.744 156.855 486.249 156.855C483.207 156.855 480.386 156.062 477.786 154.475C475.229 152.888 473.202 150.662 471.703 147.797C470.205 144.932 469.455 141.67 469.455 138.012C469.455 134.354 470.205 131.092 471.703 128.227C473.202 125.362 475.229 123.136 477.786 121.549C480.386 119.919 483.207 119.103 486.249 119.103ZM489.025 128.888C487.703 128.888 486.403 129.241 485.125 129.946C483.89 130.607 482.877 131.621 482.083 132.987C481.334 134.354 480.959 136.029 480.959 138.012C480.959 139.996 481.334 141.67 482.083 143.037C482.877 144.359 483.89 145.373 485.125 146.078C486.359 146.739 487.659 147.07 489.025 147.07C490.348 147.07 491.626 146.739 492.86 146.078C494.138 145.373 495.152 144.337 495.901 142.971C496.695 141.604 497.091 139.929 497.091 137.946C497.091 135.962 496.695 134.31 495.901 132.987C495.152 131.621 494.16 130.607 492.926 129.946C491.692 129.241 490.392 128.888 489.025 128.888ZM534.066 146.938L542.463 119.5H554.496L541.405 156.392H526.727L513.636 119.5H525.669L534.066 146.938ZM575.452 146.938L583.849 119.5H595.882L582.791 156.392H568.114L555.023 119.5H567.056L575.452 146.938ZM609.236 119.5L617.434 143.632L626.426 119.5H638.26L614.723 173.979H602.889L610.756 155.665L596.409 119.5H609.236ZM656.88 119.103C661.288 119.103 664.946 120.183 667.855 122.343C670.764 124.503 672.307 127.456 672.483 131.202H660.913C660.781 129.924 660.34 129.064 659.591 128.624C658.841 128.139 657.718 127.896 656.219 127.896C654.808 127.896 653.707 128.139 652.913 128.624C652.164 129.064 651.789 129.726 651.789 130.607C651.789 131.621 652.34 132.37 653.442 132.855C654.588 133.296 656.439 133.803 658.996 134.376C661.773 134.949 664.065 135.566 665.872 136.227C667.723 136.844 669.31 137.88 670.632 139.334C671.954 140.745 672.615 142.684 672.615 145.153C672.615 147.444 671.932 149.472 670.566 151.235C669.244 152.998 667.392 154.387 665.012 155.4C662.676 156.37 660.054 156.855 657.145 156.855C652.561 156.855 648.77 155.841 645.773 153.814C642.775 151.742 641.145 148.701 640.88 144.69H652.45C652.627 145.88 653.112 146.739 653.905 147.268C654.698 147.797 655.8 148.062 657.211 148.062C658.533 148.062 659.613 147.753 660.45 147.136C661.332 146.519 661.773 145.77 661.773 144.888C661.773 143.83 661.178 143.059 659.987 142.574C658.797 142.045 656.924 141.516 654.368 140.987C651.591 140.414 649.299 139.819 647.492 139.202C645.729 138.585 644.186 137.593 642.864 136.227C641.585 134.816 640.946 132.943 640.946 130.607C640.946 128.491 641.541 126.574 642.731 124.855C643.966 123.092 645.773 121.704 648.153 120.69C650.577 119.632 653.486 119.103 656.88 119.103Z" fill="#05090F"/>
</g>
<defs>
<clipPath id="clip0_15_107">
<rect width="675" height="262" fill="white"/>
</clipPath>
</defs>
</svg>
