<svg width="675" height="262" viewBox="0 0 675 262" fill="none" xmlns="http://www.w3.org/2000/svg">
<g clip-path="url(#clip0_13_54)">
<path d="M100.281 54.0993H151.031V257.838L100.281 208.271V54.0993Z" fill="#05090F"/>
<path d="M202 257.842V208.268L100.289 208.266L151.029 257.84L202 257.842Z" fill="#7043E3"/>
<rect x="151.031" y="4.52088" width="49.5784" height="49.5784" fill="#AB8BFF"/>
<rect x="2" y="4.52089" width="98.2817" height="49.5784" fill="#05090F"/>
<path d="M310.285 40.4493V54.8106H289.075V118H270.184V54.8106H249.084V40.4493H310.285ZM379.263 87.3995C379.263 89.5353 379.116 91.5238 378.821 93.365H336.4C336.769 96.0899 337.984 98.3362 340.046 100.104C342.108 101.798 344.686 102.645 347.779 102.645C350.136 102.645 351.903 102.313 353.082 101.65C354.26 100.914 355.512 99.7355 356.838 98.1152H377.275C375.507 104.302 371.972 109.31 366.669 113.139C361.367 116.895 355.07 118.773 347.779 118.773C341.887 118.773 336.585 117.484 331.871 114.907C327.231 112.329 323.586 108.647 320.934 103.86C318.357 98.999 317.068 93.4018 317.068 87.0681C317.068 80.7344 318.357 75.2109 320.934 70.4975C323.586 65.7104 327.231 62.0648 331.871 59.5608C336.511 56.9832 341.777 55.6943 347.668 55.6943C353.634 55.6943 359.01 56.9463 363.797 59.4504C368.584 61.8807 372.34 65.4894 375.065 70.2765C377.864 75.0636 379.263 80.7713 379.263 87.3995ZM359.599 81.5446C359.305 78.6723 358.053 76.3524 355.843 74.5849C353.634 72.7437 350.909 71.8231 347.668 71.8231C344.87 71.8231 342.439 72.7437 340.377 74.5849C338.315 76.3524 337.026 78.6723 336.511 81.5446H359.599ZM417.578 55.6943C425.091 55.6943 431.461 57.5724 436.69 61.3284C441.919 65.0107 445.38 70.3133 447.074 77.2362H426.637C424.87 73.5538 421.85 71.7126 417.578 71.7126C413.822 71.7126 410.95 73.1488 408.962 76.021C407.047 78.8196 406.089 82.5388 406.089 87.1786C406.089 91.8184 407.047 95.5744 408.962 98.4466C410.95 101.245 413.822 102.645 417.578 102.645C419.935 102.645 421.776 102.239 423.102 101.429C424.428 100.619 425.606 99.1831 426.637 97.121H447.074C445.38 103.749 441.882 109.015 436.579 112.918C431.277 116.822 424.943 118.773 417.578 118.773C411.687 118.773 406.384 117.484 401.671 114.907C397.031 112.329 393.385 108.647 390.734 103.86C388.156 99.0726 386.868 93.5123 386.868 87.1786C386.868 80.8449 388.156 75.3214 390.734 70.6079C393.385 65.8209 397.031 62.1385 401.671 59.5608C406.384 56.9832 411.687 55.6943 417.578 55.6943ZM495.196 55.6943C499.836 55.6943 503.924 56.7622 507.459 58.898C511.067 60.9601 513.866 63.9797 515.855 67.9566C517.917 71.9336 518.948 76.6102 518.948 81.9864V118H500.168V84.5273C500.168 80.5503 499.1 77.494 496.964 75.3582C494.902 73.1488 492.03 72.0441 488.347 72.0441C484.665 72.0441 481.756 73.1488 479.62 75.3582C477.558 77.494 476.527 80.5503 476.527 84.5273V118H457.636V36.2514H476.527V65.4158C478.368 62.3963 480.872 60.0395 484.039 58.3456C487.279 56.5781 490.999 55.6943 495.196 55.6943ZM572.548 55.6943C577.188 55.6943 581.275 56.7622 584.81 58.898C588.419 60.9601 591.217 63.9797 593.206 67.9566C595.268 71.9336 596.299 76.6102 596.299 81.9864V118H577.519V84.5273C577.519 80.5503 576.451 77.494 574.315 75.3582C572.253 73.1488 569.381 72.0441 565.699 72.0441C562.016 72.0441 559.107 73.1488 556.971 75.3582C554.909 77.494 553.878 80.5503 553.878 84.5273V118H534.988V56.3572H553.878V65.4158C555.719 62.3963 558.223 60.0395 561.39 58.3456C564.631 56.5781 568.35 55.6943 572.548 55.6943ZM640.178 55.6943C646.069 55.6943 651.446 56.9832 656.306 59.5608C661.241 62.0648 665.144 65.7104 668.016 70.4975C670.889 75.2109 672.325 80.7344 672.325 87.0681C672.325 93.4018 670.889 98.9622 668.016 103.749C665.218 108.536 661.388 112.256 656.527 114.907C651.667 117.484 646.253 118.773 640.288 118.773C634.323 118.773 628.873 117.484 623.938 114.907C619.004 112.256 615.101 108.536 612.228 103.749C609.356 98.9622 607.92 93.4018 607.92 87.0681C607.92 80.7344 609.356 75.2109 612.228 70.4975C615.101 65.7104 618.967 62.0648 623.828 59.5608C628.762 56.9832 634.212 55.6943 640.178 55.6943ZM640.178 71.8231C636.569 71.8231 633.476 73.1488 630.898 75.8001C628.394 78.3777 627.142 82.1706 627.142 87.1786C627.142 92.1866 628.431 96.0163 631.008 98.6676C633.66 101.319 636.753 102.645 640.288 102.645C643.823 102.645 646.843 101.319 649.347 98.6676C651.851 96.0163 653.103 92.1866 653.103 87.1786C653.103 82.1706 651.814 78.3777 649.236 75.8001C646.659 73.1488 643.639 71.8231 640.178 71.8231Z" fill="url(#paint0_linear_13_54)"/>
<path d="M317.67 191.969C317.67 195.872 316.603 199.554 314.467 203.016C312.405 206.477 309.348 209.276 305.298 211.412C301.247 213.547 296.497 214.615 291.047 214.615C283.167 214.615 276.723 212.737 271.715 208.981C266.706 205.225 264.202 200.033 264.202 193.405H277.68C277.975 196.793 279.227 199.481 281.436 201.469C283.645 203.458 286.849 204.452 291.047 204.452C295.392 204.452 298.78 203.347 301.21 201.138C303.714 198.928 304.966 196.093 304.966 192.632C304.966 189.907 304.193 187.771 302.646 186.224C301.173 184.604 299.295 183.389 297.012 182.579C294.729 181.695 291.599 180.774 287.622 179.817C282.614 178.639 278.564 177.423 275.471 176.171C272.377 174.846 269.726 172.784 267.517 169.985C265.307 167.113 264.202 163.246 264.202 158.386C264.202 153.967 265.307 150.063 267.517 146.676C269.726 143.288 272.819 140.673 276.796 138.832C280.773 136.991 285.339 136.07 290.495 136.07C298.007 136.07 304.046 137.838 308.612 141.373C313.252 144.908 315.829 150.027 316.345 156.729H302.425C302.131 153.783 300.879 151.315 298.669 149.327C296.46 147.338 293.514 146.344 289.832 146.344C286.002 146.344 282.909 147.302 280.552 149.216C278.195 151.131 277.017 153.967 277.017 157.723C277.017 160.448 277.754 162.657 279.227 164.351C280.773 165.971 282.688 167.223 284.971 168.107C287.254 168.917 290.421 169.801 294.472 170.758C299.406 171.937 303.42 173.189 306.513 174.514C309.606 175.766 312.221 177.792 314.356 180.59C316.566 183.315 317.67 187.108 317.67 191.969ZM357.055 151.978C361.842 151.978 366.04 153.083 369.649 155.292C373.331 157.428 376.167 160.264 378.155 163.799V152.973H390.859V213.842H378.155V202.464C376.093 206.22 373.258 209.239 369.649 211.522C366.04 213.732 361.842 214.836 357.055 214.836C351.752 214.836 346.892 213.511 342.473 210.859C338.128 208.134 334.666 204.378 332.089 199.591C329.585 194.731 328.333 189.244 328.333 183.131C328.333 177.018 329.585 171.605 332.089 166.892C334.666 162.178 338.128 158.533 342.473 155.955C346.892 153.304 351.752 151.978 357.055 151.978ZM359.706 162.915C356.466 162.915 353.446 163.725 350.648 165.345C347.849 166.892 345.566 169.212 343.799 172.305C342.105 175.324 341.258 178.933 341.258 183.131C341.258 187.329 342.105 191.011 343.799 194.178C345.566 197.345 347.849 199.775 350.648 201.469C353.52 203.09 356.54 203.9 359.706 203.9C362.947 203.9 365.966 203.09 368.765 201.469C371.564 199.849 373.81 197.492 375.504 194.399C377.271 191.232 378.155 187.55 378.155 183.352C378.155 179.154 377.271 175.509 375.504 172.415C373.81 169.322 371.564 166.966 368.765 165.345C365.966 163.725 362.947 162.915 359.706 162.915ZM430.931 202.574L448.164 152.973H461.752L438.553 213.842H423.308L400.22 152.973H413.697L430.931 202.574ZM494.581 202.574L511.815 152.973H525.403L502.204 213.842H486.959L463.87 152.973H477.348L494.581 202.574ZM541.55 152.973L558.673 199.37L576.459 152.973H589.495L552.156 242.454H539.12L551.493 212.848L527.52 152.973H541.55ZM620.32 151.978C627.095 151.978 632.545 153.746 636.669 157.281C640.867 160.742 643.113 165.493 643.408 171.532H630.483C630.262 168.512 629.194 166.155 627.279 164.461C625.438 162.768 622.824 161.921 619.436 161.921C616.048 161.921 613.397 162.694 611.482 164.241C609.567 165.713 608.61 167.628 608.61 169.985C608.61 171.9 609.236 173.446 610.488 174.625C611.74 175.803 613.323 176.724 615.238 177.387C617.226 177.976 619.878 178.639 623.192 179.375C627.684 180.406 631.293 181.437 634.018 182.468C636.817 183.499 639.21 185.193 641.199 187.55C643.187 189.833 644.181 192.963 644.181 196.94C644.181 200.401 643.15 203.495 641.088 206.22C639.1 208.944 636.301 211.08 632.692 212.627C629.084 214.1 624.996 214.836 620.43 214.836C613.36 214.836 607.652 213.142 603.307 209.755C598.962 206.367 596.568 201.543 596.126 195.283H609.162C609.383 198.302 610.488 200.659 612.476 202.353C614.465 204.047 617.116 204.894 620.43 204.894C623.965 204.894 626.727 204.157 628.715 202.684C630.778 201.138 631.809 199.149 631.809 196.719C631.809 194.731 631.146 193.147 629.82 191.969C628.568 190.79 626.948 189.907 624.959 189.317C622.971 188.655 620.283 187.955 616.895 187.219C612.476 186.187 608.904 185.193 606.179 184.236C603.454 183.205 601.098 181.585 599.109 179.375C597.194 177.166 596.237 174.183 596.237 170.427C596.237 167.039 597.194 163.946 599.109 161.147C601.024 158.349 603.786 156.139 607.395 154.519C611.077 152.825 615.385 151.978 620.32 151.978Z" fill="#05090F"/>
</g>
<defs>
<linearGradient id="paint0_linear_13_54" x1="246.102" y1="79" x2="677.102" y2="79" gradientUnits="userSpaceOnUse">
<stop stop-color="#7043E3"/>
<stop offset="1" stop-color="#AB8BFF"/>
</linearGradient>
<clipPath id="clip0_13_54">
<rect width="675" height="262" fill="white"/>
</clipPath>
</defs>
</svg>
