<svg width="512" height="513" viewBox="0 0 512 513" fill="none" xmlns="http://www.w3.org/2000/svg">
<rect x="271.576" y="251.745" width="30.5221" height="30.5221" rx="6.35878" fill="#745AFC"/>
<rect x="239.918" y="131.837" width="31.6573" height="125.182" rx="6.35878" fill="white"/>
<rect x="255.405" y="131.837" width="46.6929" height="30.5221" rx="6.35878" fill="white"/>
<rect x="201.365" y="131.837" width="30.5221" height="30.5221" rx="6.35878" fill="#745AFC"/>
<path d="M216.626 136.798L226.8 157.399L216.626 151.661L206.452 157.399L216.626 136.798Z" fill="white"/>
<path d="M76.8373 318.53V325.772H66.1406V357.639H56.6138V325.772H45.9728V318.53H76.8373ZM111.624 342.207C111.624 343.284 111.549 344.287 111.401 345.216H90.0075C90.1932 346.59 90.806 347.723 91.846 348.614C92.8859 349.468 94.1859 349.896 95.7458 349.896C96.9343 349.896 97.8257 349.728 98.42 349.394C99.0142 349.023 99.6456 348.428 100.314 347.611H110.621C109.73 350.731 107.947 353.257 105.273 355.188C102.598 357.082 99.4228 358.029 95.7458 358.029C92.7745 358.029 90.1003 357.379 87.7233 356.08C85.3834 354.78 83.5449 352.923 82.2078 350.508C80.9079 348.057 80.2579 345.234 80.2579 342.04C80.2579 338.846 80.9079 336.06 82.2078 333.683C83.5449 331.269 85.3834 329.431 87.7233 328.168C90.0632 326.868 92.7188 326.218 95.6901 326.218C98.6985 326.218 101.41 326.849 103.824 328.112C106.238 329.338 108.132 331.158 109.507 333.572C110.918 335.986 111.624 338.865 111.624 342.207ZM101.707 339.255C101.558 337.806 100.927 336.636 99.8128 335.745C98.6985 334.816 97.3243 334.352 95.6901 334.352C94.2787 334.352 93.0531 334.816 92.0131 335.745C90.9732 336.636 90.3232 337.806 90.0632 339.255H101.707ZM130.947 326.218C134.735 326.218 137.948 327.165 140.585 329.059C143.222 330.916 144.967 333.59 145.822 337.082H135.515C134.624 335.225 133.101 334.296 130.947 334.296C129.052 334.296 127.604 335.02 126.601 336.469C125.635 337.88 125.153 339.756 125.153 342.096C125.153 344.436 125.635 346.33 126.601 347.778C127.604 349.19 129.052 349.896 130.947 349.896C132.135 349.896 133.064 349.691 133.732 349.283C134.401 348.874 134.995 348.15 135.515 347.11H145.822C144.967 350.453 143.203 353.108 140.529 355.077C137.855 357.045 134.661 358.029 130.947 358.029C127.975 358.029 125.301 357.379 122.924 356.08C120.584 354.78 118.746 352.923 117.409 350.508C116.109 348.094 115.459 345.29 115.459 342.096C115.459 338.902 116.109 336.116 117.409 333.739C118.746 331.325 120.584 329.468 122.924 328.168C125.301 326.868 127.975 326.218 130.947 326.218ZM170.09 326.218C172.43 326.218 174.492 326.756 176.274 327.834C178.094 328.874 179.506 330.396 180.509 332.402C181.548 334.408 182.068 336.766 182.068 339.477V357.639H172.597V340.759C172.597 338.753 172.059 337.212 170.982 336.135C169.942 335.02 168.493 334.463 166.636 334.463C164.779 334.463 163.312 335.02 162.235 336.135C161.195 337.212 160.675 338.753 160.675 340.759V357.639H151.148V316.413H160.675V331.121C161.604 329.598 162.866 328.409 164.463 327.555C166.098 326.664 167.973 326.218 170.09 326.218ZM209.1 326.218C211.44 326.218 213.501 326.756 215.284 327.834C217.104 328.874 218.515 330.396 219.518 332.402C220.558 334.408 221.078 336.766 221.078 339.477V357.639H211.607V340.759C211.607 338.753 211.068 337.212 209.991 336.135C208.951 335.02 207.503 334.463 205.646 334.463C203.788 334.463 202.321 335.02 201.244 336.135C200.204 337.212 199.684 338.753 199.684 340.759V357.639H190.158V326.552H199.684V331.121C200.613 329.598 201.876 328.409 203.473 327.555C205.107 326.664 206.983 326.218 209.1 326.218ZM243.206 326.218C246.178 326.218 248.889 326.868 251.34 328.168C253.829 329.431 255.797 331.269 257.246 333.683C258.694 336.06 259.418 338.846 259.418 342.04C259.418 345.234 258.694 348.038 257.246 350.453C255.834 352.867 253.903 354.742 251.452 356.08C249 357.379 246.27 358.029 243.262 358.029C240.254 358.029 237.505 357.379 235.017 356.08C232.528 354.742 230.56 352.867 229.111 350.453C227.663 348.038 226.938 345.234 226.938 342.04C226.938 338.846 227.663 336.06 229.111 333.683C230.56 331.269 232.51 329.431 234.961 328.168C237.449 326.868 240.198 326.218 243.206 326.218ZM243.206 334.352C241.386 334.352 239.826 335.02 238.526 336.357C237.264 337.657 236.632 339.57 236.632 342.096C236.632 344.621 237.282 346.553 238.582 347.89C239.919 349.227 241.479 349.896 243.262 349.896C245.045 349.896 246.568 349.227 247.83 347.89C249.093 346.553 249.725 344.621 249.725 342.096C249.725 339.57 249.075 337.657 247.775 336.357C246.475 335.02 244.952 334.352 243.206 334.352ZM276.874 326.218C280.588 326.218 283.671 327.128 286.122 328.948C288.574 330.768 289.874 333.256 290.022 336.413H280.273C280.161 335.336 279.79 334.612 279.158 334.24C278.527 333.832 277.58 333.628 276.317 333.628C275.129 333.628 274.2 333.832 273.531 334.24C272.9 334.612 272.584 335.169 272.584 335.912C272.584 336.766 273.049 337.397 273.977 337.806C274.943 338.177 276.503 338.605 278.657 339.087C280.997 339.57 282.928 340.09 284.451 340.647C286.011 341.167 287.348 342.04 288.462 343.266C289.576 344.454 290.134 346.089 290.134 348.168C290.134 350.1 289.558 351.808 288.407 353.294C287.292 354.78 285.732 355.95 283.727 356.804C281.758 357.621 279.548 358.029 277.097 358.029C273.234 358.029 270.04 357.175 267.515 355.467C264.989 353.721 263.615 351.158 263.392 347.778H273.141C273.29 348.781 273.699 349.506 274.367 349.951C275.036 350.397 275.964 350.62 277.153 350.62C278.267 350.62 279.177 350.36 279.883 349.84C280.625 349.32 280.997 348.688 280.997 347.946C280.997 347.054 280.495 346.404 279.493 345.996C278.49 345.55 276.911 345.104 274.757 344.659C272.417 344.176 270.486 343.674 268.963 343.154C267.477 342.634 266.177 341.799 265.063 340.647C263.986 339.459 263.448 337.88 263.448 335.912C263.448 334.129 263.949 332.513 264.952 331.065C265.992 329.579 267.515 328.409 269.52 327.555C271.563 326.664 274.014 326.218 276.874 326.218ZM308.334 326.218C312.308 326.218 315.354 327.685 317.471 330.619V326.552H326.998V357.639H317.471V353.127C315.168 356.395 312.122 358.029 308.334 358.029C305.771 358.029 303.394 357.361 301.203 356.024C299.049 354.687 297.34 352.811 296.077 350.397C294.815 347.983 294.183 345.234 294.183 342.152C294.183 339.069 294.815 336.32 296.077 333.906C297.34 331.492 299.049 329.616 301.203 328.279C303.394 326.905 305.771 326.218 308.334 326.218ZM310.674 334.463C309.56 334.463 308.464 334.76 307.387 335.355C306.347 335.912 305.493 336.766 304.824 337.917C304.193 339.069 303.877 340.48 303.877 342.152C303.877 343.823 304.193 345.234 304.824 346.386C305.493 347.5 306.347 348.354 307.387 348.948C308.427 349.506 309.523 349.784 310.674 349.784C311.788 349.784 312.865 349.506 313.905 348.948C314.982 348.354 315.837 347.481 316.468 346.33C317.136 345.179 317.471 343.767 317.471 342.096C317.471 340.424 317.136 339.032 316.468 337.917C315.837 336.766 315.001 335.912 313.961 335.355C312.921 334.76 311.825 334.463 310.674 334.463ZM348.627 349.673L355.703 326.552H365.842L354.811 357.639H342.443L331.412 326.552H341.552L348.627 349.673ZM383.502 349.673L390.577 326.552H400.717L389.686 357.639H377.318L366.287 326.552H376.426L383.502 349.673ZM411.969 326.552L418.877 346.887L426.454 326.552H436.427L416.593 372.459H406.621L413.251 357.027L401.161 326.552H411.969ZM452.117 326.218C455.831 326.218 458.913 327.128 461.365 328.948C463.816 330.768 465.116 333.256 465.265 336.413H455.515C455.404 335.336 455.032 334.612 454.401 334.24C453.769 333.832 452.822 333.628 451.559 333.628C450.371 333.628 449.442 333.832 448.774 334.24C448.142 334.612 447.827 335.169 447.827 335.912C447.827 336.766 448.291 337.397 449.22 337.806C450.185 338.177 451.745 338.605 453.899 339.087C456.239 339.57 458.171 340.09 459.693 340.647C461.253 341.167 462.59 342.04 463.705 343.266C464.819 344.454 465.376 346.089 465.376 348.168C465.376 350.1 464.8 351.808 463.649 353.294C462.535 354.78 460.975 355.95 458.969 356.804C457.001 357.621 454.791 358.029 452.339 358.029C448.477 358.029 445.283 357.175 442.757 355.467C440.231 353.721 438.857 351.158 438.634 347.778H448.384C448.532 348.781 448.941 349.506 449.61 349.951C450.278 350.397 451.207 350.62 452.395 350.62C453.509 350.62 454.419 350.36 455.125 349.84C455.868 349.32 456.239 348.688 456.239 347.946C456.239 347.054 455.738 346.404 454.735 345.996C453.732 345.55 452.154 345.104 450 344.659C447.66 344.176 445.728 343.674 444.205 343.154C442.72 342.634 441.42 341.799 440.306 340.647C439.229 339.459 438.69 337.88 438.69 335.912C438.69 334.129 439.191 332.513 440.194 331.065C441.234 329.579 442.757 328.409 444.763 327.555C446.805 326.664 449.257 326.218 452.117 326.218Z" fill="white"/>
</svg>
