<svg width="402" height="402" viewBox="0 0 402 402" fill="none" xmlns="http://www.w3.org/2000/svg">
<circle cx="201" cy="201" r="197" fill="white" stroke="url(#paint0_linear_58_102)" stroke-width="8"/>
<path d="M203.611 227.773C203.611 229.383 203.17 230.901 202.289 232.329C201.439 233.757 200.178 234.911 198.508 235.792C196.837 236.672 194.878 237.113 192.631 237.113C189.381 237.113 186.723 236.338 184.658 234.789C182.593 233.24 181.56 231.099 181.56 228.365H187.118C187.24 229.763 187.756 230.871 188.667 231.691C189.578 232.511 190.9 232.921 192.631 232.921C194.423 232.921 195.82 232.466 196.822 231.555C197.855 230.643 198.371 229.474 198.371 228.046C198.371 226.923 198.052 226.042 197.415 225.404C196.807 224.736 196.033 224.235 195.091 223.901C194.149 223.536 192.859 223.156 191.218 222.762C189.153 222.276 187.483 221.774 186.207 221.258C184.931 220.711 183.838 219.861 182.927 218.707C182.016 217.522 181.56 215.928 181.56 213.923C181.56 212.101 182.016 210.491 182.927 209.094C183.838 207.697 185.114 206.618 186.754 205.859C188.394 205.1 190.277 204.72 192.403 204.72C195.501 204.72 197.992 205.449 199.875 206.907C201.788 208.365 202.851 210.476 203.064 213.24H197.323C197.202 212.025 196.686 211.007 195.774 210.187C194.863 209.367 193.648 208.957 192.13 208.957C190.55 208.957 189.275 209.352 188.303 210.142C187.331 210.931 186.845 212.101 186.845 213.65C186.845 214.774 187.149 215.685 187.756 216.383C188.394 217.051 189.183 217.568 190.125 217.932C191.067 218.266 192.373 218.631 194.043 219.026C196.078 219.512 197.733 220.028 199.009 220.575C200.285 221.091 201.363 221.926 202.244 223.08C203.155 224.204 203.611 225.768 203.611 227.773ZM219.853 211.281C221.827 211.281 223.559 211.736 225.047 212.647C226.566 213.528 227.735 214.698 228.555 216.155V211.691H233.794V236.794H228.555V232.101C227.705 233.65 226.535 234.896 225.047 235.837C223.559 236.748 221.827 237.204 219.853 237.204C217.666 237.204 215.662 236.657 213.839 235.564C212.047 234.44 210.62 232.891 209.557 230.917C208.524 228.912 208.008 226.649 208.008 224.128C208.008 221.607 208.524 219.375 209.557 217.431C210.62 215.487 212.047 213.984 213.839 212.921C215.662 211.827 217.666 211.281 219.853 211.281ZM220.947 215.791C219.61 215.791 218.365 216.125 217.211 216.793C216.057 217.431 215.115 218.388 214.386 219.664C213.687 220.909 213.338 222.397 213.338 224.128C213.338 225.86 213.687 227.378 214.386 228.684C215.115 229.99 216.057 230.993 217.211 231.691C218.395 232.359 219.641 232.693 220.947 232.693C222.283 232.693 223.528 232.359 224.682 231.691C225.837 231.023 226.763 230.051 227.462 228.775C228.191 227.469 228.555 225.951 228.555 224.219C228.555 222.488 228.191 220.985 227.462 219.709C226.763 218.433 225.837 217.462 224.682 216.793C223.528 216.125 222.283 215.791 220.947 215.791ZM250.32 232.147L257.427 211.691H263.031L253.464 236.794H247.177L237.655 211.691H243.213L250.32 232.147ZM276.57 232.147L283.677 211.691H289.281L279.714 236.794H273.427L263.905 211.691H269.463L276.57 232.147ZM295.941 211.691L303.002 230.826L310.337 211.691H315.713L300.314 248.594H294.938L300.041 236.384L290.155 211.691H295.941ZM328.426 211.281C331.22 211.281 333.468 212.01 335.169 213.467C336.9 214.895 337.826 216.854 337.948 219.345H332.617C332.526 218.099 332.086 217.127 331.296 216.429C330.537 215.73 329.459 215.381 328.061 215.381C326.664 215.381 325.571 215.7 324.781 216.338C323.991 216.945 323.597 217.735 323.597 218.707C323.597 219.496 323.855 220.134 324.371 220.62C324.887 221.106 325.54 221.486 326.33 221.759C327.15 222.002 328.244 222.276 329.61 222.579C331.463 223.005 332.951 223.43 334.075 223.855C335.229 224.28 336.216 224.979 337.037 225.951C337.857 226.892 338.267 228.183 338.267 229.823C338.267 231.251 337.841 232.526 336.991 233.65C336.171 234.774 335.017 235.655 333.528 236.293C332.04 236.9 330.355 237.204 328.471 237.204C325.556 237.204 323.202 236.505 321.41 235.108C319.618 233.711 318.631 231.722 318.448 229.14H323.824C323.915 230.385 324.371 231.357 325.191 232.056C326.011 232.754 327.105 233.104 328.471 233.104C329.929 233.104 331.068 232.8 331.888 232.192C332.739 231.555 333.164 230.734 333.164 229.732C333.164 228.912 332.891 228.259 332.344 227.773C331.828 227.287 331.159 226.923 330.339 226.68C329.519 226.406 328.411 226.118 327.014 225.814C325.191 225.389 323.718 224.979 322.594 224.584C321.47 224.159 320.499 223.491 319.678 222.579C318.889 221.668 318.494 220.438 318.494 218.889C318.494 217.492 318.889 216.216 319.678 215.062C320.468 213.908 321.607 212.997 323.095 212.329C324.614 211.63 326.391 211.281 328.426 211.281Z" fill="#212529"/>
<path d="M200.015 165.285V171.208H191.268V197.268H183.477V171.208H174.775V165.285H200.015ZM228.462 184.648C228.462 185.529 228.402 186.349 228.28 187.108H210.785C210.937 188.232 211.438 189.159 212.289 189.887C213.139 190.586 214.202 190.935 215.478 190.935C216.45 190.935 217.179 190.799 217.665 190.525C218.151 190.222 218.667 189.736 219.214 189.067H227.642C226.913 191.619 225.455 193.684 223.269 195.263C221.082 196.813 218.485 197.587 215.478 197.587C213.048 197.587 210.861 197.055 208.917 195.992C207.004 194.929 205.5 193.411 204.407 191.437C203.344 189.432 202.812 187.124 202.812 184.512C202.812 181.899 203.344 179.621 204.407 177.678C205.5 175.703 207.004 174.2 208.917 173.167C210.831 172.104 213.003 171.573 215.432 171.573C217.893 171.573 220.11 172.089 222.084 173.122C224.058 174.124 225.607 175.612 226.731 177.586C227.885 179.561 228.462 181.915 228.462 184.648ZM220.353 182.234C220.231 181.049 219.715 180.092 218.804 179.363C217.893 178.604 216.769 178.224 215.432 178.224C214.278 178.224 213.276 178.604 212.425 179.363C211.575 180.092 211.044 181.049 210.831 182.234H220.353ZM244.264 171.573C247.362 171.573 249.989 172.347 252.146 173.896C254.302 175.415 255.73 177.602 256.428 180.457H248C247.271 178.938 246.026 178.179 244.264 178.179C242.715 178.179 241.53 178.771 240.71 179.956C239.921 181.11 239.526 182.644 239.526 184.557C239.526 186.471 239.921 188.02 240.71 189.204C241.53 190.358 242.715 190.935 244.264 190.935C245.236 190.935 245.995 190.768 246.542 190.434C247.089 190.1 247.575 189.508 248 188.657H256.428C255.73 191.391 254.287 193.563 252.1 195.172C249.913 196.782 247.301 197.587 244.264 197.587C241.834 197.587 239.647 197.055 237.703 195.992C235.79 194.929 234.286 193.411 233.193 191.437C232.13 189.462 231.598 187.169 231.598 184.557C231.598 181.945 232.13 179.667 233.193 177.723C234.286 175.749 235.79 174.23 237.703 173.167C239.647 172.104 241.834 171.573 244.264 171.573ZM276.274 171.573C278.188 171.573 279.873 172.013 281.331 172.894C282.82 173.744 283.974 174.99 284.794 176.63C285.644 178.27 286.07 180.199 286.07 182.416V197.268H278.324V183.464C278.324 181.824 277.884 180.563 277.003 179.682C276.153 178.771 274.968 178.315 273.45 178.315C271.931 178.315 270.731 178.771 269.85 179.682C269 180.563 268.575 181.824 268.575 183.464V197.268H260.784V163.554H268.575V175.582C269.334 174.337 270.367 173.365 271.673 172.666C273.009 171.937 274.543 171.573 276.274 171.573ZM308.175 171.573C310.088 171.573 311.774 172.013 313.232 172.894C314.72 173.744 315.874 174.99 316.694 176.63C317.545 178.27 317.97 180.199 317.97 182.416V197.268H310.225V183.464C310.225 181.824 309.784 180.563 308.904 179.682C308.053 178.771 306.869 178.315 305.35 178.315C303.831 178.315 302.632 178.771 301.751 179.682C300.9 180.563 300.475 181.824 300.475 183.464V197.268H292.685V171.846H300.475V175.582C301.234 174.337 302.267 173.365 303.573 172.666C304.91 171.937 306.443 171.573 308.175 171.573ZM336.066 171.573C338.496 171.573 340.713 172.104 342.717 173.167C344.752 174.2 346.362 175.703 347.547 177.678C348.731 179.621 349.324 181.899 349.324 184.512C349.324 187.124 348.731 189.417 347.547 191.391C346.393 193.365 344.813 194.899 342.809 195.992C340.804 197.055 338.572 197.587 336.111 197.587C333.651 197.587 331.404 197.055 329.369 195.992C327.334 194.899 325.724 193.365 324.539 191.391C323.355 189.417 322.763 187.124 322.763 184.512C322.763 181.899 323.355 179.621 324.539 177.678C325.724 175.703 327.318 174.2 329.323 173.167C331.358 172.104 333.606 171.573 336.066 171.573ZM336.066 178.224C334.578 178.224 333.302 178.771 332.239 179.864C331.206 180.928 330.69 182.492 330.69 184.557C330.69 186.622 331.221 188.202 332.284 189.295C333.378 190.389 334.653 190.935 336.111 190.935C337.569 190.935 338.815 190.389 339.847 189.295C340.88 188.202 341.396 186.622 341.396 184.557C341.396 182.492 340.865 180.928 339.802 179.864C338.739 178.771 337.493 178.224 336.066 178.224Z" fill="#6E44FF"/>
<path d="M100.377 273.82V200.026C100.377 180.37 116.312 164.436 135.967 164.436H145.852V238.23C145.852 257.886 129.917 273.82 110.262 273.82H100.377Z" fill="url(#paint1_linear_58_102)"/>
<path d="M57.0376 250.958C52.9593 248.561 50.4548 244.184 50.4548 239.453L50.4547 161.5C50.4547 156.672 53.0619 152.22 57.2727 149.859L95.9287 128.18V273.82L57.0376 250.958Z" fill="url(#paint2_linear_58_102)"/>
<defs>
<linearGradient id="paint0_linear_58_102" x1="0" y1="0" x2="402" y2="402" gradientUnits="userSpaceOnUse">
<stop stop-color="#6E44FF"/>
<stop offset="1" stop-color="#FFD166"/>
</linearGradient>
<linearGradient id="paint1_linear_58_102" x1="50.4547" y1="141.408" x2="145.852" y2="273.82" gradientUnits="userSpaceOnUse">
<stop stop-color="#FFD166"/>
<stop offset="1" stop-color="#6E44FF"/>
</linearGradient>
<linearGradient id="paint2_linear_58_102" x1="50.4547" y1="141.408" x2="145.852" y2="273.82" gradientUnits="userSpaceOnUse">
<stop stop-color="#FFD166"/>
<stop offset="1" stop-color="#6E44FF"/>
</linearGradient>
</defs>
</svg>
