<svg width="675" height="262" viewBox="0 0 675 262" fill="none" xmlns="http://www.w3.org/2000/svg">
<g clip-path="url(#clip0_15_145)">
<path d="M68.9844 76.5808H104.813V220.418L68.9844 185.424V76.5808Z" fill="#7043E3"/>
<path d="M140.797 220.421V185.422L68.9896 185.421L104.812 220.42L140.797 220.421Z" fill="#7043E3"/>
<rect x="104.814" y="41.579" width="35.0018" height="35.0018" fill="#7043E3"/>
<rect x="-0.400391" y="41.579" width="69.3858" height="35.0018" fill="#7043E3"/>
<rect x="140.996" y="80.5601" width="534.203" height="92.9211" fill="#7043E3"/>
<path d="M437.689 154.677C433.316 154.677 429.49 153.993 426.211 152.627C422.932 151.206 420.39 149.211 418.587 146.642C416.838 144.019 415.963 140.985 415.963 137.542V135.738C415.963 135.465 416.045 135.246 416.209 135.082C416.428 134.864 416.674 134.755 416.947 134.755H426.293C426.566 134.755 426.785 134.864 426.949 135.082C427.168 135.246 427.277 135.465 427.277 135.738V136.968C427.277 139.154 428.288 141.013 430.31 142.543C432.333 144.019 435.065 144.757 438.509 144.757C441.405 144.757 443.564 144.155 444.985 142.953C446.406 141.696 447.117 140.165 447.117 138.362C447.117 137.05 446.68 135.957 445.805 135.082C444.931 134.153 443.728 133.361 442.198 132.705C440.722 131.994 438.345 131.038 435.065 129.836C431.403 128.578 428.288 127.294 425.719 125.982C423.205 124.671 421.073 122.894 419.324 120.653C417.63 118.358 416.783 115.543 416.783 112.209C416.783 108.93 417.63 106.06 419.324 103.601C421.019 101.141 423.369 99.2557 426.375 97.9439C429.381 96.6322 432.852 95.9763 436.787 95.9763C440.941 95.9763 444.63 96.7142 447.855 98.1899C451.134 99.6656 453.676 101.743 455.479 104.421C457.338 107.044 458.267 110.105 458.267 113.603V114.833C458.267 115.106 458.157 115.352 457.939 115.57C457.775 115.734 457.556 115.816 457.283 115.816H447.855C447.581 115.816 447.336 115.734 447.117 115.57C446.953 115.352 446.871 115.106 446.871 114.833V114.177C446.871 111.881 445.914 109.941 444.002 108.356C442.143 106.716 439.574 105.896 436.295 105.896C433.726 105.896 431.704 106.443 430.228 107.536C428.807 108.629 428.097 110.132 428.097 112.045C428.097 113.411 428.507 114.559 429.326 115.488C430.201 116.418 431.458 117.265 433.098 118.03C434.792 118.74 437.388 119.724 440.886 120.981C444.767 122.402 447.8 123.659 449.986 124.753C452.227 125.846 454.222 127.485 455.971 129.672C457.775 131.803 458.677 134.591 458.677 138.034C458.677 143.172 456.791 147.243 453.02 150.249C449.248 153.201 444.138 154.677 437.689 154.677ZM482.359 111.225C485.912 111.225 489.082 111.854 491.869 113.111C494.656 114.313 496.815 115.98 498.346 118.112C499.931 120.243 500.723 122.621 500.723 125.244V153.037C500.723 153.31 500.614 153.556 500.395 153.775C500.231 153.939 500.013 154.021 499.739 154.021H490.147C489.874 154.021 489.628 153.939 489.41 153.775C489.246 153.556 489.164 153.31 489.164 153.037V150.331C489.164 150.167 489.109 150.058 489 150.003C488.89 149.949 488.781 150.003 488.672 150.167C486.376 153.174 482.687 154.677 477.604 154.677C473.341 154.677 469.897 153.638 467.274 151.561C464.65 149.484 463.339 146.424 463.339 142.379C463.339 138.171 464.814 134.919 467.766 132.623C470.717 130.273 474.926 129.098 480.391 129.098H488.754C489.027 129.098 489.164 128.961 489.164 128.688V126.884C489.164 125.08 488.617 123.687 487.524 122.703C486.431 121.665 484.791 121.145 482.605 121.145C480.911 121.145 479.49 121.446 478.342 122.047C477.249 122.648 476.538 123.495 476.21 124.589C476.046 125.19 475.691 125.463 475.144 125.408L465.224 124.097C464.568 123.987 464.268 123.741 464.323 123.359C464.541 121.063 465.443 118.986 467.028 117.128C468.668 115.27 470.799 113.821 473.423 112.783C476.101 111.744 479.08 111.225 482.359 111.225ZM480.719 146.068C483.069 146.068 485.064 145.44 486.704 144.183C488.344 142.926 489.164 141.313 489.164 139.346V136.394C489.164 136.121 489.027 135.984 488.754 135.984H482.851C480.391 135.984 478.451 136.449 477.03 137.378C475.664 138.307 474.98 139.619 474.98 141.313C474.98 142.789 475.5 143.964 476.538 144.839C477.577 145.658 478.97 146.068 480.719 146.068ZM519.469 154.021C518.922 154.021 518.567 153.747 518.403 153.201L505.286 112.947C505.231 112.838 505.204 112.701 505.204 112.537C505.204 112.045 505.504 111.799 506.105 111.799H516.681C517.282 111.799 517.665 112.072 517.829 112.619L524.552 137.46C524.606 137.624 524.688 137.706 524.798 137.706C524.907 137.706 524.989 137.624 525.044 137.46L531.766 112.619C531.93 112.072 532.313 111.799 532.914 111.799L543.49 111.963C543.818 111.963 544.064 112.072 544.228 112.291C544.392 112.455 544.419 112.728 544.31 113.111L531.274 153.201C531.11 153.747 530.755 154.021 530.209 154.021H519.469ZM562.062 154.021C561.515 154.021 561.16 153.747 560.996 153.201L547.879 112.947C547.824 112.838 547.797 112.701 547.797 112.537C547.797 112.045 548.097 111.799 548.698 111.799H559.274C559.875 111.799 560.258 112.072 560.422 112.619L567.145 137.46C567.199 137.624 567.281 137.706 567.391 137.706C567.5 137.706 567.582 137.624 567.637 137.46L574.359 112.619C574.523 112.072 574.906 111.799 575.507 111.799L586.083 111.963C586.411 111.963 586.657 112.072 586.821 112.291C586.985 112.455 587.012 112.728 586.903 113.111L573.867 153.201C573.703 153.747 573.348 154.021 572.802 154.021H562.062ZM592.685 170.335C592.521 170.335 592.384 170.226 592.275 170.007C592.166 169.844 592.111 169.625 592.111 169.352V161.809C592.111 161.536 592.193 161.29 592.357 161.071C592.576 160.907 592.822 160.825 593.095 160.825C595.391 160.771 597.194 160.579 598.506 160.251C599.872 159.924 600.938 159.295 601.703 158.366C602.523 157.437 603.152 156.07 603.589 154.267C603.644 154.157 603.644 153.993 603.589 153.775L590.144 112.947C590.089 112.838 590.062 112.701 590.062 112.537C590.062 112.045 590.362 111.799 590.963 111.799H601.211C601.813 111.799 602.195 112.072 602.359 112.619L609.246 139.182C609.3 139.346 609.382 139.428 609.492 139.428C609.601 139.428 609.683 139.346 609.738 139.182L616.624 112.619C616.788 112.072 617.171 111.799 617.772 111.799H627.774C628.102 111.799 628.321 111.908 628.43 112.127C628.594 112.291 628.621 112.564 628.512 112.947L614.329 155.578C612.962 159.568 611.569 162.547 610.148 164.515C608.727 166.537 606.732 168.013 604.163 168.942C601.594 169.871 597.959 170.335 593.259 170.335H592.685ZM648.087 154.595C644.425 154.595 641.228 154.075 638.495 153.037C635.763 151.998 633.631 150.55 632.101 148.692C630.625 146.833 629.887 144.729 629.887 142.379V141.559C629.887 141.286 629.969 141.067 630.133 140.903C630.352 140.685 630.598 140.575 630.871 140.575H639.971C640.244 140.575 640.463 140.685 640.627 140.903C640.846 141.067 640.955 141.286 640.955 141.559V141.641C640.955 142.844 641.611 143.882 642.922 144.757C644.289 145.576 645.983 145.986 648.005 145.986C649.864 145.986 651.367 145.631 652.515 144.921C653.662 144.155 654.236 143.226 654.236 142.133C654.236 141.149 653.744 140.411 652.76 139.92C651.777 139.428 650.164 138.908 647.923 138.362C645.355 137.706 643.332 137.077 641.857 136.476C638.359 135.274 635.571 133.798 633.494 132.049C631.417 130.3 630.379 127.786 630.379 124.507C630.379 120.462 631.937 117.265 635.052 114.915C638.222 112.51 642.403 111.307 647.596 111.307C651.093 111.307 654.154 111.881 656.778 113.029C659.401 114.122 661.423 115.68 662.844 117.702C664.32 119.724 665.058 122.02 665.058 124.589C665.058 124.862 664.949 125.108 664.73 125.326C664.566 125.49 664.348 125.572 664.074 125.572H655.302C655.029 125.572 654.783 125.49 654.564 125.326C654.4 125.108 654.318 124.862 654.318 124.589C654.318 123.386 653.69 122.375 652.433 121.555C651.23 120.735 649.618 120.325 647.596 120.325C645.792 120.325 644.316 120.653 643.168 121.309C642.021 121.965 641.447 122.867 641.447 124.015C641.447 125.108 641.993 125.928 643.086 126.474C644.234 127.021 646.12 127.595 648.743 128.196C649.345 128.36 650.028 128.551 650.793 128.77C651.558 128.934 652.378 129.152 653.252 129.426C657.133 130.573 660.194 132.049 662.435 133.853C664.675 135.656 665.796 138.28 665.796 141.723C665.796 145.768 664.184 148.938 660.959 151.233C657.789 153.474 653.498 154.595 648.087 154.595Z" fill="white"/>
<path d="M191.783 96.6322C192.056 96.6322 192.275 96.7415 192.439 96.9601C192.657 97.1241 192.766 97.3427 192.766 97.616V105.65C192.766 105.924 192.657 106.17 192.439 106.388C192.275 106.552 192.056 106.634 191.783 106.634H177.108C176.834 106.634 176.698 106.771 176.698 107.044V153.037C176.698 153.31 176.588 153.556 176.37 153.775C176.206 153.939 175.987 154.021 175.714 154.021H166.122C165.849 154.021 165.603 153.939 165.384 153.775C165.22 153.556 165.138 153.31 165.138 153.037V107.044C165.138 106.771 165.001 106.634 164.728 106.634H150.463C150.19 106.634 149.944 106.552 149.725 106.388C149.561 106.17 149.479 105.924 149.479 105.65V97.616C149.479 97.3427 149.561 97.1241 149.725 96.9601C149.944 96.7415 150.19 96.6322 150.463 96.6322H191.783ZM229.821 128.606C230.149 130.683 230.258 133.006 230.149 135.574C230.094 136.23 229.739 136.558 229.083 136.558H203.75C203.422 136.558 203.313 136.695 203.422 136.968C203.586 138.061 203.887 139.154 204.324 140.247C205.745 143.308 208.642 144.839 213.014 144.839C216.512 144.784 219.273 143.363 221.295 140.575C221.513 140.247 221.759 140.083 222.033 140.083C222.197 140.083 222.388 140.193 222.607 140.411L228.509 146.232C228.783 146.506 228.919 146.751 228.919 146.97C228.919 147.079 228.81 147.298 228.591 147.626C226.788 149.867 224.465 151.616 221.623 152.873C218.781 154.075 215.665 154.677 212.277 154.677C207.576 154.677 203.586 153.611 200.307 151.479C197.082 149.348 194.759 146.369 193.338 142.543C192.191 139.81 191.617 136.23 191.617 131.803C191.617 128.797 192.027 126.146 192.847 123.851C194.104 119.97 196.29 116.882 199.405 114.587C202.575 112.291 206.319 111.143 210.637 111.143C216.103 111.143 220.475 112.728 223.754 115.898C227.088 119.068 229.111 123.304 229.821 128.606ZM210.719 121.145C207.276 121.145 205.007 122.758 203.914 125.982C203.696 126.693 203.504 127.567 203.34 128.606C203.34 128.879 203.477 129.016 203.75 129.016H217.933C218.261 129.016 218.371 128.879 218.261 128.606C217.988 127.021 217.852 126.256 217.852 126.31C217.36 124.671 216.485 123.413 215.228 122.539C214.026 121.61 212.523 121.145 210.719 121.145ZM255.802 154.677C251.429 154.677 247.631 153.583 244.406 151.397C241.236 149.211 238.968 146.205 237.601 142.379C236.672 139.646 236.207 136.422 236.207 132.705C236.207 129.043 236.672 125.873 237.601 123.195C238.913 119.478 241.181 116.554 244.406 114.423C247.631 112.291 251.429 111.225 255.802 111.225C260.174 111.225 264 112.318 267.279 114.505C270.613 116.691 272.827 119.451 273.92 122.785C274.357 124.097 274.576 125.08 274.576 125.736V125.9C274.576 126.392 274.303 126.693 273.756 126.802L264.328 128.196H264.164C263.672 128.196 263.344 127.923 263.18 127.376L262.934 126.064C262.552 124.643 261.704 123.468 260.393 122.539C259.081 121.61 257.523 121.145 255.72 121.145C253.971 121.145 252.495 121.583 251.292 122.457C250.09 123.332 249.243 124.534 248.751 126.064C248.15 127.704 247.849 129.945 247.849 132.787C247.849 135.629 248.122 137.87 248.669 139.51C249.161 141.149 250.008 142.434 251.21 143.363C252.468 144.292 253.971 144.757 255.72 144.757C257.414 144.757 258.89 144.319 260.147 143.445C261.458 142.516 262.36 141.259 262.852 139.674C262.907 139.564 262.934 139.4 262.934 139.182C262.989 139.127 263.016 139.045 263.016 138.936C263.071 138.28 263.453 138.007 264.164 138.116L273.592 139.592C274.139 139.701 274.412 140.002 274.412 140.493C274.412 140.931 274.248 141.75 273.92 142.953C272.772 146.615 270.531 149.484 267.197 151.561C263.918 153.638 260.119 154.677 255.802 154.677ZM303.279 111.225C307.651 111.225 311.177 112.564 313.855 115.242C316.533 117.921 317.872 121.555 317.872 126.146V153.037C317.872 153.31 317.763 153.556 317.544 153.775C317.38 153.939 317.162 154.021 316.888 154.021H307.296C307.023 154.021 306.777 153.939 306.558 153.775C306.394 153.556 306.312 153.31 306.312 153.037V128.524C306.312 126.338 305.684 124.561 304.427 123.195C303.224 121.828 301.612 121.145 299.59 121.145C297.568 121.145 295.928 121.828 294.671 123.195C293.468 124.561 292.867 126.338 292.867 128.524V153.037C292.867 153.31 292.758 153.556 292.539 153.775C292.375 153.939 292.157 154.021 291.883 154.021H282.291C282.018 154.021 281.772 153.939 281.553 153.775C281.389 153.556 281.307 153.31 281.307 153.037V97.616C281.307 97.3427 281.389 97.1241 281.553 96.9601C281.772 96.7415 282.018 96.6322 282.291 96.6322H291.883C292.157 96.6322 292.375 96.7415 292.539 96.9601C292.758 97.1241 292.867 97.3427 292.867 97.616V115.734C292.867 115.898 292.922 116.008 293.031 116.062C293.14 116.117 293.222 116.09 293.277 115.98C295.518 112.81 298.852 111.225 303.279 111.225ZM348.114 111.225C352.486 111.225 356.012 112.564 358.69 115.242C361.368 117.921 362.707 121.555 362.707 126.146V153.037C362.707 153.31 362.598 153.556 362.379 153.775C362.215 153.939 361.996 154.021 361.723 154.021H352.131C351.858 154.021 351.612 153.939 351.393 153.775C351.229 153.556 351.147 153.31 351.147 153.037V128.524C351.147 126.338 350.519 124.561 349.262 123.195C348.059 121.828 346.447 121.145 344.425 121.145C342.402 121.145 340.763 121.828 339.506 123.195C338.303 124.561 337.702 126.338 337.702 128.524V153.037C337.702 153.31 337.593 153.556 337.374 153.775C337.21 153.939 336.991 154.021 336.718 154.021H327.126C326.853 154.021 326.607 153.939 326.388 153.775C326.224 153.556 326.142 153.31 326.142 153.037V112.865C326.142 112.592 326.224 112.373 326.388 112.209C326.607 111.99 326.853 111.881 327.126 111.881H336.718C336.991 111.881 337.21 111.99 337.374 112.209C337.593 112.373 337.702 112.592 337.702 112.865V115.734C337.702 115.898 337.757 116.008 337.866 116.062C337.975 116.117 338.057 116.09 338.112 115.98C340.353 112.81 343.687 111.225 348.114 111.225ZM389.347 154.677C384.756 154.677 380.821 153.474 377.541 151.069C374.262 148.664 372.021 145.385 370.819 141.231C370.054 138.662 369.671 135.875 369.671 132.869C369.671 129.644 370.054 126.747 370.819 124.179C372.076 120.134 374.344 116.964 377.623 114.669C380.903 112.373 384.838 111.225 389.429 111.225C393.911 111.225 397.737 112.373 400.907 114.669C404.077 116.909 406.318 120.052 407.629 124.097C408.504 126.829 408.941 129.699 408.941 132.705C408.941 135.656 408.559 138.416 407.793 140.985C406.591 145.248 404.35 148.61 401.071 151.069C397.846 153.474 393.938 154.677 389.347 154.677ZM389.347 144.757C391.151 144.757 392.681 144.21 393.938 143.117C395.195 142.024 396.097 140.521 396.644 138.608C397.081 136.859 397.299 134.946 397.299 132.869C397.299 130.573 397.081 128.633 396.644 127.048C396.042 125.19 395.113 123.741 393.856 122.703C392.599 121.665 391.069 121.145 389.265 121.145C387.407 121.145 385.849 121.665 384.592 122.703C383.39 123.741 382.515 125.19 381.969 127.048C381.531 128.36 381.313 130.3 381.313 132.869C381.313 135.328 381.504 137.241 381.887 138.608C382.433 140.521 383.335 142.024 384.592 143.117C385.904 144.21 387.489 144.757 389.347 144.757Z" fill="white"/>
</g>
<defs>
<clipPath id="clip0_15_145">
<rect width="675" height="262" fill="white"/>
</clipPath>
</defs>
</svg>
