<svg width="402" height="402" viewBox="0 0 402 402" fill="none" xmlns="http://www.w3.org/2000/svg">
<rect width="402" height="402" fill="white"/>
<path d="M204.098 214.596V112.658C204.098 85.5063 226.109 63.4952 253.261 63.4952H266.915V165.433C266.915 192.585 244.904 214.596 217.752 214.596H204.098Z" fill="url(#paint0_linear_58_94)"/>
<path d="M144.229 183.015C138.596 179.704 135.136 173.657 135.136 167.122L135.136 59.439C135.136 52.77 138.737 46.6209 144.554 43.3588L197.953 13.4123V214.596L144.229 183.015Z" fill="url(#paint1_linear_58_94)"/>
<path d="M115.051 264.768V272.946H102.972V308.931H92.2145V272.946H80.1986V264.768H115.051ZM154.332 291.505C154.332 292.721 154.248 293.853 154.08 294.902H129.923C130.133 296.454 130.825 297.733 131.999 298.739C133.173 299.704 134.641 300.186 136.403 300.186C137.745 300.186 138.751 299.997 139.422 299.62C140.093 299.201 140.806 298.53 141.561 297.607H153.2C152.193 301.13 150.18 303.982 147.16 306.163C144.141 308.302 140.555 309.371 136.403 309.371C133.047 309.371 130.028 308.637 127.343 307.169C124.701 305.701 122.625 303.604 121.115 300.878C119.647 298.11 118.914 294.923 118.914 291.316C118.914 287.709 119.647 284.563 121.115 281.879C122.625 279.153 124.701 277.077 127.343 275.651C129.986 274.183 132.984 273.449 136.34 273.449C139.737 273.449 142.798 274.162 145.525 275.588C148.251 276.972 150.39 279.027 151.941 281.753C153.535 284.48 154.332 287.73 154.332 291.505ZM143.134 288.17C142.966 286.535 142.253 285.214 140.995 284.207C139.737 283.158 138.185 282.634 136.34 282.634C134.746 282.634 133.362 283.158 132.188 284.207C131.013 285.214 130.279 286.535 129.986 288.17H143.134ZM176.152 273.449C180.43 273.449 184.057 274.519 187.035 276.658C190.013 278.755 191.984 281.774 192.949 285.717H181.31C180.304 283.62 178.584 282.571 176.152 282.571C174.013 282.571 172.377 283.389 171.245 285.025C170.154 286.619 169.609 288.737 169.609 291.379C169.609 294.021 170.154 296.16 171.245 297.796C172.377 299.389 174.013 300.186 176.152 300.186C177.494 300.186 178.542 299.956 179.297 299.494C180.052 299.033 180.723 298.215 181.31 297.041H192.949C191.984 300.815 189.992 303.814 186.972 306.037C183.952 308.26 180.346 309.371 176.152 309.371C172.796 309.371 169.777 308.637 167.093 307.169C164.45 305.701 162.374 303.604 160.864 300.878C159.396 298.152 158.663 294.986 158.663 291.379C158.663 287.772 159.396 284.626 160.864 281.942C162.374 279.216 164.45 277.119 167.093 275.651C169.777 274.183 172.796 273.449 176.152 273.449ZM220.353 273.449C222.995 273.449 225.323 274.057 227.336 275.274C229.391 276.448 230.985 278.168 232.117 280.432C233.292 282.697 233.879 285.36 233.879 288.422V308.931H223.184V289.869C223.184 287.604 222.576 285.864 221.36 284.647C220.185 283.389 218.55 282.76 216.453 282.76C214.356 282.76 212.699 283.389 211.483 284.647C210.308 285.864 209.721 287.604 209.721 289.869V308.931H198.963V262.377H209.721V278.985C210.77 277.266 212.196 275.924 213.999 274.959C215.844 273.953 217.962 273.449 220.353 273.449ZM264.403 273.449C267.045 273.449 269.372 274.057 271.386 275.274C273.441 276.448 275.034 278.168 276.167 280.432C277.341 282.697 277.928 285.36 277.928 288.422V308.931H267.233V289.869C267.233 287.604 266.625 285.864 265.409 284.647C264.235 283.389 262.599 282.76 260.502 282.76C258.405 282.76 256.748 283.389 255.532 284.647C254.358 285.864 253.771 287.604 253.771 289.869V308.931H243.013V273.827H253.771V278.985C254.819 277.266 256.245 275.924 258.049 274.959C259.894 273.953 262.012 273.449 264.403 273.449ZM302.916 273.449C306.271 273.449 309.333 274.183 312.101 275.651C314.911 277.077 317.134 279.153 318.769 281.879C320.405 284.563 321.223 287.709 321.223 291.316C321.223 294.923 320.405 298.089 318.769 300.815C317.176 303.541 314.995 305.659 312.227 307.169C309.459 308.637 306.376 309.371 302.979 309.371C299.582 309.371 296.478 308.637 293.668 307.169C290.858 305.659 288.635 303.541 287 300.815C285.364 298.089 284.546 294.923 284.546 291.316C284.546 287.709 285.364 284.563 287 281.879C288.635 279.153 290.837 277.077 293.605 275.651C296.415 274.183 299.519 273.449 302.916 273.449ZM302.916 282.634C300.861 282.634 299.099 283.389 297.631 284.899C296.205 286.367 295.493 288.527 295.493 291.379C295.493 294.231 296.226 296.412 297.694 297.921C299.204 299.431 300.966 300.186 302.979 300.186C304.992 300.186 306.712 299.431 308.137 297.921C309.563 296.412 310.276 294.231 310.276 291.379C310.276 288.527 309.542 286.367 308.075 284.899C306.607 283.389 304.887 282.634 302.916 282.634Z" fill="#6E44FF"/>
<path d="M119.257 351.054C119.257 353.277 118.649 355.374 117.432 357.345C116.258 359.316 114.518 360.91 112.211 362.126C109.904 363.342 107.199 363.951 104.095 363.951C99.6078 363.951 95.9381 362.881 93.0861 360.742C90.2342 358.603 88.8082 355.646 88.8082 351.872H96.4833C96.651 353.801 97.364 355.332 98.6222 356.464C99.8804 357.597 101.705 358.163 104.095 358.163C106.57 358.163 108.499 357.534 109.883 356.275C111.309 355.017 112.022 353.403 112.022 351.431C112.022 349.88 111.582 348.663 110.701 347.783C109.862 346.86 108.793 346.168 107.493 345.707C106.192 345.203 104.41 344.679 102.145 344.134C99.2933 343.463 96.9866 342.771 95.2251 342.058C93.4636 341.303 91.9537 340.128 90.6955 338.535C89.4373 336.899 88.8082 334.697 88.8082 331.929C88.8082 329.413 89.4373 327.19 90.6955 325.261C91.9537 323.331 93.7152 321.843 95.98 320.794C98.2448 319.746 100.845 319.221 103.781 319.221C108.059 319.221 111.498 320.228 114.098 322.241C116.74 324.254 118.208 327.169 118.502 330.985H110.575C110.407 329.308 109.694 327.903 108.436 326.77C107.178 325.638 105.5 325.072 103.403 325.072C101.223 325.072 99.461 325.617 98.119 326.708C96.7769 327.798 96.1058 329.413 96.1058 331.552C96.1058 333.103 96.5252 334.362 97.364 335.326C98.2448 336.249 99.3352 336.962 100.635 337.465C101.936 337.927 103.739 338.43 106.046 338.975C108.856 339.646 111.141 340.359 112.903 341.114C114.664 341.827 116.153 342.98 117.37 344.574C118.628 346.126 119.257 348.286 119.257 351.054ZM141.685 328.28C144.411 328.28 146.802 328.909 148.857 330.168C150.954 331.384 152.569 332.999 153.701 335.012V328.847H160.936V363.51H153.701V357.03C152.527 359.169 150.912 360.889 148.857 362.189C146.802 363.447 144.411 364.076 141.685 364.076C138.666 364.076 135.898 363.321 133.381 361.812C130.907 360.26 128.936 358.121 127.468 355.395C126.042 352.627 125.329 349.502 125.329 346.021C125.329 342.54 126.042 339.457 127.468 336.773C128.936 334.089 130.907 332.013 133.381 330.545C135.898 329.035 138.666 328.28 141.685 328.28ZM143.195 334.508C141.35 334.508 139.63 334.97 138.037 335.892C136.443 336.773 135.143 338.094 134.136 339.856C133.171 341.575 132.689 343.63 132.689 346.021C132.689 348.412 133.171 350.509 134.136 352.312C135.143 354.116 136.443 355.5 138.037 356.464C139.672 357.387 141.392 357.848 143.195 357.848C145.041 357.848 146.76 357.387 148.354 356.464C149.948 355.541 151.227 354.199 152.191 352.438C153.198 350.634 153.701 348.537 153.701 346.147C153.701 343.756 153.198 341.68 152.191 339.919C151.227 338.157 149.948 336.815 148.354 335.892C146.76 334.97 145.041 334.508 143.195 334.508ZM183.756 357.093L193.57 328.847H201.308L188.096 363.51H179.415L166.267 328.847H173.942L183.756 357.093ZM220.003 357.093L229.817 328.847H237.555L224.344 363.51H215.662L202.514 328.847H210.189L220.003 357.093ZM246.751 328.847L256.502 355.269L266.63 328.847H274.054L252.79 379.804H245.367L252.412 362.944L238.761 328.847H246.751ZM291.608 328.28C295.466 328.28 298.57 329.287 300.918 331.3C303.309 333.271 304.588 335.976 304.756 339.415H297.395C297.27 337.696 296.661 336.354 295.571 335.389C294.522 334.425 293.034 333.942 291.104 333.942C289.175 333.942 287.665 334.383 286.575 335.263C285.484 336.102 284.939 337.193 284.939 338.535C284.939 339.625 285.296 340.506 286.009 341.177C286.722 341.848 287.623 342.372 288.714 342.75C289.846 343.085 291.356 343.463 293.243 343.882C295.802 344.469 297.857 345.056 299.408 345.644C301.002 346.231 302.365 347.195 303.498 348.537C304.63 349.838 305.196 351.62 305.196 353.885C305.196 355.856 304.609 357.618 303.435 359.169C302.302 360.721 300.709 361.937 298.654 362.818C296.598 363.657 294.271 364.076 291.67 364.076C287.644 364.076 284.394 363.112 281.919 361.182C279.445 359.253 278.082 356.506 277.83 352.941H285.254C285.379 354.661 286.009 356.003 287.141 356.967C288.273 357.932 289.783 358.414 291.67 358.414C293.684 358.414 295.256 357.995 296.389 357.156C297.563 356.275 298.15 355.143 298.15 353.759C298.15 352.627 297.773 351.725 297.018 351.054C296.305 350.383 295.382 349.88 294.25 349.544C293.117 349.167 291.587 348.768 289.657 348.349C287.141 347.762 285.107 347.195 283.555 346.65C282.003 346.063 280.661 345.14 279.529 343.882C278.438 342.624 277.893 340.925 277.893 338.786C277.893 336.857 278.438 335.096 279.529 333.502C280.619 331.908 282.192 330.65 284.247 329.727C286.344 328.763 288.798 328.28 291.608 328.28Z" fill="#212529"/>
<defs>
<linearGradient id="paint0_linear_58_94" x1="135.136" y1="31.6848" x2="266.915" y2="214.596" gradientUnits="userSpaceOnUse">
<stop stop-color="#FFD166"/>
<stop offset="1" stop-color="#6E44FF"/>
</linearGradient>
<linearGradient id="paint1_linear_58_94" x1="135.136" y1="31.6848" x2="266.915" y2="214.596" gradientUnits="userSpaceOnUse">
<stop stop-color="#FFD166"/>
<stop offset="1" stop-color="#6E44FF"/>
</linearGradient>
</defs>
</svg>
