<svg width="402" height="403" viewBox="0 0 402 403" fill="none" xmlns="http://www.w3.org/2000/svg">
<circle cx="201" cy="201.205" r="197" fill="white" stroke="url(#paint0_linear_58_133)" stroke-width="8"/>
<path d="M100.376 274.025V200.231C100.376 180.575 116.311 164.641 135.966 164.641H145.851V238.435C145.851 258.091 129.916 274.025 110.261 274.025H100.376Z" fill="#FFD166"/>
<path d="M57.0376 251.163C52.9593 248.766 50.4548 244.389 50.4548 239.658L50.4547 161.705C50.4547 156.877 53.0619 152.425 57.2727 150.064L95.9288 128.385L95.9288 274.025L57.0376 251.163Z" fill="#6E44FF"/>
<path d="M203.611 227.978C203.611 229.588 203.17 231.107 202.289 232.534C201.439 233.962 200.178 235.116 198.508 235.997C196.837 236.877 194.878 237.318 192.631 237.318C189.381 237.318 186.723 236.543 184.658 234.994C182.593 233.445 181.56 231.304 181.56 228.57H187.118C187.24 229.968 187.756 231.076 188.667 231.896C189.578 232.716 190.9 233.126 192.631 233.126C194.423 233.126 195.82 232.671 196.822 231.76C197.855 230.848 198.371 229.679 198.371 228.252C198.371 227.128 198.052 226.247 197.415 225.609C196.807 224.941 196.033 224.44 195.091 224.106C194.149 223.741 192.859 223.361 191.218 222.967C189.153 222.481 187.483 221.98 186.207 221.463C184.931 220.916 183.838 220.066 182.927 218.912C182.016 217.727 181.56 216.133 181.56 214.128C181.56 212.306 182.016 210.696 182.927 209.299C183.838 207.902 185.114 206.823 186.754 206.064C188.394 205.305 190.277 204.925 192.403 204.925C195.501 204.925 197.992 205.654 199.875 207.112C201.788 208.57 202.851 210.681 203.064 213.445H197.323C197.202 212.23 196.686 211.212 195.774 210.392C194.863 209.572 193.648 209.162 192.13 209.162C190.55 209.162 189.275 209.557 188.303 210.347C187.331 211.136 186.845 212.306 186.845 213.855C186.845 214.979 187.149 215.89 187.756 216.588C188.394 217.257 189.183 217.773 190.125 218.137C191.067 218.471 192.373 218.836 194.043 219.231C196.078 219.717 197.733 220.233 199.009 220.78C200.285 221.296 201.363 222.131 202.244 223.286C203.155 224.409 203.611 225.974 203.611 227.978ZM219.853 211.486C221.827 211.486 223.559 211.941 225.047 212.852C226.566 213.733 227.735 214.903 228.555 216.361V211.896H233.794V236.999H228.555V232.306C227.705 233.855 226.535 235.101 225.047 236.042C223.559 236.953 221.827 237.409 219.853 237.409C217.666 237.409 215.662 236.862 213.839 235.769C212.047 234.645 210.62 233.096 209.557 231.122C208.524 229.117 208.008 226.854 208.008 224.333C208.008 221.812 208.524 219.58 209.557 217.636C210.62 215.692 212.047 214.189 213.839 213.126C215.662 212.032 217.666 211.486 219.853 211.486ZM220.947 215.996C219.61 215.996 218.365 216.33 217.211 216.998C216.057 217.636 215.115 218.593 214.386 219.869C213.687 221.114 213.338 222.602 213.338 224.333C213.338 226.065 213.687 227.583 214.386 228.889C215.115 230.195 216.057 231.198 217.211 231.896C218.395 232.564 219.641 232.899 220.947 232.899C222.283 232.899 223.528 232.564 224.682 231.896C225.837 231.228 226.763 230.256 227.462 228.98C228.191 227.674 228.555 226.156 228.555 224.425C228.555 222.693 228.191 221.19 227.462 219.914C226.763 218.639 225.837 217.667 224.682 216.998C223.528 216.33 222.283 215.996 220.947 215.996ZM250.32 232.352L257.427 211.896H263.031L253.464 236.999H247.177L237.655 211.896H243.213L250.32 232.352ZM276.57 232.352L283.677 211.896H289.281L279.714 236.999H273.427L263.905 211.896H269.463L276.57 232.352ZM295.941 211.896L303.002 231.031L310.337 211.896H315.713L300.314 248.799H294.938L300.041 236.589L290.155 211.896H295.941ZM328.426 211.486C331.22 211.486 333.468 212.215 335.169 213.673C336.9 215.1 337.826 217.059 337.948 219.55H332.617C332.526 218.304 332.086 217.332 331.296 216.634C330.537 215.935 329.459 215.586 328.061 215.586C326.664 215.586 325.571 215.905 324.781 216.543C323.991 217.15 323.597 217.94 323.597 218.912C323.597 219.702 323.855 220.339 324.371 220.825C324.887 221.311 325.54 221.691 326.33 221.964C327.15 222.207 328.244 222.481 329.61 222.784C331.463 223.21 332.951 223.635 334.075 224.06C335.229 224.485 336.216 225.184 337.037 226.156C337.857 227.097 338.267 228.388 338.267 230.028C338.267 231.456 337.841 232.732 336.991 233.855C336.171 234.979 335.017 235.86 333.528 236.498C332.04 237.105 330.355 237.409 328.471 237.409C325.556 237.409 323.202 236.71 321.41 235.313C319.618 233.916 318.631 231.927 318.448 229.345H323.824C323.915 230.59 324.371 231.562 325.191 232.261C326.011 232.959 327.105 233.309 328.471 233.309C329.929 233.309 331.068 233.005 331.888 232.397C332.739 231.76 333.164 230.94 333.164 229.937C333.164 229.117 332.891 228.464 332.344 227.978C331.828 227.492 331.159 227.128 330.339 226.885C329.519 226.611 328.411 226.323 327.014 226.019C325.191 225.594 323.718 225.184 322.594 224.789C321.47 224.364 320.499 223.696 319.678 222.784C318.889 221.873 318.494 220.643 318.494 219.094C318.494 217.697 318.889 216.421 319.678 215.267C320.468 214.113 321.607 213.202 323.095 212.534C324.614 211.835 326.391 211.486 328.426 211.486Z" fill="#212529"/>
<path d="M200.015 165.491V171.413H191.268V197.473H183.477V171.413H174.775V165.491H200.015ZM228.462 184.853C228.462 185.734 228.402 186.554 228.28 187.313H210.785C210.937 188.437 211.438 189.364 212.289 190.093C213.139 190.791 214.202 191.14 215.478 191.14C216.45 191.14 217.179 191.004 217.665 190.73C218.151 190.427 218.667 189.941 219.214 189.272H227.642C226.913 191.824 225.455 193.889 223.269 195.469C221.082 197.018 218.485 197.792 215.478 197.792C213.048 197.792 210.861 197.261 208.917 196.197C207.004 195.134 205.5 193.616 204.407 191.642C203.344 189.637 202.812 187.329 202.812 184.717C202.812 182.104 203.344 179.827 204.407 177.883C205.5 175.908 207.004 174.405 208.917 173.372C210.831 172.309 213.003 171.778 215.432 171.778C217.893 171.778 220.11 172.294 222.084 173.327C224.058 174.329 225.607 175.817 226.731 177.792C227.885 179.766 228.462 182.12 228.462 184.853ZM220.353 182.439C220.231 181.254 219.715 180.297 218.804 179.568C217.893 178.809 216.769 178.429 215.432 178.429C214.278 178.429 213.276 178.809 212.425 179.568C211.575 180.297 211.044 181.254 210.831 182.439H220.353ZM244.264 171.778C247.362 171.778 249.989 172.552 252.146 174.101C254.302 175.62 255.73 177.807 256.428 180.662H248C247.271 179.143 246.026 178.384 244.264 178.384C242.715 178.384 241.53 178.976 240.71 180.161C239.921 181.315 239.526 182.849 239.526 184.762C239.526 186.676 239.921 188.225 240.71 189.409C241.53 190.563 242.715 191.14 244.264 191.14C245.236 191.14 245.995 190.973 246.542 190.639C247.089 190.305 247.575 189.713 248 188.862H256.428C255.73 191.596 254.287 193.768 252.1 195.377C249.913 196.987 247.301 197.792 244.264 197.792C241.834 197.792 239.647 197.261 237.703 196.197C235.79 195.134 234.286 193.616 233.193 191.642C232.13 189.667 231.598 187.374 231.598 184.762C231.598 182.15 232.13 179.872 233.193 177.928C234.286 175.954 235.79 174.435 237.703 173.372C239.647 172.309 241.834 171.778 244.264 171.778ZM276.274 171.778C278.188 171.778 279.873 172.218 281.331 173.099C282.82 173.949 283.974 175.195 284.794 176.835C285.644 178.475 286.07 180.404 286.07 182.621V197.473H278.324V183.669C278.324 182.029 277.884 180.768 277.003 179.887C276.153 178.976 274.968 178.52 273.45 178.52C271.931 178.52 270.731 178.976 269.85 179.887C269 180.768 268.575 182.029 268.575 183.669V197.473H260.784V163.759H268.575V175.787C269.334 174.542 270.367 173.57 271.673 172.871C273.009 172.142 274.543 171.778 276.274 171.778ZM308.175 171.778C310.088 171.778 311.774 172.218 313.232 173.099C314.72 173.949 315.874 175.195 316.694 176.835C317.545 178.475 317.97 180.404 317.97 182.621V197.473H310.225V183.669C310.225 182.029 309.784 180.768 308.904 179.887C308.053 178.976 306.869 178.52 305.35 178.52C303.831 178.52 302.632 178.976 301.751 179.887C300.9 180.768 300.475 182.029 300.475 183.669V197.473H292.685V172.051H300.475V175.787C301.234 174.542 302.267 173.57 303.573 172.871C304.91 172.142 306.443 171.778 308.175 171.778ZM336.066 171.778C338.496 171.778 340.713 172.309 342.717 173.372C344.752 174.405 346.362 175.908 347.547 177.883C348.731 179.827 349.324 182.104 349.324 184.717C349.324 187.329 348.731 189.622 347.547 191.596C346.393 193.57 344.813 195.104 342.809 196.197C340.804 197.261 338.572 197.792 336.111 197.792C333.651 197.792 331.404 197.261 329.369 196.197C327.334 195.104 325.724 193.57 324.539 191.596C323.355 189.622 322.763 187.329 322.763 184.717C322.763 182.104 323.355 179.827 324.539 177.883C325.724 175.908 327.318 174.405 329.323 173.372C331.358 172.309 333.606 171.778 336.066 171.778ZM336.066 178.429C334.578 178.429 333.302 178.976 332.239 180.07C331.206 181.133 330.69 182.697 330.69 184.762C330.69 186.827 331.221 188.407 332.284 189.5C333.378 190.594 334.653 191.14 336.111 191.14C337.569 191.14 338.815 190.594 339.847 189.5C340.88 188.407 341.396 186.827 341.396 184.762C341.396 182.697 340.865 181.133 339.802 180.07C338.739 178.976 337.493 178.429 336.066 178.429Z" fill="#6E44FF"/>
<defs>
<linearGradient id="paint0_linear_58_133" x1="0" y1="0.205078" x2="402" y2="402.205" gradientUnits="userSpaceOnUse">
<stop stop-color="#6E44FF"/>
<stop offset="1" stop-color="#FFD166"/>
</linearGradient>
</defs>
</svg>
