<svg width="512" height="512" viewBox="0 0 512 512" fill="none" xmlns="http://www.w3.org/2000/svg">
<rect x="99.9893" y="291.142" width="24" height="24" rx="5" fill="#745AFC"/>
<rect x="75.0967" y="196.857" width="24.8926" height="98.4329" rx="5" fill="white"/>
<rect x="87.2739" y="196.857" width="36.7153" height="24" rx="5" fill="white"/>
<rect x="44.7812" y="196.857" width="24" height="24" rx="5" fill="#745AFC"/>
<path d="M56.7812 200.758L64.7813 216.957L56.7812 212.445L48.7812 216.957L56.7812 200.758Z" fill="white"/>
<path d="M159.84 238.105V243.8H151.429V268.857H143.938V243.8H135.571V238.105H159.84ZM187.194 256.723C187.194 257.57 187.135 258.358 187.018 259.088H170.196C170.342 260.169 170.824 261.06 171.642 261.761C172.46 262.432 173.482 262.768 174.708 262.768C175.643 262.768 176.344 262.637 176.811 262.374C177.279 262.082 177.775 261.615 178.301 260.972H186.405C185.704 263.425 184.302 265.411 182.2 266.93C180.097 268.419 177.6 269.164 174.708 269.164C172.372 269.164 170.269 268.653 168.4 267.631C166.56 266.609 165.115 265.148 164.063 263.25C163.041 261.323 162.53 259.103 162.53 256.591C162.53 254.08 163.041 251.889 164.063 250.02C165.115 248.122 166.56 246.676 168.4 245.683C170.24 244.661 172.328 244.15 174.665 244.15C177.03 244.15 179.162 244.647 181.061 245.64C182.959 246.603 184.448 248.034 185.529 249.933C186.639 251.831 187.194 254.094 187.194 256.723ZM179.396 254.401C179.279 253.262 178.783 252.342 177.906 251.641C177.03 250.911 175.95 250.546 174.665 250.546C173.555 250.546 172.591 250.911 171.773 251.641C170.956 252.342 170.445 253.262 170.24 254.401H179.396ZM202.387 244.15C205.366 244.15 207.893 244.895 209.966 246.384C212.04 247.845 213.412 249.947 214.084 252.693H205.98C205.279 251.232 204.081 250.502 202.387 250.502C200.898 250.502 199.759 251.072 198.97 252.211C198.211 253.32 197.831 254.795 197.831 256.635C197.831 258.475 198.211 259.965 198.97 261.104C199.759 262.213 200.898 262.768 202.387 262.768C203.322 262.768 204.052 262.608 204.578 262.286C205.103 261.965 205.571 261.396 205.98 260.578H214.084C213.412 263.206 212.025 265.294 209.922 266.842C207.82 268.39 205.308 269.164 202.387 269.164C200.051 269.164 197.948 268.653 196.079 267.631C194.239 266.609 192.794 265.148 191.742 263.25C190.72 261.352 190.209 259.147 190.209 256.635C190.209 254.124 190.72 251.933 191.742 250.064C192.794 248.166 194.239 246.706 196.079 245.683C197.948 244.661 200.051 244.15 202.387 244.15ZM233.167 244.15C235.007 244.15 236.628 244.574 238.029 245.421C239.46 246.238 240.57 247.436 241.359 249.013C242.176 250.59 242.585 252.444 242.585 254.576V268.857H235.138V255.584C235.138 254.007 234.715 252.795 233.868 251.948C233.05 251.072 231.911 250.634 230.451 250.634C228.99 250.634 227.837 251.072 226.99 251.948C226.172 252.795 225.763 254.007 225.763 255.584V268.857H218.272V236.44H225.763V248.005C226.493 246.808 227.486 245.873 228.742 245.202C230.027 244.501 231.502 244.15 233.167 244.15ZM263.84 244.15C265.68 244.15 267.301 244.574 268.703 245.421C270.134 246.238 271.244 247.436 272.032 249.013C272.85 250.59 273.259 252.444 273.259 254.576V268.857H265.812V255.584C265.812 254.007 265.388 252.795 264.541 251.948C263.723 251.072 262.585 250.634 261.124 250.634C259.664 250.634 258.51 251.072 257.664 251.948C256.846 252.795 256.437 254.007 256.437 255.584V268.857H248.946V244.413H256.437V248.005C257.167 246.808 258.16 245.873 259.416 245.202C260.701 244.501 262.176 244.15 263.84 244.15ZM290.659 244.15C292.995 244.15 295.127 244.661 297.055 245.683C299.011 246.676 300.559 248.122 301.698 250.02C302.837 251.889 303.407 254.08 303.407 256.591C303.407 259.103 302.837 261.308 301.698 263.206C300.588 265.105 299.07 266.579 297.142 267.631C295.215 268.653 293.068 269.164 290.703 269.164C288.337 269.164 286.176 268.653 284.219 267.631C282.262 266.579 280.715 265.105 279.576 263.206C278.437 261.308 277.867 259.103 277.867 256.591C277.867 254.08 278.437 251.889 279.576 250.02C280.715 248.122 282.248 246.676 284.175 245.683C286.132 244.661 288.293 244.15 290.659 244.15ZM290.659 250.546C289.228 250.546 288.001 251.072 286.979 252.123C285.986 253.145 285.49 254.649 285.49 256.635C285.49 258.621 286.001 260.14 287.023 261.191C288.074 262.243 289.301 262.768 290.703 262.768C292.104 262.768 293.302 262.243 294.295 261.191C295.288 260.14 295.784 258.621 295.784 256.635C295.784 254.649 295.273 253.145 294.251 252.123C293.229 251.072 292.031 250.546 290.659 250.546ZM317.132 244.15C320.053 244.15 322.477 244.866 324.404 246.297C326.332 247.728 327.354 249.684 327.471 252.167H319.805C319.717 251.32 319.425 250.75 318.928 250.458C318.432 250.137 317.687 249.977 316.694 249.977C315.76 249.977 315.03 250.137 314.504 250.458C314.007 250.75 313.759 251.189 313.759 251.773C313.759 252.444 314.124 252.941 314.854 253.262C315.614 253.554 316.84 253.89 318.534 254.27C320.374 254.649 321.893 255.058 323.09 255.496C324.317 255.905 325.368 256.591 326.244 257.555C327.12 258.49 327.559 259.775 327.559 261.41C327.559 262.929 327.106 264.272 326.2 265.44C325.324 266.609 324.098 267.529 322.521 268.2C320.973 268.843 319.235 269.164 317.308 269.164C314.27 269.164 311.759 268.492 309.773 267.149C307.787 265.776 306.706 263.761 306.531 261.104H314.197C314.314 261.892 314.635 262.462 315.161 262.812C315.687 263.162 316.417 263.338 317.351 263.338C318.228 263.338 318.943 263.133 319.498 262.724C320.082 262.316 320.374 261.819 320.374 261.235C320.374 260.534 319.98 260.023 319.191 259.702C318.403 259.351 317.162 259.001 315.468 258.65C313.628 258.271 312.109 257.876 310.912 257.468C309.744 257.059 308.721 256.402 307.845 255.496C306.998 254.562 306.575 253.32 306.575 251.773C306.575 250.371 306.969 249.1 307.758 247.961C308.575 246.793 309.773 245.873 311.35 245.202C312.956 244.501 314.884 244.15 317.132 244.15ZM341.87 244.15C344.995 244.15 347.389 245.304 349.054 247.611V244.413H356.545V268.857H349.054V265.309C347.243 267.879 344.849 269.164 341.87 269.164C339.855 269.164 337.986 268.638 336.262 267.587C334.569 266.536 333.225 265.061 332.232 263.162C331.239 261.264 330.743 259.103 330.743 256.679C330.743 254.255 331.239 252.094 332.232 250.196C333.225 248.297 334.569 246.822 336.262 245.771C337.986 244.69 339.855 244.15 341.87 244.15ZM343.71 250.634C342.834 250.634 341.972 250.867 341.125 251.335C340.307 251.773 339.636 252.444 339.11 253.35C338.613 254.255 338.365 255.365 338.365 256.679C338.365 257.993 338.613 259.103 339.11 260.008C339.636 260.885 340.307 261.556 341.125 262.024C341.943 262.462 342.804 262.681 343.71 262.681C344.586 262.681 345.433 262.462 346.25 262.024C347.097 261.556 347.769 260.87 348.266 259.965C348.791 259.059 349.054 257.949 349.054 256.635C349.054 255.321 348.791 254.226 348.266 253.35C347.769 252.444 347.112 251.773 346.294 251.335C345.477 250.867 344.615 250.634 343.71 250.634ZM373.553 262.593L379.116 244.413H387.089L378.416 268.857H368.69L360.017 244.413H367.989L373.553 262.593ZM400.975 262.593L406.539 244.413H414.512L405.838 268.857H396.113L387.439 244.413H395.412L400.975 262.593ZM423.36 244.413L428.792 260.403L434.75 244.413H442.591L426.996 280.51H419.154L424.367 268.376L414.861 244.413H423.36ZM454.928 244.15C457.849 244.15 460.273 244.866 462.2 246.297C464.128 247.728 465.15 249.684 465.267 252.167H457.6C457.513 251.32 457.221 250.75 456.724 250.458C456.228 250.137 455.483 249.977 454.49 249.977C453.556 249.977 452.825 250.137 452.3 250.458C451.803 250.75 451.555 251.189 451.555 251.773C451.555 252.444 451.92 252.941 452.65 253.262C453.409 253.554 454.636 253.89 456.33 254.27C458.17 254.649 459.689 255.058 460.886 255.496C462.113 255.905 463.164 256.591 464.04 257.555C464.916 258.49 465.354 259.775 465.354 261.41C465.354 262.929 464.902 264.272 463.996 265.44C463.12 266.609 461.893 267.529 460.316 268.2C458.769 268.843 457.031 269.164 455.103 269.164C452.066 269.164 449.554 268.492 447.569 267.149C445.583 265.776 444.502 263.761 444.327 261.104H451.993C452.11 261.892 452.431 262.462 452.957 262.812C453.483 263.162 454.213 263.338 455.147 263.338C456.023 263.338 456.739 263.133 457.294 262.724C457.878 262.316 458.17 261.819 458.17 261.235C458.17 260.534 457.776 260.023 456.987 259.702C456.199 259.351 454.957 259.001 453.263 258.65C451.424 258.271 449.905 257.876 448.708 257.468C447.539 257.059 446.517 256.402 445.641 255.496C444.794 254.562 444.371 253.32 444.371 251.773C444.371 250.371 444.765 249.1 445.553 247.961C446.371 246.793 447.569 245.873 449.146 245.202C450.752 244.501 452.679 244.15 454.928 244.15Z" fill="white"/>
</svg>
