<svg width="25" height="24" viewBox="0 0 25 24" fill="none" xmlns="http://www.w3.org/2000/svg">
<path fill-rule="evenodd" clip-rule="evenodd" d="M12.4685 24C19.0959 24 24.4685 18.6274 24.4685 12C24.4685 5.37258 19.0959 0 12.4685 0C5.84109 0 0.468506 5.37258 0.468506 12C0.468506 18.6274 5.84109 24 12.4685 24ZM14.9049 7.7636C15.2564 8.11508 15.2564 8.68492 14.9049 9.0364L11.9413 12L14.9049 14.9636C15.2564 15.3151 15.2564 15.8849 14.9049 16.2364C14.5534 16.5879 13.9836 16.5879 13.6321 16.2364L10.0321 12.6364C9.68064 12.2849 9.68064 11.7151 10.0321 11.3636L13.6321 7.7636C13.9836 7.41213 14.5534 7.41213 14.9049 7.7636Z" fill="#161718"/>
</svg>
