<svg width="21" height="20" viewBox="0 0 21 20" fill="none" xmlns="http://www.w3.org/2000/svg">
<path fill-rule="evenodd" clip-rule="evenodd" d="M11.1059 19.3877L11.6485 18.4718C12.0694 17.7614 12.2798 17.4062 12.6178 17.2098C12.9559 17.0134 13.3814 17.0061 14.2326 16.9915C15.4892 16.9698 16.2773 16.8929 16.9382 16.6194C18.1645 16.1119 19.1388 15.1386 19.6468 13.9134C20.0278 12.9946 20.0278 11.8297 20.0278 9.5V8.5C20.0278 5.22657 20.0278 3.58985 19.2903 2.38751C18.8776 1.71473 18.3114 1.14908 17.638 0.736799C16.4345 0 14.7962 0 11.5196 0H8.51675C5.24018 0 3.6019 0 2.3984 0.736799C1.72498 1.14908 1.15878 1.71473 0.746111 2.38751C0.00860596 3.58985 0.00860596 5.22657 0.00860596 8.5V9.5C0.00860596 11.8297 0.00860596 12.9946 0.389573 13.9134C0.897529 15.1386 1.87183 16.1119 3.09815 16.6194C3.75908 16.8929 4.54717 16.9698 5.80373 16.9915C6.65489 17.0061 7.08047 17.0134 7.41849 17.2098C7.75651 17.4063 7.96695 17.7614 8.38783 18.4718L8.93045 19.3877C9.41408 20.204 10.6222 20.204 11.1059 19.3877ZM10.0182 4.25C10.4328 4.25 10.7689 4.58579 10.7689 5V13C10.7689 13.4142 10.4328 13.75 10.0182 13.75C9.60357 13.75 9.26747 13.4142 9.26747 13V5C9.26747 4.58579 9.60357 4.25 10.0182 4.25ZM6.76507 7C6.76507 6.58579 6.42896 6.25 6.01435 6.25C5.59974 6.25 5.26363 6.58579 5.26363 7V11C5.26363 11.4142 5.59974 11.75 6.01435 11.75C6.42896 11.75 6.76507 11.4142 6.76507 11V7ZM14.022 6.25C14.4366 6.25 14.7727 6.58579 14.7727 7V11C14.7727 11.4142 14.4366 11.75 14.022 11.75C13.6074 11.75 13.2713 11.4142 13.2713 11V7C13.2713 6.58579 13.6074 6.25 14.022 6.25Z" fill="white"/>
</svg>
