<svg width="25" height="25" viewBox="0 0 25 25" fill="none" xmlns="http://www.w3.org/2000/svg">
<path fill-rule="evenodd" clip-rule="evenodd" d="M13.8134 23.5249L14.4639 22.4258C14.9685 21.5733 15.2207 21.1471 15.626 20.9114C16.0312 20.6757 16.5414 20.6669 17.5618 20.6494C19.0683 20.6234 20.0131 20.5311 20.8055 20.2029C22.2757 19.5939 23.4437 18.4259 24.0527 16.9557C24.5094 15.8531 24.5094 14.4552 24.5094 11.6596V10.4596C24.5094 6.53143 24.5094 4.56736 23.6253 3.12454C23.1305 2.31721 22.4517 1.63842 21.6444 1.14368C20.2016 0.259521 18.2375 0.259521 14.3094 0.259521H10.7094C6.78123 0.259521 4.81716 0.259521 3.37434 1.14368C2.567 1.63842 1.88821 2.31721 1.39348 3.12454C0.509315 4.56736 0.509315 6.53143 0.509315 10.4596V11.6596C0.509315 14.4552 0.509315 15.8531 0.96604 16.9557C1.57501 18.4259 2.74306 19.5939 4.21323 20.2029C5.0056 20.5311 5.9504 20.6234 7.45684 20.6494C8.47726 20.6669 8.98746 20.6757 9.3927 20.9114C9.79794 21.1471 10.0502 21.5733 10.5548 22.4258L11.2053 23.5249C11.7851 24.5044 13.2336 24.5044 13.8134 23.5249ZM16.073 6.61866C16.4245 6.26719 16.9943 6.26719 17.3458 6.61866L17.5958 6.86865C18.3582 7.63102 18.994 8.26674 19.4308 8.83929C19.8919 9.44362 20.2153 10.0821 20.2153 10.8551C20.2153 11.628 19.8919 12.2665 19.4308 12.8709C18.994 13.4434 18.3582 14.0791 17.5958 14.8415L17.3458 15.0915C16.9943 15.443 16.4245 15.443 16.073 15.0915C15.7215 14.74 15.7215 14.1702 16.073 13.8187L16.2789 13.6128C17.0969 12.7948 17.645 12.244 17.9998 11.779C18.3387 11.3348 18.4153 11.0762 18.4153 10.8551C18.4153 10.6339 18.3387 10.3754 17.9998 9.93115C17.645 9.46617 17.0969 8.91534 16.2789 8.09735L16.073 7.89146C15.7215 7.53998 15.7215 6.97013 16.073 6.61866ZM14.9314 5.29248C15.0601 4.81236 14.7752 4.31885 14.295 4.19021C13.8149 4.06156 13.3214 4.34648 13.1928 4.8266L10.0869 16.4178C9.95828 16.8979 10.2432 17.3914 10.7233 17.52C11.2034 17.6487 11.697 17.3638 11.8256 16.8836L14.9314 5.29248ZM8.94575 6.61866C9.29722 6.97013 9.29722 7.53998 8.94575 7.89146L8.73986 8.09735C7.92187 8.91534 7.37374 9.46617 7.01898 9.93115C6.68006 10.3754 6.60345 10.6339 6.60345 10.8551C6.60345 11.0762 6.68006 11.3348 7.01898 11.779C7.37374 12.244 7.92187 12.7948 8.73986 13.6128L8.94575 13.8187C9.29722 14.1702 9.29722 14.74 8.94575 15.0915C8.59427 15.443 8.02442 15.443 7.67295 15.0915L7.46706 14.8856L7.42294 14.8415C6.66053 14.0791 6.02477 13.4434 5.58793 12.8709C5.12685 12.2665 4.80345 11.628 4.80345 10.8551C4.80345 10.0821 5.12685 9.44362 5.58793 8.83929C6.02477 8.26675 6.66052 7.63103 7.42294 6.86867L7.46706 6.82455L7.67295 6.61866C8.02442 6.26719 8.59427 6.26719 8.94575 6.61866Z" fill="white"/>
</svg>
