<svg width="25" height="25" viewBox="0 0 25 25" fill="none" xmlns="http://www.w3.org/2000/svg">
<circle cx="12.8838" cy="12.1621" r="12" fill="#745AFC"/>
<path d="M15.4151 5.89893H10.3519C9.36251 5.90009 8.41403 6.29366 7.71452 6.99329C7.01501 7.69292 6.6216 8.64146 6.62061 9.6308L6.62061 14.694C6.62177 15.6834 7.01534 16.6319 7.71497 17.3314C8.4146 18.0309 9.36314 18.4243 10.3525 18.4253H15.4157C16.4051 18.4241 17.3535 18.0306 18.0531 17.3309C18.7526 16.6313 19.146 15.6828 19.147 14.6934V9.63017C19.1458 8.64083 18.7522 7.69235 18.0526 6.99284C17.353 6.29333 16.4044 5.89992 15.4151 5.89893ZM17.8871 14.6934C17.8871 15.0181 17.8232 15.3395 17.6989 15.6394C17.5747 15.9393 17.3926 16.2119 17.1631 16.4414C16.9335 16.671 16.661 16.853 16.3611 16.9773C16.0612 17.1015 15.7397 17.1654 15.4151 17.1654H10.3519C9.69634 17.1653 9.06773 16.9048 8.60427 16.4412C8.14082 15.9776 7.88046 15.3489 7.88046 14.6934V9.63017C7.88062 8.97466 8.14114 8.34605 8.60472 7.88259C9.06829 7.41914 9.69697 7.15878 10.3525 7.15878H15.4157C16.0712 7.15894 16.6998 7.41946 17.1633 7.88304C17.6268 8.34661 17.8871 8.97529 17.8871 9.6308V14.6934Z" fill="white"/>
<path d="M12.8834 8.92261C12.0247 8.92394 11.2016 9.26567 10.5945 9.8729C9.98739 10.4801 9.64581 11.3033 9.64465 12.162C9.64565 13.0208 9.98724 13.8443 10.5945 14.4516C11.2018 15.059 12.0251 15.4008 12.884 15.4019C13.743 15.4009 14.5665 15.0593 15.1739 14.4519C15.7813 13.8445 16.123 13.0209 16.124 12.162C16.1227 11.3031 15.7807 10.4798 15.1732 9.87264C14.5658 9.26549 13.7423 8.92406 12.8834 8.92324V8.92261ZM12.8834 14.1421C12.3584 14.1421 11.8549 13.9335 11.4837 13.5623C11.1124 13.1911 10.9039 12.6876 10.9039 12.1626C10.9039 11.6376 11.1124 11.1341 11.4837 10.7629C11.8549 10.3916 12.3584 10.1831 12.8834 10.1831C13.4084 10.1831 13.9119 10.3916 14.2831 10.7629C14.6543 11.1341 14.8629 11.6376 14.8629 12.1626C14.8629 12.6876 14.6543 13.1911 14.2831 13.5623C13.9119 13.9335 13.4084 14.1421 12.8834 14.1421Z" fill="white"/>
<path d="M16.1298 9.72313C16.5584 9.72313 16.9059 9.37565 16.9059 8.94701C16.9059 8.51838 16.5584 8.1709 16.1298 8.1709C15.7011 8.1709 15.3536 8.51838 15.3536 8.94701C15.3536 9.37565 15.7011 9.72313 16.1298 9.72313Z" fill="white"/>
</svg>
