<svg width="25" height="25" viewBox="0 0 25 25" fill="none" xmlns="http://www.w3.org/2000/svg">
<circle cx="12.3506" cy="12.1621" r="12" fill="#745AFC"/>
<path d="M16.6374 5.73193C17.2058 5.73193 17.751 5.95775 18.153 6.35972C18.5549 6.76168 18.7808 7.30686 18.7808 7.87533V16.4489C18.7808 17.0174 18.5549 17.5625 18.153 17.9645C17.751 18.3665 17.2058 18.5923 16.6374 18.5923H8.0638C7.49534 18.5923 6.95016 18.3665 6.5482 17.9645C6.14623 17.5625 5.92041 17.0174 5.92041 16.4489V7.87533C5.92041 7.30686 6.14623 6.76168 6.5482 6.35972C6.95016 5.95775 7.49534 5.73193 8.0638 5.73193H16.6374ZM16.6374 7.16086H8.0638C7.87431 7.16086 7.69259 7.23614 7.5586 7.37012C7.42461 7.50411 7.34934 7.68584 7.34934 7.87533V16.4489C7.34934 16.6384 7.42461 16.8201 7.5586 16.9541C7.69259 17.0881 7.87431 17.1634 8.0638 17.1634H16.6374C16.8269 17.1634 17.0086 17.0881 17.1426 16.9541C17.2766 16.8201 17.3518 16.6384 17.3518 16.4489V7.87533C17.3518 7.68584 17.2766 7.50411 17.1426 7.37012C17.0086 7.23614 16.8269 7.16086 16.6374 7.16086ZM9.49273 10.7332C9.66773 10.7332 9.83663 10.7975 9.9674 10.9137C10.0982 11.03 10.1817 11.1903 10.2022 11.3641L10.2072 11.4476V15.02C10.207 15.2021 10.1373 15.3772 10.0123 15.5096C9.88724 15.6421 9.71639 15.7217 9.5346 15.7324C9.35281 15.7431 9.17381 15.6839 9.03416 15.5671C8.89452 15.4502 8.80478 15.2844 8.78327 15.1036L8.77827 15.02V11.4476C8.77827 11.2582 8.85354 11.0764 8.98753 10.9424C9.12152 10.8085 9.30324 10.7332 9.49273 10.7332ZM11.6361 10.0187C11.8034 10.0187 11.9655 10.0774 12.0939 10.1846C12.2224 10.2918 12.3092 10.4407 12.3392 10.6053C12.4829 10.5219 12.6316 10.4472 12.7843 10.3817C13.2608 10.178 13.9746 10.0659 14.619 10.2681C14.957 10.3752 15.2963 10.5753 15.5478 10.9161C15.7729 11.2197 15.8943 11.5891 15.9186 12.0042L15.9229 12.1621V15.02C15.9227 15.2021 15.853 15.3772 15.728 15.5096C15.603 15.6421 15.4321 15.7217 15.2503 15.7324C15.0685 15.7431 14.8895 15.6839 14.7499 15.5671C14.6102 15.4502 14.5205 15.2844 14.499 15.1036L14.494 15.02V12.1621C14.494 11.9263 14.4368 11.8163 14.3997 11.7656C14.3463 11.6992 14.2729 11.6521 14.1903 11.6313C13.9417 11.5527 13.5838 11.5941 13.3458 11.6956C12.9886 11.8485 12.6614 12.0885 12.4385 12.3107L12.3506 12.405V15.02C12.3504 15.2021 12.2807 15.3772 12.1556 15.5096C12.0306 15.6421 11.8598 15.7217 11.678 15.7324C11.4962 15.7431 11.3172 15.6839 11.1776 15.5671C11.0379 15.4502 10.9482 15.2844 10.9267 15.1036L10.9217 15.02V10.7332C10.9217 10.5437 10.9969 10.362 11.1309 10.228C11.2649 10.094 11.4466 10.0187 11.6361 10.0187ZM9.49273 8.58979C9.68222 8.58979 9.86394 8.66506 9.99793 8.79905C10.1319 8.93304 10.2072 9.11477 10.2072 9.30425C10.2072 9.49374 10.1319 9.67547 9.99793 9.80946C9.86394 9.94344 9.68222 10.0187 9.49273 10.0187C9.30324 10.0187 9.12152 9.94344 8.98753 9.80946C8.85354 9.67547 8.77827 9.49374 8.77827 9.30425C8.77827 9.11477 8.85354 8.93304 8.98753 8.79905C9.12152 8.66506 9.30324 8.58979 9.49273 8.58979Z" fill="white"/>
</svg>
