<svg width="15" height="15" viewBox="0 0 15 15" fill="none" xmlns="http://www.w3.org/2000/svg">
<path d="M5.25154 2.97356C6.1332 1.39194 6.57403 0.601135 7.2331 0.601135C7.89217 0.601135 8.333 1.39194 9.21466 2.97356L9.44276 3.38274C9.6933 3.83219 9.81857 4.05691 10.0139 4.20519C10.2092 4.35346 10.4525 4.4085 10.939 4.51858L11.3819 4.6188C13.094 5.00618 13.95 5.19986 14.1537 5.85479C14.3574 6.50972 13.7738 7.19216 12.6066 8.55702L12.3046 8.91013C11.973 9.29799 11.8071 9.49191 11.7325 9.73183C11.6579 9.97174 11.683 10.2305 11.7331 10.748L11.7788 11.2191C11.9552 13.0401 12.0435 13.9506 11.5103 14.3554C10.9771 14.7602 10.1756 14.3911 8.57254 13.653L8.15782 13.4621C7.7023 13.2523 7.47453 13.1475 7.2331 13.1475C6.99167 13.1475 6.76391 13.2523 6.30838 13.4621L5.89366 13.653C4.29064 14.3911 3.48913 14.7602 2.95593 14.3554C2.42273 13.9506 2.51096 13.0401 2.68742 11.2191L2.73308 10.748C2.78322 10.2305 2.80829 9.97174 2.73369 9.73183C2.65908 9.49191 2.49324 9.29799 2.16157 8.91013L1.8596 8.55703C0.692418 7.19216 0.108826 6.50972 0.31249 5.85479C0.516154 5.19986 1.37219 5.00618 3.08427 4.6188L3.52721 4.51858C4.01373 4.4085 4.25699 4.35346 4.45231 4.20519C4.64763 4.05691 4.7729 3.83219 5.02344 3.38275L5.25154 2.97356Z" fill="#3C4852"/>
</svg>
