<svg width="15" height="15" viewBox="0 0 15 15" fill="none" xmlns="http://www.w3.org/2000/svg">
<path d="M5.92894 2.97356C6.8106 1.39194 7.25143 0.601135 7.9105 0.601135C8.56957 0.601135 9.0104 1.39194 9.89206 2.97356L10.1202 3.38274C10.3707 3.83219 10.496 4.05691 10.6913 4.20519C10.8866 4.35346 11.1299 4.4085 11.6164 4.51858L12.0593 4.6188C13.7714 5.00618 14.6274 5.19986 14.8311 5.85479C15.0348 6.50972 14.4512 7.19216 13.284 8.55702L12.982 8.91013C12.6504 9.29799 12.4845 9.49191 12.4099 9.73183C12.3353 9.97174 12.3604 10.2305 12.4105 10.748L12.4562 11.2191C12.6326 13.0401 12.7209 13.9506 12.1877 14.3554C11.6545 14.7602 10.853 14.3911 9.24994 13.653L8.83522 13.4621C8.37969 13.2523 8.15193 13.1475 7.9105 13.1475C7.66907 13.1475 7.44131 13.2523 6.98578 13.4621L6.57106 13.653C4.96804 14.3911 4.16653 14.7602 3.63333 14.3554C3.10013 13.9506 3.18836 13.0401 3.36482 11.2191L3.41047 10.748C3.46062 10.2305 3.48569 9.97174 3.41109 9.73183C3.33648 9.49191 3.17064 9.29799 2.83897 8.91013L2.537 8.55703C1.36982 7.19216 0.786225 6.50972 0.989889 5.85479C1.19355 5.19986 2.04959 5.00618 3.76167 4.6188L4.20461 4.51858C4.69113 4.4085 4.93439 4.35346 5.12971 4.20519C5.32503 4.05691 5.4503 3.83219 5.70084 3.38275L5.92894 2.97356Z" fill="#FDD938"/>
</svg>
