<svg width="24" height="24" viewBox="0 0 24 24" fill="none" xmlns="http://www.w3.org/2000/svg">
<path fill-rule="evenodd" clip-rule="evenodd" d="M11.5 2.75C6.66751 2.75 2.75 6.66751 2.75 11.5C2.75 16.3325 6.66751 20.25 11.5 20.25C16.3325 20.25 20.25 16.3325 20.25 11.5C20.25 6.66751 16.3325 2.75 11.5 2.75ZM1.25 11.5C1.25 5.83908 5.83908 1.25 11.5 1.25C17.1609 1.25 21.75 5.83908 21.75 11.5C21.75 17.1609 17.1609 21.75 11.5 21.75C5.83908 21.75 1.25 17.1609 1.25 11.5ZM19.4697 19.4697C19.7626 19.1768 20.2374 19.1768 20.5303 19.4697L22.5303 21.4697C22.8232 21.7626 22.8232 22.2374 22.5303 22.5303C22.2374 22.8232 21.7626 22.8232 21.4697 22.5303L19.4697 20.5303C19.1768 20.2374 19.1768 19.7626 19.4697 19.4697Z" fill="#202329"/>
<path d="M15.0854 9.35547L15.2367 9.50672C16.4121 10.6821 16.9999 11.2699 16.9999 12.0002C16.9999 12.7305 16.4121 13.3182 15.2367 14.4936L15.0854 14.6449" stroke="#202329" stroke-width="1.32236" stroke-linecap="round"/>
<path d="M13.1411 7.74219L12.0003 11.9998L10.8594 16.2575" stroke="#202329" stroke-width="1.32236" stroke-linecap="round"/>
<path d="M8.91441 9.35547L8.76315 9.50672C7.58772 10.6821 7 11.2699 7 12.0002C7 12.7305 7.58772 13.3182 8.76315 14.4936L8.91441 14.6449" stroke="#202329" stroke-width="1.32236" stroke-linecap="round"/>
</svg>
