<svg width="78" height="14" viewBox="0 0 78 14" fill="none" xmlns="http://www.w3.org/2000/svg">
<path d="M5.8023 2.42418C6.68397 0.842567 7.1248 0.0517578 7.78387 0.0517578C8.44294 0.0517578 8.88377 0.842566 9.76543 2.42418L9.99353 2.83337C10.2441 3.28281 10.3693 3.50754 10.5647 3.65581C10.76 3.80409 11.0032 3.85913 11.4898 3.96921L11.9327 4.06942C13.6448 4.4568 14.5008 4.65049 14.7045 5.30542C14.9081 5.96035 14.3246 6.64278 13.1574 8.00765L12.8554 8.36075C12.5237 8.74861 12.3579 8.94253 12.2833 9.18245C12.2087 9.42236 12.2337 9.6811 12.2839 10.1986L12.3295 10.6697C12.506 12.4907 12.5942 13.4012 12.061 13.806C11.5278 14.2108 10.7263 13.8417 9.12331 13.1037L8.70859 12.9127C8.25306 12.703 8.0253 12.5981 7.78387 12.5981C7.54244 12.5981 7.31467 12.703 6.85915 12.9127L6.44442 13.1037C4.8414 13.8417 4.03989 14.2108 3.50669 13.806C2.9735 13.4012 3.06173 12.4907 3.23819 10.6697L3.28384 10.1986C3.33399 9.6811 3.35906 9.42236 3.28445 9.18245C3.20985 8.94253 3.04401 8.74861 2.71233 8.36076L2.41037 8.00765C1.24318 6.64278 0.659592 5.96035 0.863256 5.30542C1.06692 4.65049 1.92296 4.4568 3.63504 4.06942L4.07798 3.96921C4.5645 3.85913 4.80775 3.80409 5.00308 3.65581C5.1984 3.50754 5.32367 3.28281 5.57421 2.83337L5.8023 2.42418Z" fill="#FDD938"/>
<path d="M21.4636 2.42418C22.3453 0.842567 22.7861 0.0517578 23.4452 0.0517578C24.1042 0.0517578 24.5451 0.842566 25.4267 2.42418L25.6548 2.83337C25.9054 3.28281 26.0306 3.50754 26.226 3.65581C26.4213 3.80409 26.6645 3.85913 27.1511 3.96921L27.594 4.06942C29.3061 4.4568 30.1621 4.65049 30.3658 5.30542C30.5694 5.96035 29.9859 6.64278 28.8187 8.00765L28.5167 8.36075C28.185 8.74861 28.0192 8.94253 27.9446 9.18245C27.87 9.42236 27.895 9.6811 27.9452 10.1986L27.9908 10.6697C28.1673 12.4907 28.2555 13.4012 27.7223 13.806C27.1891 14.2108 26.3876 13.8417 24.7846 13.1037L24.3699 12.9127C23.9144 12.703 23.6866 12.5981 23.4452 12.5981C23.2037 12.5981 22.976 12.703 22.5204 12.9127L22.1057 13.1037C20.5027 13.8417 19.7012 14.2108 19.168 13.806C18.6348 13.4012 18.723 12.4907 18.8995 10.6697L18.9451 10.1986C18.9953 9.6811 19.0204 9.42236 18.9458 9.18245C18.8711 8.94253 18.7053 8.74861 18.3736 8.36076L18.0717 8.00765C16.9045 6.64278 16.3209 5.96035 16.5246 5.30542C16.7282 4.65049 17.5843 4.4568 19.2963 4.06942L19.7393 3.96921C20.2258 3.85913 20.4691 3.80409 20.6644 3.65581C20.8597 3.50754 20.985 3.28281 21.2355 2.83337L21.4636 2.42418Z" fill="#FDD938"/>
<path d="M37.1249 2.42418C38.0066 0.842567 38.4474 0.0517578 39.1065 0.0517578C39.7656 0.0517578 40.2064 0.842566 41.088 2.42418L41.3161 2.83337C41.5667 3.28281 41.692 3.50754 41.8873 3.65581C42.0826 3.80409 42.3259 3.85913 42.8124 3.96921L43.2553 4.06942C44.9674 4.4568 45.8234 4.65049 46.0271 5.30542C46.2308 5.96035 45.6472 6.64278 44.48 8.00765L44.178 8.36076C43.8463 8.74861 43.6805 8.94253 43.6059 9.18245C43.5313 9.42236 43.5564 9.6811 43.6065 10.1986L43.6522 10.6697C43.8286 12.4907 43.9169 13.4012 43.3837 13.806C42.8505 14.2108 42.0489 13.8417 40.4459 13.1037L40.0312 12.9127C39.5757 12.703 39.3479 12.5981 39.1065 12.5981C38.8651 12.5981 38.6373 12.703 38.1818 12.9127L37.767 13.1037C36.164 13.8417 35.3625 14.2108 34.8293 13.806C34.2961 13.4012 34.3843 12.4907 34.5608 10.6697L34.6065 10.1986C34.6566 9.6811 34.6817 9.42236 34.6071 9.18245C34.5325 8.94253 34.3666 8.74861 34.0349 8.36076L33.733 8.00765C32.5658 6.64278 31.9822 5.96035 32.1859 5.30542C32.3895 4.65049 33.2456 4.4568 34.9577 4.06942L35.4006 3.96921C35.8871 3.85913 36.1304 3.80409 36.3257 3.65581C36.521 3.50754 36.6463 3.28281 36.8968 2.83337L37.1249 2.42418Z" fill="#FDD938"/>
<path d="M52.7862 2.42418C53.6679 0.842567 54.1087 0.0517578 54.7678 0.0517578C55.4269 0.0517578 55.8677 0.842566 56.7493 2.42418L56.9774 2.83337C57.228 3.28281 57.3533 3.50754 57.5486 3.65581C57.7439 3.80409 57.9872 3.85913 58.4737 3.96921L58.9166 4.06942C60.6287 4.4568 61.4847 4.65049 61.6884 5.30542C61.8921 5.96035 61.3085 6.64278 60.1413 8.00765L59.8393 8.36076C59.5076 8.74861 59.3418 8.94253 59.2672 9.18245C59.1926 9.42236 59.2177 9.6811 59.2678 10.1986L59.3135 10.6697C59.4899 12.4907 59.5782 13.4012 59.045 13.806C58.5118 14.2108 57.7102 13.8417 56.1072 13.1037L55.6925 12.9127C55.237 12.703 55.0092 12.5981 54.7678 12.5981C54.5264 12.5981 54.2986 12.703 53.8431 12.9127L53.4283 13.1037C51.8253 13.8417 51.0238 14.2108 50.4906 13.806C49.9574 13.4012 50.0456 12.4907 50.2221 10.6697L50.2678 10.1986C50.3179 9.6811 50.343 9.42236 50.2684 9.18245C50.1938 8.94253 50.0279 8.74861 49.6962 8.36076L49.3943 8.00765C48.2271 6.64278 47.6435 5.96035 47.8472 5.30542C48.0508 4.65049 48.9069 4.4568 50.619 4.06942L51.0619 3.96921C51.5484 3.85913 51.7917 3.80409 51.987 3.65581C52.1823 3.50754 52.3076 3.28281 52.5581 2.83337L52.7862 2.42418Z" fill="#FDD938"/>
<path d="M68.4475 2.42418C69.3292 0.842567 69.77 0.0517578 70.4291 0.0517578C71.0882 0.0517578 71.529 0.842566 72.4106 2.42418L72.6387 2.83337C72.8893 3.28281 73.0146 3.50754 73.2099 3.65581C73.4052 3.80409 73.6485 3.85913 74.135 3.96921L74.5779 4.06942C76.29 4.4568 77.146 4.65049 77.3497 5.30542C77.5534 5.96035 76.9698 6.64278 75.8026 8.00765L75.5006 8.36075C75.1689 8.74861 75.0031 8.94253 74.9285 9.18245C74.8539 9.42236 74.879 9.6811 74.9291 10.1986L74.9748 10.6697C75.1512 12.4907 75.2395 13.4012 74.7063 13.806C74.1731 14.2108 73.3715 13.8417 71.7685 13.1037L71.3538 12.9127C70.8983 12.703 70.6705 12.5981 70.4291 12.5981C70.1877 12.5981 69.9599 12.703 69.5044 12.9127L69.0896 13.1037C67.4866 13.8417 66.6851 14.2108 66.1519 13.806C65.6187 13.4012 65.7069 12.4907 65.8834 10.6697L65.9291 10.1986C65.9792 9.6811 66.0043 9.42236 65.9297 9.18245C65.8551 8.94253 65.6892 8.74861 65.3576 8.36076L65.0556 8.00765C63.8884 6.64278 63.3048 5.96035 63.5085 5.30542C63.7121 4.65049 64.5682 4.4568 66.2803 4.06942L66.7232 3.96921C67.2097 3.85913 67.453 3.80409 67.6483 3.65581C67.8436 3.50754 67.9689 3.28281 68.2194 2.83337L68.4475 2.42418Z" fill="#3C4852"/>
</svg>
