<svg width="25" height="25" viewBox="0 0 25 25" fill="none" xmlns="http://www.w3.org/2000/svg">
<circle cx="12.8618" cy="12.1621" r="12" fill="#745AFC"/>
<path fill-rule="evenodd" clip-rule="evenodd" d="M12.8618 6.28613C13.4898 6.28613 14.134 6.30229 14.7584 6.32874L15.4958 6.36399L16.2017 6.40586L16.8628 6.45067L17.4665 6.49768C18.1218 6.54783 18.7383 6.82744 19.2077 7.28731C19.6772 7.74719 19.9694 8.35788 20.033 9.01194L20.0623 9.32411L20.1174 9.99253C20.1688 10.6852 20.207 11.4403 20.207 12.1623C20.207 12.8843 20.1688 13.6394 20.1174 14.3321L20.0623 15.0005C20.0528 15.1077 20.0432 15.2113 20.033 15.3127C19.9693 15.9668 19.677 16.5776 19.2075 17.0375C18.7379 17.4974 18.1212 17.7769 17.4658 17.8269L16.8635 17.8732L16.2024 17.9187L15.4958 17.9606L14.7584 17.9959C14.1265 18.0233 13.4942 18.0375 12.8618 18.0385C12.2294 18.0375 11.5971 18.0233 10.9653 17.9959L10.2278 17.9606L9.52195 17.9187L8.86088 17.8732L8.2571 17.8269C7.60187 17.7768 6.98532 17.4972 6.5159 17.0373C6.04648 16.5774 5.75427 15.9667 5.69068 15.3127L5.6613 15.0005L5.60621 14.3321C5.55005 13.6101 5.52016 12.8864 5.5166 12.1623C5.5166 11.4403 5.5548 10.6852 5.60621 9.99253L5.6613 9.32411C5.67085 9.21687 5.6804 9.11331 5.69068 9.01194C5.75425 8.358 6.04635 7.7474 6.51562 7.28754C6.98489 6.82767 7.60127 6.54799 8.25637 6.49768L8.85941 6.45067L9.52048 6.40586L10.2271 6.36399L10.9645 6.32874C11.5966 6.30129 12.2292 6.28708 12.8618 6.28613ZM11.3928 10.3811V13.9435C11.3928 14.2829 11.76 14.4944 12.0538 14.3255L15.1388 12.5443C15.206 12.5056 15.2617 12.45 15.3005 12.3829C15.3393 12.3159 15.3597 12.2398 15.3597 12.1623C15.3597 12.0848 15.3393 12.0088 15.3005 11.9417C15.2617 11.8746 15.206 11.819 15.1388 11.7804L12.0538 9.99987C11.9868 9.96118 11.9108 9.94082 11.8334 9.94083C11.756 9.94084 11.68 9.96123 11.613 9.99994C11.546 10.0387 11.4904 10.0943 11.4517 10.1614C11.4131 10.2284 11.3927 10.3044 11.3928 10.3818V10.3811Z" fill="white"/>
</svg>
