<svg width="962" height="538" viewBox="0 0 962 538" fill="none" xmlns="http://www.w3.org/2000/svg">
<g opacity="0.6">
<mask id="mask0_90_2" style="mask-type:alpha" maskUnits="userSpaceOnUse" x="-478" y="0" width="1440" height="538">
<path d="M-478 0H962V538H-478V0Z" fill="#7043E3"/>
</mask>
<g mask="url(#mask0_90_2)">
<path d="M156.9 -112L156.9 740.001" stroke="#D4C6FA" stroke-opacity="0.2" stroke-width="1.82441"/>
<path d="M339.343 -112L339.343 740.001" stroke="#D4C6FA" stroke-opacity="0.2" stroke-width="1.82441"/>
<path d="M521.783 -112L521.783 740.001" stroke="#D4C6FA" stroke-opacity="0.2" stroke-width="1.82441"/>
<path d="M704.224 -112L704.224 740.001" stroke="#D4C6FA" stroke-opacity="0.2" stroke-width="1.82441"/>
<path d="M884.841 -112L884.841 740.001" stroke="#D4C6FA" stroke-opacity="0.2" stroke-width="1.82441"/>
<path d="M248.121 -112L248.121 740.001" stroke="#D4C6FA" stroke-opacity="0.2" stroke-width="1.82441"/>
<path d="M430.562 -112L430.562 740.001" stroke="#D4C6FA" stroke-opacity="0.2" stroke-width="1.82441"/>
<path d="M613.004 -112L613.004 740.001" stroke="#D4C6FA" stroke-opacity="0.2" stroke-width="1.82441"/>
<path d="M793.621 -112L793.621 740.001" stroke="#D4C6FA" stroke-opacity="0.2" stroke-width="1.82441"/>
<path d="M1138.43 126.182L0.000357773 126.182" stroke="#D4C6FA" stroke-opacity="0.2" stroke-width="1.82441"/>
<path d="M1138.43 308.32L0.000357773 308.32" stroke="#D4C6FA" stroke-opacity="0.2" stroke-width="1.82441"/>
<path d="M1138.43 490.459L0.000357773 490.459" stroke="#D4C6FA" stroke-opacity="0.2" stroke-width="1.82441"/>
<path d="M1138.43 35.1113L0.000357773 35.1112" stroke="#D4C6FA" stroke-opacity="0.2" stroke-width="1.82441"/>
<path d="M1138.43 217.25L0.000357773 217.25" stroke="#D4C6FA" stroke-opacity="0.2" stroke-width="1.82441"/>
<path d="M1138.43 399.387L0.000357773 399.387" stroke="#D4C6FA" stroke-opacity="0.2" stroke-width="1.82441"/>
<path d="M795.444 126.998L886.665 126.998L886.665 218.219L795.444 218.219L795.444 126.998Z" fill="#D4C6FA" fill-opacity="0.04"/>
<path d="M339.341 490.055L430.562 490.055L430.562 581.275L339.341 581.275L339.341 490.055Z" fill="#D4C6FA" fill-opacity="0.04"/>
<path d="M158.11 218.135L249.331 218.135L249.331 309.355L158.11 309.355L158.11 218.135Z" fill="#D4C6FA" fill-opacity="0.04"/>
<path d="M613.003 307.615L704.223 307.615L704.223 398.836L613.003 398.836L613.003 307.615Z" fill="#D4C6FA" fill-opacity="0.12"/>
<path d="M884.84 491.881L976.06 491.881L976.06 583.101L884.84 583.101L884.84 491.881Z" fill="#D4C6FA" fill-opacity="0.04"/>
<rect x="800.917" y="393.361" width="12.7709" height="12.7709" transform="rotate(90 800.917 393.361)" fill="#D4C6FA" fill-opacity="0.38"/>
<rect x="255.418" y="28.4783" width="12.7709" height="12.7709" transform="rotate(90 255.418 28.4783)" fill="#D4C6FA" fill-opacity="0.38"/>
<rect x="618.475" y="119.699" width="12.7709" height="12.7709" transform="rotate(90 618.475 119.699)" fill="#D4C6FA" fill-opacity="0.38"/>
<rect x="892.137" y="28.4785" width="12.7709" height="12.7709" transform="rotate(90 892.137 28.4785)" fill="#D4C6FA" fill-opacity="0.38"/>
<rect x="437.859" y="393.361" width="12.7709" height="12.7709" transform="rotate(90 437.859 393.361)" fill="#D4C6FA" fill-opacity="0.38"/>
</g>
</g>
</svg>