<svg width="39" height="35" viewBox="0 0 39 35" fill="none" xmlns="http://www.w3.org/2000/svg">
<path d="M17.5001 12.7275C16.5739 12.7275 15.6605 12.9432 14.8321 13.3574C14.0037 13.7716 13.2831 14.373 12.7274 15.1139C11.9761 14.1122 10.9287 13.3723 9.7335 12.9989C8.53832 12.6256 7.25596 12.6377 6.06808 13.0337C4.88019 13.4297 3.84701 14.1893 3.11487 15.2051C2.38273 16.2209 1.98875 17.4413 1.98875 18.6934C1.98875 25.8426 11.922 31.4804 12.3396 31.719C12.4579 31.7855 12.5917 31.8198 12.7274 31.8184C12.8632 31.8208 12.9972 31.7864 13.1152 31.719C14.9444 30.6496 16.6602 29.397 18.2359 27.9804C21.7061 24.8582 23.466 21.7361 23.466 18.6934C23.466 17.1112 22.8375 15.5937 21.7187 14.4749C20.5998 13.3561 19.0824 12.7275 17.5001 12.7275Z" fill="#FA5248"/>
<path d="M34.2045 1.59082C33.7414 1.59082 33.2847 1.69864 32.8705 1.90574C32.4563 2.11284 32.096 2.41353 31.8181 2.784C31.4425 2.28315 30.9188 1.91318 30.3212 1.7265C29.7236 1.53983 29.0824 1.54592 28.4885 1.7439C27.8945 1.94188 27.3779 2.32172 27.0119 2.82961C26.6458 3.3375 26.4488 3.9477 26.4488 4.57377C26.4488 8.14835 31.4154 10.9672 31.6242 11.0866C31.6834 11.1198 31.7503 11.137 31.8181 11.1363C31.8861 11.1374 31.953 11.1203 32.012 11.0866C32.9267 10.5519 33.7845 9.92553 34.5724 9.21724C36.3075 7.65616 37.1875 6.09508 37.1875 4.57377C37.1875 3.78265 36.8732 3.02392 36.3138 2.46451C35.7544 1.90509 34.9956 1.59082 34.2045 1.59082Z" fill="#FA5248"/>
</svg>
