<svg width="117" height="112" viewBox="0 0 117 112" fill="none" xmlns="http://www.w3.org/2000/svg">
<g clip-path="url(#clip0_102_37)">
<rect x="29.6162" y="34.0674" width="87.3838" height="79.9595" fill="white" fill-opacity="0.5"/>
<path d="M41.2071 48.8893L39.1895 51.9746L49.2754 58.5704L51.2931 55.4851L41.2071 48.8893Z" fill="white"/>
<path d="M40.9825 53.9553C43.0876 53.9553 44.7942 52.2488 44.7942 50.1437C44.7942 48.0386 43.0876 46.332 40.9825 46.332C38.8774 46.332 37.1709 48.0386 37.1709 50.1437C37.1709 52.2488 38.8774 53.9553 40.9825 53.9553Z" fill="url(#paint0_linear_102_37)"/>
<path d="M47.9148 59.0943C49.6433 59.0943 51.0445 57.6931 51.0445 55.9646C51.0445 54.2362 49.6433 52.835 47.9148 52.835C46.1864 52.835 44.7852 54.2362 44.7852 55.9646C44.7852 57.6931 46.1864 59.0943 47.9148 59.0943Z" fill="url(#paint1_linear_102_37)"/>
<path d="M47.7633 40.94C50.415 40.94 52.5646 37.9191 52.5646 34.1927C52.5646 30.4662 50.415 27.4453 47.7633 27.4453C45.1116 27.4453 42.9619 30.4662 42.9619 34.1927C42.9619 37.9191 45.1116 40.94 47.7633 40.94Z" fill="url(#paint2_linear_102_37)"/>
<path d="M33.0888 17.8438H24.052C14.786 17.8438 7.27441 25.3553 7.27441 34.6214V34.6215C7.27441 39.5659 11.2827 43.5742 16.2271 43.5742H40.9138C45.8582 43.5742 49.8665 39.5659 49.8665 34.6215C49.8665 25.3554 42.3549 17.8438 33.0888 17.8438Z" fill="url(#paint3_linear_102_37)"/>
<path d="M31.5035 61.9178H25.6407C19.6292 61.9178 14.7559 57.0444 14.7559 51.0329V51.0328C14.7559 47.825 17.3563 45.2246 20.5641 45.2246H36.5801C39.7879 45.2246 42.3883 47.8251 42.3883 51.0328C42.3884 57.0444 37.515 61.9178 31.5035 61.9178Z" fill="url(#paint4_linear_102_37)"/>
<path d="M41.2925 39.9526H24.1148C21.7868 39.9526 19.877 38.1682 19.877 35.9671V32.5918C19.877 30.3907 21.7868 28.6673 24.1148 28.7416L41.2925 29.2896C43.3715 29.3559 45.038 31.0672 45.038 33.1126V36.2491C45.038 38.2945 43.3715 39.9526 41.2925 39.9526Z" fill="url(#paint5_linear_102_37)"/>
<path d="M29.6161 34.094C29.6161 35.564 28.3647 36.7399 26.8086 36.7202C25.2384 36.7004 23.9551 35.473 23.9551 33.979C23.9551 32.4849 25.2384 31.3097 26.8086 31.3537C28.3647 31.3974 29.6161 32.6241 29.6161 34.094Z" fill="white"/>
<path d="M41.2248 34.3284C41.2248 35.7491 40.0562 36.886 38.6034 36.8676C37.1379 36.8491 35.9404 35.6641 35.9404 34.221C35.9404 32.7779 37.1379 31.6417 38.6034 31.6827C40.0562 31.7234 41.2248 32.9078 41.2248 34.3284Z" fill="white"/>
<path opacity="0.3" d="M34.8042 41.2212C32.2494 38.2195 33.3847 35.8189 30.0447 31.7512C25.4492 26.1542 20.0882 26.7876 18.8602 22.9914C18.52 21.9396 18.4809 20.4958 19.3936 18.5C12.3941 20.519 7.27441 26.9721 7.27441 34.6217V34.6218C7.27441 39.5663 11.2826 43.5745 16.227 43.5745H37.7412C36.4526 42.872 35.5108 42.0515 34.8042 41.2212Z" fill="white"/>
<path d="M9.69004 40.8941C12.3418 40.8941 14.4914 37.8732 14.4914 34.1468C14.4914 30.4203 12.3418 27.3994 9.69004 27.3994C7.03832 27.3994 4.88867 30.4203 4.88867 34.1468C4.88867 37.8732 7.03832 40.8941 9.69004 40.8941Z" fill="url(#paint6_linear_102_37)"/>
<path d="M5.89157 37.1002C7.05114 37.1002 7.99115 35.7792 7.99115 34.1497C7.99115 32.5202 7.05114 31.1992 5.89157 31.1992C4.73201 31.1992 3.79199 32.5202 3.79199 34.1497C3.79199 35.7792 4.73201 37.1002 5.89157 37.1002Z" fill="url(#paint7_linear_102_37)"/>
<path opacity="0.4" d="M32.9474 55.9254C32.143 52.1479 23.2458 52.239 23.0039 49.7699C22.8173 47.8665 27.9256 45.982 28.5675 45.7452C29.1165 45.5426 29.6614 45.3712 30.2009 45.2246H20.5641C17.3563 45.2246 14.7559 47.825 14.7559 51.0328V51.0329C14.7559 57.0444 19.6291 61.9178 25.6406 61.9178H31.5035C32.0668 61.9178 32.6201 61.8749 33.1604 61.7924C32.6502 61.16 32.3175 60.4684 32.237 59.7134C32.0587 58.04 33.259 57.3892 32.9474 55.9254Z" fill="url(#paint8_linear_102_37)"/>
<path d="M28.7164 46.6728C33.8302 46.6728 37.9757 46.1709 37.9757 45.5517C37.9757 44.9326 33.8302 44.4307 28.7164 44.4307C23.6026 44.4307 19.457 44.9326 19.457 45.5517C19.457 46.1709 23.6026 46.6728 28.7164 46.6728Z" fill="url(#paint9_linear_102_37)"/>
<path d="M16.8243 48.8893L14.8066 51.9746L24.8926 58.5704L26.9103 55.4851L16.8243 48.8893Z" fill="white"/>
<path d="M16.6007 53.9553C18.7058 53.9553 20.4123 52.2488 20.4123 50.1437C20.4123 48.0386 18.7058 46.332 16.6007 46.332C14.4956 46.332 12.7891 48.0386 12.7891 50.1437C12.7891 52.2488 14.4956 53.9553 16.6007 53.9553Z" fill="url(#paint10_linear_102_37)"/>
<path d="M25.307 54.9238H34.1355L33.7851 58.5769L25.1318 58.2871L25.307 54.9238Z" fill="white"/>
<path d="M23.533 59.0953C25.2615 59.0953 26.6627 57.6941 26.6627 55.9656C26.6627 54.2371 25.2615 52.8359 23.533 52.8359C21.8045 52.8359 20.4033 54.2371 20.4033 55.9656C20.4033 57.6941 21.8045 59.0953 23.533 59.0953Z" fill="url(#paint11_linear_102_37)"/>
<path d="M34.9063 54.8189C34.3713 54.5194 33.6159 54.3086 32.5527 54.3474C32.0478 54.3658 31.6306 54.7493 31.5715 55.251L31.2637 57.8631H35.818L35.9667 57.2389C36.1935 56.2863 35.7608 55.2973 34.9063 54.8189Z" fill="url(#paint12_linear_102_37)"/>
<path d="M42.948 57.9304L26.5185 57.6466C26.2924 57.6427 26.0788 57.75 25.9469 57.9336L25.4458 58.631C25.1963 58.9782 25.4365 59.463 25.8639 59.4749L43.2546 59.9589L42.948 57.9304Z" fill="url(#paint13_linear_102_37)"/>
<path d="M60.5845 49.9338L43.6436 49.1451C43.1424 49.1217 42.6659 49.3642 42.3898 49.7832L35.8506 59.7047L53.7663 60.172C54.2581 60.1848 54.7231 59.9487 55.003 59.5442L61.0298 50.8338C61.2864 50.463 61.0349 49.9548 60.5845 49.9338Z" fill="url(#paint14_linear_102_37)"/>
<path opacity="0.3" d="M42.3897 49.7832C42.6659 49.3642 43.1424 49.1217 43.6436 49.1451L44.0148 49.1624C44.0341 49.7123 44.1687 50.2229 44.4763 50.6483C45.4364 51.9764 47.221 51.3141 48.425 52.732C49.7475 54.2896 48.3215 55.9457 49.5004 57.392C50.7412 58.9142 52.9779 57.8891 55.3999 58.9707L55.003 59.5442C54.7232 59.9488 54.2581 60.1849 53.7664 60.172L35.8506 59.7047L42.3897 49.7832Z" fill="url(#paint15_linear_102_37)"/>
<path d="M75.7144 43.5478C75.7144 43.5478 75.3205 42.216 74.6451 42.1785C73.9698 42.141 71.4186 41.0904 71.7188 41.6907C72.0189 42.291 73.0728 42.5269 73.0728 42.5269C73.0728 42.5269 72.5628 43.7042 73.7044 43.9981C74.8459 44.2919 77.2381 45.6673 75.7144 43.5478Z" fill="url(#paint16_linear_102_37)"/>
<path d="M75.8524 43.1045C75.5393 43.8013 75.2262 44.4979 74.9131 45.1947C75.5522 46.3884 76.5846 48.0222 78.1937 49.6612C78.9035 50.3841 81.0819 52.4894 84.4227 53.9232C88.9703 55.8749 96.8747 57.0983 98.6162 53.9477C100.17 51.1364 96.105 46.1303 95.3605 45.2339C94.2714 45.9793 95.4848 44.2395 89.9902 47.6088C89.2834 48.0422 87.0793 48.275 84.5654 47.9302C79.9128 47.2921 76.8927 44.2584 75.8524 43.1045Z" fill="url(#paint17_linear_102_37)"/>
<path d="M95.2126 105.523C95.2126 105.523 95.3971 106.653 95.3736 107.055C95.3502 107.457 90.8887 107.662 90.8437 107.361C90.7986 107.06 91.5811 106.581 92.1319 106.412C92.6826 106.243 94.2947 105.792 94.2947 105.792L95.2126 105.523Z" fill="url(#paint18_linear_102_37)"/>
<path d="M94.1289 104.397L94.2712 105.802C94.2712 105.802 94.7895 106.144 95.246 105.88L95.4745 104.351L94.1289 104.397Z" fill="url(#paint19_linear_102_37)"/>
<path d="M103.172 107.356C103.172 107.356 103.357 108.486 103.334 108.888C103.31 109.29 98.8486 109.496 98.8036 109.195C98.7585 108.893 99.5411 108.414 100.092 108.245C100.643 108.076 102.255 107.625 102.255 107.625L103.172 107.356Z" fill="url(#paint20_linear_102_37)"/>
<path d="M102.088 106.231L102.23 107.635C102.23 107.635 102.748 107.978 103.205 107.713L103.433 106.185L102.088 106.231Z" fill="url(#paint21_linear_102_37)"/>
<path d="M94.9387 67.726C94.423 68.7715 93.9073 69.817 93.3916 70.8625C92.9769 76.829 92.7708 83.3168 92.9031 90.2552C93.0016 95.4173 93.2775 100.307 93.6738 104.898C94.373 104.866 95.0722 104.833 95.7714 104.801C96.7825 102.795 97.976 99.7546 98.0858 96.0018C98.2005 92.0873 97.0137 91.5676 97.0889 87.8196C97.1865 82.9617 99.2236 81.6657 100.309 75.8224C100.724 73.5877 101.003 70.669 100.671 67.1279C98.7603 67.3273 96.8495 67.5268 94.9387 67.726Z" fill="url(#paint22_linear_102_37)"/>
<path opacity="0.3" d="M100.673 67.1279C99.6409 67.2355 98.6089 67.3432 97.5769 67.451C95.7193 70.6836 95.2007 74.0483 95.5267 75.5365C95.9878 77.6422 97.2078 78.3167 97.1407 80.4309C97.0744 82.5228 95.8419 83.0652 95.0601 85.5307C94.5189 87.2378 94.6617 88.8073 94.9696 91.8767C95.5897 98.0595 97.0826 99.9502 95.8321 101.977C95.4767 102.553 94.8365 103.239 93.582 103.763C93.6127 104.142 93.6429 104.522 93.6754 104.898C94.3745 104.866 95.0738 104.833 95.773 104.801C96.7841 102.794 97.9776 99.7546 98.0874 96.0018C98.2021 92.0873 97.0153 91.5674 97.0905 87.8195C97.1881 82.9617 99.2251 81.6657 100.31 75.8224C100.726 73.5878 101.005 70.6691 100.673 67.1279Z" fill="url(#paint23_linear_102_37)"/>
<path d="M97.7129 69.6123C98.6809 74.891 99.536 80.5406 100.203 86.5322C101.009 93.7665 101.439 100.587 101.608 106.919C102.375 106.941 103.142 106.962 103.91 106.984C106.934 101.002 107.119 96.9455 106.683 94.3047C106.515 93.2871 106.058 91.2917 105.954 88.3096C105.882 86.2309 106.014 84.6489 106.18 82.7472C106.543 78.5775 106.984 77.6673 107.047 74.4779C107.107 71.4847 107.119 69.9702 106.265 69.0862C104.013 66.7573 98.1572 69.4062 97.7129 69.6123Z" fill="url(#paint24_linear_102_37)"/>
<path d="M92.8065 71.9334C92.0712 70.7134 92.9948 69.5366 93.205 67.2251C93.4433 64.6052 92.434 64.169 91.4359 59.8273C90.7721 56.9398 90.135 54.1677 90.8955 50.9229C91.26 49.3677 91.8782 46.7302 94.0611 45.4561C95.1876 44.7986 96.7257 44.8644 99.7558 45.023C103.503 45.2189 105.376 45.3168 106.774 46.0527C106.978 46.1604 111.229 48.4726 111.522 52.2414C111.82 56.0773 107.642 56.5929 107.085 61.7083C106.835 64.0047 107.281 67.5365 107.57 69.8273C107.847 72.0268 108.038 72.59 107.604 73.2559C106.558 74.861 103.355 74.4035 96.9494 73.4888C94.4367 73.1299 93.3552 72.8439 92.8065 71.9334Z" fill="url(#paint25_linear_102_37)"/>
<path opacity="0.3" d="M102.549 60.889C102.82 61.886 103.794 62.6307 104.472 65.0557C104.619 65.5794 105.661 69.3079 104.309 70.2258C103.528 70.7558 102.826 69.7515 100.93 69.6204C97.6442 69.3931 96.0789 72.1547 93.9325 71.4006C93.5601 71.2695 93.0684 70.9906 92.5775 70.3496C92.4798 70.9273 92.4966 71.429 92.8027 71.937C93.3514 72.8475 94.4329 73.1335 96.9456 73.4924C103.351 74.4071 106.554 74.8646 107.601 73.2595C108.035 72.5936 107.844 72.0304 107.566 69.8309C107.277 67.5401 106.831 64.0083 107.081 61.7119C107.638 56.5965 111.816 56.0809 111.518 52.245C111.438 51.2196 111.061 50.3065 110.557 49.5117C105.257 51.6561 101.698 57.756 102.549 60.889Z" fill="url(#paint26_linear_102_37)"/>
<path d="M109.243 68.4328L108.182 69.1098C107.992 68.89 107.551 68.4465 106.863 68.2951C106.088 68.1246 105.198 68.369 105.177 68.6165C105.161 68.8148 105.702 69.0147 105.786 69.0456C106.463 69.2953 106.965 69.0879 107.238 69.3599C107.335 69.4561 107.455 69.6349 107.733 69.8006C107.805 69.8442 107.882 69.8826 107.922 69.8984C108.373 70.0739 109.148 69.2879 109.215 69.2193L109.243 68.4328Z" fill="url(#paint27_linear_102_37)"/>
<path d="M106.11 54.5257C105.343 52.6887 104.812 49.8761 106.024 45.6992C114.006 48.8446 118.077 56.3011 116.487 62.2121C115.177 67.0849 110.41 69.4584 109.346 69.9577C109.099 69.3945 108.851 68.8314 108.604 68.2682C109.836 66.8958 111.225 64.8665 111.029 62.5508C110.756 59.3405 107.663 58.2448 106.11 54.5257Z" fill="url(#paint28_linear_102_37)"/>
<path d="M99.9519 41.2451C99.9519 41.2451 100.015 42.6415 100.448 43.6872C100.84 44.6323 102.9 45.2264 103.318 45.4374C103.736 45.6483 102.536 46.265 101.33 46.3862C100.125 46.5073 96.6837 46.2337 96.0633 45.7768C95.4429 45.32 96.5619 45.3543 97.4221 45.0385C98.2822 44.7227 98.7796 43.0404 98.6277 42.2769C98.476 41.5132 99.9519 41.2451 99.9519 41.2451Z" fill="url(#paint29_linear_102_37)"/>
<path d="M98.0453 40.7387C97.42 40.1243 97.3327 40.0526 97.2646 39.8402C96.9913 38.9879 97.6524 37.8206 98.5196 37.5332C98.5647 37.5183 99.1462 37.3321 99.3682 37.5845C99.5567 37.7987 99.2794 38.0946 99.4112 38.5075C99.5348 38.8941 99.8699 38.923 100.491 39.43C101.003 39.8475 101.321 40.107 101.394 40.4722C101.545 41.2249 100.634 42.3157 99.8274 42.2861C99.5373 42.2753 99.4584 42.1271 98.0453 40.7387Z" fill="url(#paint30_linear_102_37)"/>
<path d="M99.7475 42.3997C99.7475 42.3997 99.0828 43.1523 98.0702 42.9036C97.1636 42.6808 97.3949 40.6 98.0584 40.2676C98.2797 40.1568 98.6819 40.1659 98.9844 40.3117C99.1631 40.3978 99.2127 40.4872 99.5074 40.6223C99.7791 40.7467 99.8653 40.7295 99.9383 40.8172C100.03 40.9268 100.069 41.1627 99.7826 41.7322C99.9892 41.5861 100.211 41.5555 100.348 41.6522C100.369 41.6676 100.425 41.7217 100.449 41.7929C100.535 42.0506 100.267 42.3125 99.7475 42.3997Z" fill="url(#paint31_linear_102_37)"/>
<path d="M61.0992 61.0604C61.0992 61.0604 60.5405 59.9103 60.1572 59.7569C59.7738 59.6036 58.4264 58.2781 58.5031 58.8915C58.5798 59.5049 59.4999 59.9103 59.3028 60.2608C59.1057 60.6114 59.9381 61.5862 60.6282 61.7287C61.3183 61.871 61.0992 61.0604 61.0992 61.0604Z" fill="url(#paint32_linear_102_37)"/>
<path d="M78.688 106.841C78.688 106.841 78.7873 107.631 78.7207 107.896C78.6539 108.161 76.3552 108.353 75.5749 108.26C74.7947 108.168 76.0397 107.371 76.5369 107.222C77.0339 107.072 78.688 106.841 78.688 106.841Z" fill="url(#paint33_linear_102_37)"/>
<path d="M77.5273 105.521L77.7696 107.107C77.7696 107.107 78.3874 107.385 78.6844 107.11L78.7171 105.45L77.5273 105.521Z" fill="url(#paint34_linear_102_37)"/>
<path d="M90.4872 105.451C90.4872 105.451 89.9994 105.813 90.1295 106.246C90.2595 106.679 91.3976 108.416 92.2086 108.909C93.0197 109.402 92.7654 108.375 92.5295 107.736C92.2934 107.096 91.6903 105.687 91.4549 105.451C91.2195 105.214 90.4872 105.451 90.4872 105.451Z" fill="url(#paint35_linear_102_37)"/>
<path d="M89.6133 103.705C89.849 104.362 90.0758 104.903 90.2532 105.301C90.6457 106.183 90.8602 106.514 91.103 106.8C91.315 107.05 91.8165 107.583 91.9512 107.495C92.0882 107.405 91.7211 106.757 91.014 104.858C90.9112 104.583 90.5869 103.705 90.5869 103.705H89.6133Z" fill="url(#paint36_linear_102_37)"/>
<path d="M72.7177 76.2426C72.5495 77.8945 72.3881 80.4584 72.6294 83.5701C72.9439 87.6242 73.7545 90.1896 74.7711 94.5123C75.3925 97.154 76.2297 101.042 76.9872 105.905C77.163 106.005 77.6802 106.27 78.346 106.171C78.7187 106.116 78.9976 105.968 79.1622 105.861C81.15 99.7872 80.5629 96.0232 79.6036 93.6781C79.1948 92.6785 78.699 91.89 78.4341 90.3534C78.0834 88.3205 78.5169 87.184 79.1352 82.475C79.5758 79.1187 79.4996 78.5998 79.2064 78.0965C78.0344 76.084 74.4496 76.1233 72.7177 76.2426Z" fill="url(#paint37_linear_102_37)"/>
<path d="M79.5596 76.9521C80.7773 83.2406 81.9724 86.5435 82.8768 88.4116C83.0999 88.8722 83.8441 90.3586 84.5475 92.4895C85.1703 94.3757 85.4298 95.7632 85.5627 96.374C85.9826 98.3016 87.0201 101.116 89.8119 104.808C89.8467 104.828 90.3227 105.097 90.7778 104.857C91.0081 104.736 91.123 104.542 91.1686 104.452C90.8036 100.922 90.3847 97.9565 90.021 95.6676C89.9446 95.1875 89.6086 93.0872 89.0816 90.3121C88.8754 89.2262 88.5732 87.635 88.2112 86.0007C87.7605 83.9655 87.0693 81.1967 86.0041 77.879C83.856 77.57 81.7078 77.2612 79.5596 76.9521Z" fill="url(#paint38_linear_102_37)"/>
<path d="M60.209 61.5755C60.4839 61.2533 60.7588 60.9311 61.0337 60.6089C61.1646 60.709 63.0649 62.1103 65.3362 61.2908C66.9001 60.7264 67.6459 59.2746 68.124 58.3475C69.5602 55.563 68.2329 53.85 69.9189 51.8595C70.3872 51.3068 71.3554 50.5819 72.0655 50.6636C73.7574 50.8582 75.379 55.6403 74.3337 59.7236C74.1227 60.5478 72.961 65.0859 69.0395 66.1037C65.8733 66.9256 62.1462 65.1312 60.209 61.5755Z" fill="url(#paint39_linear_102_37)"/>
<path d="M78.5226 52.0782C77.832 51.4399 76.5108 50.704 75.8482 48.9933C75.6487 48.4785 74.9421 46.654 75.9845 45.2584C76.6032 44.43 77.7525 43.8674 78.7654 44.0666C79.631 44.2368 79.7663 44.8397 81.2372 46.053C81.8097 46.5253 82.73 47.2844 83.7542 47.7064C85.509 48.4295 86.5632 47.7491 88.3249 47.8267C90.4892 47.9221 93.0034 49.1299 94.2146 50.8864C96.3646 54.0038 93.2502 57.1661 95.6051 60.8181C96.3767 62.0145 96.757 61.7463 98.5846 64.0624C100.415 66.3816 101.33 67.541 101.167 68.9621C100.941 70.9342 98.8167 72.8181 96.8164 72.946C94.8625 73.0712 93.6203 71.5339 92.6256 72.2064C91.9175 72.6848 92.3223 73.6157 91.5704 74.7343C90.601 76.1765 88.6957 76.4639 88.388 76.5101C85.5319 76.941 81.681 73.5919 80.0453 69.6242C77.0961 62.4693 82.2769 55.5486 78.5226 52.0782Z" fill="url(#paint40_linear_102_37)"/>
<path opacity="0.3" d="M79.6004 93.681C79.1915 92.6814 78.6958 91.8927 78.4308 90.3562C78.0801 88.3233 78.5137 87.1869 79.132 82.4779C79.5726 79.1216 79.4963 78.6027 79.2031 78.0994C78.5663 77.0057 77.2164 76.5205 75.839 76.3223C75.8574 76.3929 75.876 76.4637 75.8909 76.532C76.6137 79.8326 73.8553 81.8466 75.0995 85.4748C75.713 87.2636 76.6917 87.6734 76.9197 89.7484C77.1333 91.6921 76.3585 92.097 76.5241 93.8637C76.7714 96.5045 78.6475 97.1437 79.1357 99.166C79.4529 100.48 79.1858 102.402 76.869 105.183C76.9075 105.423 76.9459 105.663 76.984 105.908C77.1599 106.008 77.6769 106.273 78.3428 106.174C78.7155 106.119 78.9944 105.971 79.159 105.864C81.1467 99.79 80.5596 96.026 79.6004 93.681Z" fill="url(#paint41_linear_102_37)"/>
<path opacity="0.3" d="M72.3518 55.4218C69.7284 58.1571 70.6751 62.5745 68.8955 63.0518C68.3519 63.1976 68.3235 62.7693 66.9446 62.5233C64.9279 62.1635 64.1091 62.9229 62.6855 62.6344C62.0959 62.5149 61.3061 62.1947 60.4479 61.2995C60.3683 61.3928 60.2886 61.4862 60.209 61.5796C62.1462 65.1353 65.8733 66.9297 69.0395 66.1078C72.961 65.0899 74.1227 60.5519 74.3337 59.7277C74.8242 57.8118 74.7274 55.742 74.3118 54.0645C73.6593 54.3572 72.9653 54.782 72.3518 55.4218Z" fill="url(#paint42_linear_102_37)"/>
<path d="M70.1715 51.6049C70.3537 51.3217 70.9332 50.5374 73.3921 49.9593C74.274 49.7519 75.6915 49.4388 77.501 49.5052C77.8043 49.5163 78.7817 49.5662 79.8351 49.7945C82.0802 50.281 86.5559 51.9904 86.7119 54.319C86.8233 55.9819 84.6061 56.0888 83.3517 59.0325C82.4378 61.1773 82.4438 63.8566 83.4408 65.9407C84.2409 67.6134 85.6564 68.869 86.7314 69.8229C88.3439 71.2534 89.179 71.4732 89.7196 72.7548C90.3083 74.1504 89.715 74.8309 90.4462 75.7863C91.2313 76.8123 92.1513 76.3354 93.4821 77.373C94.8453 78.4358 94.3602 79.3105 95.6008 80.4851C97.4036 82.1915 99.7933 81.6373 99.9046 82.4052C100 83.0657 98.3019 83.9619 96.8589 84.3253C94.0012 85.045 91.5086 83.8369 90.7675 83.4645C88.7153 82.4335 89.0698 81.7663 87.5051 80.9803C84.8853 79.6643 83.0949 81.1287 77.1279 81.2795C73.8965 81.3613 72.2627 81.3797 71.3675 80.2864C70.55 79.2877 70.9798 78.1924 71.4704 73.4717C71.4704 73.4717 71.4704 73.4716 71.4704 73.4712C71.628 71.8947 71.9581 68.5938 71.9601 66.7128C71.9613 65.6011 71.5758 63.7847 70.8047 60.152C70.7592 59.9378 70.3419 57.9752 70.0047 55.3534C69.701 52.9925 69.7451 52.2676 70.1715 51.6049Z" fill="url(#paint43_linear_102_37)"/>
<g opacity="0.3">
<path d="M95.6044 80.4878C94.3638 79.3133 94.849 78.4386 93.4857 77.3758C92.1548 76.3382 91.2349 76.8151 90.4497 75.789C89.7186 74.8336 90.3119 74.1531 89.7232 72.7576C89.1826 71.4759 88.3475 71.2562 86.735 69.8256C85.66 68.8717 84.2445 67.6161 83.4443 65.9435C82.0555 63.0408 83.0265 59.9417 83.3553 59.0353C84.4117 56.1216 86.5448 54.5859 87.3179 54.0825C87.2435 54.0024 83.6322 57.2172 83.5383 57.1211C78.4455 57.8209 78.9995 57.4575 78.6323 58.3289C77.7833 60.3431 79.1273 61.0832 79.162 66.8924C79.1785 69.6691 78.879 70.7655 79.7799 71.9245C80.8103 73.25 81.9978 72.8398 83.4878 74.5729C84.6326 75.9044 84.4493 76.7486 85.5183 77.3096C86.6678 77.9127 87.4 77.2098 88.6964 77.4863C90.8624 77.9482 91.3255 80.4457 92.7574 81.812C93.8402 82.8452 95.8421 83.5676 99.7904 82.7922C99.8817 82.6593 99.9259 82.5295 99.9082 82.4079C99.7969 81.64 97.4072 82.1942 95.6044 80.4878Z" fill="url(#paint44_linear_102_37)"/>
</g>
<path d="M78.186 46.6465C78.186 46.6465 78.4428 48.6998 79.2006 49.1702C79.9585 49.6404 81.1837 50.2549 81.3186 50.4218C81.4536 50.5884 76.6239 51.1077 74.2305 49.8999C75.0192 49.7355 75.2336 49.6749 75.2336 49.6749C75.4477 49.6144 75.847 49.5019 76.2473 49.2737C76.5198 49.1186 76.959 48.8155 77.3619 48.243L77.3531 47.1061L78.186 46.6465Z" fill="url(#paint45_linear_102_37)"/>
<path d="M78.252 47.2786C78.252 47.2786 78.2375 48.1175 77.441 48.3317C76.7278 48.5236 76.0364 46.8192 76.3692 46.3355C76.4803 46.1743 76.7734 46.0051 77.0386 45.9906C77.2251 45.9804 77.8737 46.1673 78.0138 46.7888C78.1281 46.6465 78.2808 46.5955 78.3623 46.6444C78.4657 46.7062 78.4305 46.9143 78.4225 46.9613C78.3949 47.1247 78.2988 47.2325 78.252 47.2786Z" fill="url(#paint46_linear_102_37)"/>
<path d="M83.4484 82.4759C83.4484 82.5803 83.3637 82.665 83.2593 82.665C83.155 82.665 83.0703 82.5803 83.0703 82.4759V81.5308C83.0703 81.4264 83.155 81.3418 83.2593 81.3418C83.3637 81.3418 83.4484 81.4264 83.4484 81.5308V82.4759Z" fill="url(#paint47_linear_102_37)"/>
<path d="M88.7404 82.4759C88.7404 82.5803 88.6558 82.665 88.5513 82.665C88.447 82.665 88.3623 82.5803 88.3623 82.4759V81.5308C88.3623 81.4264 88.447 81.3418 88.5513 81.3418C88.6557 81.3418 88.7404 81.4264 88.7404 81.5308V82.4759Z" fill="url(#paint48_linear_102_37)"/>
<path d="M89.4936 81.1525C89.4936 81.3613 89.3243 81.5306 89.1155 81.5306H82.6886C82.4798 81.5306 82.3105 81.3613 82.3105 81.1525C82.3105 80.9437 82.4798 80.7744 82.6886 80.7744H89.1155C89.3243 80.7744 89.4936 80.9437 89.4936 81.1525Z" fill="url(#paint49_linear_102_37)"/>
<path d="M80.6092 84.3208C80.6092 84.5554 80.4191 84.7455 80.1845 84.7455H80.0888C79.8542 84.7455 79.6641 84.5554 79.6641 84.3208V71.9384C79.6641 71.7038 79.8542 71.5137 80.0888 71.5137H80.1845C80.4191 71.5137 80.6092 71.7038 80.6092 71.9384V84.3208Z" fill="url(#paint50_linear_102_37)"/>
<path d="M92.1414 84.3208C92.1414 84.5554 91.9512 84.7455 91.7167 84.7455H91.621C91.3864 84.7455 91.1963 84.5554 91.1963 84.3208V71.9384C91.1963 71.7038 91.3864 71.5137 91.621 71.5137H91.7167C91.9512 71.5137 92.1414 71.7038 92.1414 71.9384V84.3208Z" fill="url(#paint51_linear_102_37)"/>
<path d="M92.8601 71.2285C92.8601 71.6977 92.392 72.0792 91.8146 72.0792H80.0533C79.4759 72.0792 79.0078 71.6977 79.0078 71.2285C79.0078 70.7594 79.4759 70.3779 80.0533 70.3779H91.8146C92.392 70.3779 92.8601 70.7594 92.8601 71.2285Z" fill="url(#paint52_linear_102_37)"/>
<path d="M93.0103 109.19C93.0103 109.609 92.6702 109.949 92.2507 109.949H92.2225C91.803 109.949 91.4629 109.609 91.4629 109.19V108.001C91.4629 107.581 91.803 107.241 92.2225 107.241H92.2507C92.6702 107.241 93.0103 107.581 93.0103 108.001V109.19Z" fill="url(#paint53_linear_102_37)"/>
<path d="M92.9013 107.186C92.9013 107.529 92.6234 107.807 92.2806 107.807H92.1989C91.8561 107.807 91.5781 107.529 91.5781 107.186V106.726C91.5781 106.383 91.856 106.105 92.1989 106.105H92.2806C92.6234 106.105 92.9013 106.383 92.9013 106.726V107.186Z" fill="url(#paint54_linear_102_37)"/>
<path d="M80.4607 109.248C80.4607 109.681 80.1097 110.032 79.6767 110.032C79.2436 110.032 78.8926 109.681 78.8926 109.248V108.072C78.8926 107.639 79.2437 107.288 79.6767 107.288C80.1097 107.288 80.4607 107.639 80.4607 108.072V109.248Z" fill="url(#paint55_linear_102_37)"/>
<path d="M80.2362 107.186C80.2362 107.529 79.9583 107.807 79.6155 107.807H79.5338C79.191 107.807 78.9131 107.529 78.9131 107.186V106.726C78.9131 106.383 79.191 106.105 79.5338 106.105H79.6155C79.9583 106.105 80.2362 106.383 80.2362 106.726V107.186Z" fill="url(#paint56_linear_102_37)"/>
<path d="M95.5434 105.48C95.5434 106.346 94.8413 107.048 93.9753 107.048H77.8309C76.9648 107.048 76.2627 106.346 76.2627 105.48V83.8533C76.2627 82.9873 76.9648 82.2852 77.8309 82.2852H93.9753C94.8413 82.2852 95.5434 82.9873 95.5434 83.8533V105.48Z" fill="url(#paint57_linear_102_37)"/>
<path opacity="0.6" d="M80.8007 86.5793V102.915C80.8007 103.463 80.3985 103.929 79.9045 104.092C79.7817 104.134 79.6263 104.156 79.4891 104.156C79.4669 104.156 79.4343 104.156 79.4121 104.155C79.0958 104.138 78.7689 104.003 78.5585 103.793C78.3337 103.568 78.1543 103.257 78.1543 102.915V86.5793C78.1543 85.9154 78.7094 85.3731 79.3654 85.3392C79.3876 85.3379 79.4261 85.3379 79.4483 85.3379C79.5854 85.3379 79.7262 85.3601 79.849 85.4019C80.0346 85.462 80.2517 85.5666 80.3863 85.7012C80.611 85.9259 80.8007 86.2369 80.8007 86.5793Z" fill="url(#paint58_linear_102_37)"/>
<path opacity="0.6" d="M80.8022 86.5794V102.915C80.8022 103.463 80.4 103.929 79.906 104.092C79.7832 104.134 79.5719 104.156 79.4347 104.156C79.4124 104.156 79.29 104.156 79.29 104.155V85.3392C79.29 85.3379 79.3891 85.3379 79.4113 85.3379C79.5485 85.3379 79.7085 85.3601 79.8314 85.4019C80.0169 85.462 80.2436 85.5666 80.3782 85.7012C80.603 85.926 80.8022 86.237 80.8022 86.5794Z" fill="url(#paint59_linear_102_37)"/>
<path opacity="0.6" d="M85.1503 86.5793V102.915C85.1503 103.463 84.7306 103.929 84.2366 104.092C84.1137 104.134 83.9496 104.156 83.8124 104.156C83.7902 104.156 83.7532 104.156 83.731 104.155C83.4147 104.138 83.1031 104.003 82.8927 103.793C82.6679 103.568 82.5039 103.257 82.5039 102.915V86.5793C82.5039 85.9154 83.0415 85.3731 83.6975 85.3392C83.7197 85.3379 83.7493 85.3379 83.7715 85.3379C83.9087 85.3379 84.0451 85.3601 84.1679 85.4019C84.3535 85.462 84.5859 85.5666 84.7205 85.7012C84.9453 85.9259 85.1503 86.2369 85.1503 86.5793Z" fill="url(#paint60_linear_102_37)"/>
<path opacity="0.6" d="M85.1519 86.5794V102.915C85.1519 103.463 84.7322 103.929 84.2382 104.092C84.1153 104.134 83.9128 104.156 83.7756 104.156C83.7534 104.156 83.6396 104.156 83.6396 104.155V85.3392C83.6396 85.3379 83.7212 85.3379 83.7434 85.3379C83.8806 85.3379 84.0318 85.3601 84.1546 85.4019C84.3402 85.462 84.5801 85.5666 84.7147 85.7012C84.9395 85.926 85.1519 86.237 85.1519 86.5794Z" fill="url(#paint61_linear_102_37)"/>
<path opacity="0.6" d="M89.4989 86.5793V102.915C89.4989 103.463 89.0616 103.929 88.5676 104.092C88.4448 104.134 88.2718 104.156 88.1347 104.156C88.1125 104.156 88.0711 104.156 88.0488 104.155C87.7326 104.138 87.4363 104.003 87.226 103.793C87.0011 103.568 86.8525 103.257 86.8525 102.915V86.5793C86.8525 85.9154 87.3725 85.3731 88.0285 85.3392C88.0507 85.3379 88.0716 85.3379 88.0938 85.3379C88.231 85.3379 88.3629 85.3601 88.4858 85.4019C88.6713 85.462 88.9192 85.5666 89.0537 85.7012C89.2786 85.9259 89.4989 86.2369 89.4989 86.5793Z" fill="url(#paint62_linear_102_37)"/>
<path opacity="0.6" d="M89.4972 86.5794V102.915C89.4972 103.463 89.0599 103.929 88.5659 104.092C88.443 104.134 88.1547 104.156 88.0175 104.156C87.9953 104.156 87.9849 104.156 87.7959 104.155V85.3392C87.9849 85.3379 87.9544 85.3379 87.9766 85.3379C88.1138 85.3379 88.3035 85.3601 88.4263 85.4019C88.6119 85.462 88.8886 85.5666 89.0231 85.7012C89.248 85.926 89.4972 86.237 89.4972 86.5794Z" fill="url(#paint63_linear_102_37)"/>
<path opacity="0.6" d="M93.6546 86.5793V102.915C93.6546 103.463 93.2943 103.929 92.8003 104.092C92.6774 104.134 92.543 104.156 92.4058 104.156C92.3836 104.156 92.3614 104.156 92.3392 104.155C92.023 104.138 91.7539 104.003 91.5435 103.793C91.3187 103.568 91.1973 103.257 91.1973 102.915V86.5793C91.1973 85.9154 91.6997 85.3731 92.3557 85.3392C92.3779 85.3379 92.39 85.3379 92.4122 85.3379C92.5494 85.3379 92.6769 85.3601 92.7998 85.4019C92.9854 85.462 93.154 85.5666 93.2886 85.7012C93.5134 85.9259 93.6546 86.2369 93.6546 86.5793Z" fill="url(#paint64_linear_102_37)"/>
<path opacity="0.6" d="M93.6563 86.5794V102.915C93.6563 103.463 93.2959 103.929 92.8019 104.092C92.6791 104.134 92.5414 104.156 92.4041 104.156C92.3819 104.156 92.333 104.156 92.333 104.155V85.3392C92.333 85.3379 92.3794 85.3379 92.4016 85.3379C92.5388 85.3379 92.6725 85.3601 92.7953 85.4019C92.9809 85.462 93.1526 85.5666 93.2871 85.7012C93.512 85.926 93.6563 86.237 93.6563 86.5794Z" fill="url(#paint65_linear_102_37)"/>
<path d="M83.3503 51.001C84.8834 51.7604 89.7034 54.0389 90.755 60.6116C91.8066 67.1844 86.1979 70.6022 86.1979 70.6022L84.8834 69.7258C84.8834 69.7258 86.2856 59.4724 81.2903 56.5804C76.295 53.6884 83.3503 51.001 83.3503 51.001Z" fill="url(#paint66_linear_102_37)"/>
<path d="M85.1957 69.9364C84.8849 69.9922 84.7096 70.255 84.0085 69.9045C83.3074 69.5539 81.5547 69.9921 81.5547 69.9921C81.5547 69.9921 82.431 70.7808 83.395 70.6056C84.359 70.4303 85.2533 70.906 85.5073 70.9749C85.7612 71.0437 85.8487 70.3717 85.8487 70.3717L85.1957 69.9364Z" fill="url(#paint67_linear_102_37)"/>
<path d="M24.5552 -13.4473C20.6759 -9.69739 14.3913 -1.03389 20.2877 3.62109C26.184 8.27608 25.5895 15.9052 24.5552 19.1379" stroke="#FEBB46"/>
</g>
<defs>
<linearGradient id="paint0_linear_102_37" x1="37.1709" y1="50.1437" x2="44.7942" y2="50.1437" gradientUnits="userSpaceOnUse">
<stop stop-color="#40447E"/>
<stop offset="0.9964" stop-color="#3C3B6B"/>
</linearGradient>
<linearGradient id="paint1_linear_102_37" x1="44.7852" y1="55.9646" x2="51.0445" y2="55.9646" gradientUnits="userSpaceOnUse">
<stop stop-color="#40447E"/>
<stop offset="0.9964" stop-color="#3C3B6B"/>
</linearGradient>
<linearGradient id="paint2_linear_102_37" x1="42.9619" y1="34.1927" x2="52.5647" y2="34.1927" gradientUnits="userSpaceOnUse">
<stop stop-color="#FFC444"/>
<stop offset="0.9964" stop-color="#F36F56"/>
</linearGradient>
<linearGradient id="paint3_linear_102_37" x1="7.27444" y1="30.7089" x2="49.8665" y2="30.7089" gradientUnits="userSpaceOnUse">
<stop stop-color="#FCB148"/>
<stop offset="0.0521" stop-color="#FDBA46"/>
<stop offset="0.1424" stop-color="#FFC244"/>
<stop offset="0.3183" stop-color="#FFC444"/>
<stop offset="0.4849" stop-color="#FDB946"/>
<stop offset="0.7754" stop-color="#F99C4D"/>
<stop offset="0.8658" stop-color="#F8924F"/>
<stop offset="1" stop-color="#F8924F"/>
</linearGradient>
<linearGradient id="paint4_linear_102_37" x1="14.7559" y1="53.5712" x2="42.3884" y2="53.5712" gradientUnits="userSpaceOnUse">
<stop stop-color="#FCB148"/>
<stop offset="0.0521" stop-color="#FDBA46"/>
<stop offset="0.1424" stop-color="#FFC244"/>
<stop offset="0.3183" stop-color="#FFC444"/>
<stop offset="0.4849" stop-color="#FDB946"/>
<stop offset="0.7754" stop-color="#F99C4D"/>
<stop offset="0.8658" stop-color="#F8924F"/>
<stop offset="1" stop-color="#F8924F"/>
</linearGradient>
<linearGradient id="paint5_linear_102_37" x1="19.877" y1="34.3459" x2="45.038" y2="34.3459" gradientUnits="userSpaceOnUse">
<stop stop-color="#444B8C"/>
<stop offset="0.9964" stop-color="#26264F"/>
</linearGradient>
<linearGradient id="paint6_linear_102_37" x1="4.88868" y1="34.1468" x2="14.4914" y2="34.1468" gradientUnits="userSpaceOnUse">
<stop stop-color="#FFC444"/>
<stop offset="0.9964" stop-color="#F36F56"/>
</linearGradient>
<linearGradient id="paint7_linear_102_37" x1="3.79203" y1="34.1497" x2="7.99116" y2="34.1497" gradientUnits="userSpaceOnUse">
<stop stop-color="#FFC444"/>
<stop offset="0.9964" stop-color="#F36F56"/>
</linearGradient>
<linearGradient id="paint8_linear_102_37" x1="14.7559" y1="53.5712" x2="33.1604" y2="53.5712" gradientUnits="userSpaceOnUse">
<stop stop-color="#FCB148"/>
<stop offset="0.0521" stop-color="#FDBA46"/>
<stop offset="0.1424" stop-color="#FFC244"/>
<stop offset="0.3183" stop-color="#FFC444"/>
<stop offset="0.4849" stop-color="#FDB946"/>
<stop offset="0.7754" stop-color="#F99C4D"/>
<stop offset="0.8658" stop-color="#F8924F"/>
<stop offset="1" stop-color="#F8924F"/>
</linearGradient>
<linearGradient id="paint9_linear_102_37" x1="24.5731" y1="77.6076" x2="27.2357" y2="57.008" gradientUnits="userSpaceOnUse">
<stop stop-color="#FCB148"/>
<stop offset="0.0521" stop-color="#FDBA46"/>
<stop offset="0.1424" stop-color="#FFC244"/>
<stop offset="0.3183" stop-color="#FFC444"/>
<stop offset="0.3975" stop-color="#FEC045"/>
<stop offset="0.7095" stop-color="#FAA34B"/>
<stop offset="0.8658" stop-color="#F8924F"/>
<stop offset="1" stop-color="#F8924F"/>
</linearGradient>
<linearGradient id="paint10_linear_102_37" x1="12.7891" y1="50.1437" x2="20.4124" y2="50.1437" gradientUnits="userSpaceOnUse">
<stop stop-color="#40447E"/>
<stop offset="0.9964" stop-color="#3C3B6B"/>
</linearGradient>
<linearGradient id="paint11_linear_102_37" x1="20.4033" y1="55.9656" x2="26.6626" y2="55.9656" gradientUnits="userSpaceOnUse">
<stop stop-color="#40447E"/>
<stop offset="0.9964" stop-color="#3C3B6B"/>
</linearGradient>
<linearGradient id="paint12_linear_102_37" x1="31.2637" y1="56.1029" x2="36.0264" y2="56.1029" gradientUnits="userSpaceOnUse">
<stop stop-color="#40447E"/>
<stop offset="0.9964" stop-color="#3C3B6B"/>
</linearGradient>
<linearGradient id="paint13_linear_102_37" x1="25.3447" y1="58.8027" x2="43.2546" y2="58.8027" gradientUnits="userSpaceOnUse">
<stop stop-color="#AA80F9"/>
<stop offset="0.9964" stop-color="#6165D7"/>
</linearGradient>
<linearGradient id="paint14_linear_102_37" x1="35.8506" y1="54.658" x2="61.1327" y2="54.658" gradientUnits="userSpaceOnUse">
<stop stop-color="#AA80F9"/>
<stop offset="0.9964" stop-color="#6165D7"/>
</linearGradient>
<linearGradient id="paint15_linear_102_37" x1="35.8506" y1="54.658" x2="55.3999" y2="54.658" gradientUnits="userSpaceOnUse">
<stop stop-color="#AA80F9"/>
<stop offset="0.9964" stop-color="#6165D7"/>
</linearGradient>
<linearGradient id="paint16_linear_102_37" x1="71.7395" y1="36.8614" x2="75.0388" y2="46.0647" gradientUnits="userSpaceOnUse">
<stop stop-color="#FFC444"/>
<stop offset="0.9964" stop-color="#F36F56"/>
</linearGradient>
<linearGradient id="paint17_linear_102_37" x1="59.9233" y1="39.6762" x2="105.07" y2="54.6534" gradientUnits="userSpaceOnUse">
<stop stop-color="#FFC444"/>
<stop offset="0.9964" stop-color="#F36F56"/>
</linearGradient>
<linearGradient id="paint18_linear_102_37" x1="90.5048" y1="93.3457" x2="94.5782" y2="114.488" gradientUnits="userSpaceOnUse">
<stop stop-color="#311944"/>
<stop offset="1" stop-color="#893976"/>
</linearGradient>
<linearGradient id="paint19_linear_102_37" x1="94.4328" y1="108.378" x2="95.0751" y2="101.407" gradientUnits="userSpaceOnUse">
<stop stop-color="#FFC444"/>
<stop offset="0.9964" stop-color="#F36F56"/>
</linearGradient>
<linearGradient id="paint20_linear_102_37" x1="97.8396" y1="91.9345" x2="101.913" y2="113.076" gradientUnits="userSpaceOnUse">
<stop stop-color="#311944"/>
<stop offset="1" stop-color="#893976"/>
</linearGradient>
<linearGradient id="paint21_linear_102_37" x1="102.492" y1="109.123" x2="103.134" y2="102.152" gradientUnits="userSpaceOnUse">
<stop stop-color="#FFC444"/>
<stop offset="0.9964" stop-color="#F36F56"/>
</linearGradient>
<linearGradient id="paint22_linear_102_37" x1="92.2091" y1="85.615" x2="99.6379" y2="86.2104" gradientUnits="userSpaceOnUse">
<stop stop-color="#444B8C"/>
<stop offset="0.9964" stop-color="#26264F"/>
</linearGradient>
<linearGradient id="paint23_linear_102_37" x1="92.2109" y1="85.6149" x2="99.6395" y2="86.2104" gradientUnits="userSpaceOnUse">
<stop stop-color="#444B8C"/>
<stop offset="0.9964" stop-color="#26264F"/>
</linearGradient>
<linearGradient id="paint24_linear_102_37" x1="96.3178" y1="87.0163" x2="107.595" y2="87.9203" gradientUnits="userSpaceOnUse">
<stop stop-color="#444B8C"/>
<stop offset="0.9964" stop-color="#26264F"/>
</linearGradient>
<linearGradient id="paint25_linear_102_37" x1="118.88" y1="90.1662" x2="96.6083" y2="52.0165" gradientUnits="userSpaceOnUse">
<stop stop-color="#FFC444"/>
<stop offset="0.9964" stop-color="#F36F56"/>
</linearGradient>
<linearGradient id="paint26_linear_102_37" x1="118.874" y1="90.1715" x2="96.6016" y2="52.0211" gradientUnits="userSpaceOnUse">
<stop stop-color="#FFC444"/>
<stop offset="0.9964" stop-color="#F36F56"/>
</linearGradient>
<linearGradient id="paint27_linear_102_37" x1="105.155" y1="68.8985" x2="109.214" y2="69.2239" gradientUnits="userSpaceOnUse">
<stop stop-color="#FFC444"/>
<stop offset="0.9964" stop-color="#F36F56"/>
</linearGradient>
<linearGradient id="paint28_linear_102_37" x1="126.329" y1="85.8164" x2="104.057" y2="47.6663" gradientUnits="userSpaceOnUse">
<stop stop-color="#FFC444"/>
<stop offset="0.9964" stop-color="#F36F56"/>
</linearGradient>
<linearGradient id="paint29_linear_102_37" x1="130.837" y1="11.2223" x2="148.107" y2="-7.62993" gradientUnits="userSpaceOnUse">
<stop stop-color="#FFC444"/>
<stop offset="0.9964" stop-color="#F36F56"/>
</linearGradient>
<linearGradient id="paint30_linear_102_37" x1="101.081" y1="45.9122" x2="98.6841" y2="38.0275" gradientUnits="userSpaceOnUse">
<stop stop-color="#444B8C"/>
<stop offset="0.9964" stop-color="#3E4177"/>
</linearGradient>
<linearGradient id="paint31_linear_102_37" x1="128.558" y1="9.13259" x2="145.827" y2="-9.71964" gradientUnits="userSpaceOnUse">
<stop stop-color="#FFC444"/>
<stop offset="0.9964" stop-color="#F36F56"/>
</linearGradient>
<linearGradient id="paint32_linear_102_37" x1="61.1323" y1="60.2379" x2="58.5" y2="60.2379" gradientUnits="userSpaceOnUse">
<stop stop-color="#FFC444"/>
<stop offset="0.9964" stop-color="#F36F56"/>
</linearGradient>
<linearGradient id="paint33_linear_102_37" x1="76.6976" y1="101.755" x2="77.4922" y2="116.057" gradientUnits="userSpaceOnUse">
<stop stop-color="#444B8C"/>
<stop offset="0.9964" stop-color="#26264F"/>
</linearGradient>
<linearGradient id="paint34_linear_102_37" x1="78.1947" y1="108.803" x2="77.7726" y2="89.4926" gradientUnits="userSpaceOnUse">
<stop stop-color="#FFC444"/>
<stop offset="0.9964" stop-color="#F36F56"/>
</linearGradient>
<linearGradient id="paint35_linear_102_37" x1="91.0767" y1="100.956" x2="91.8712" y2="115.258" gradientUnits="userSpaceOnUse">
<stop stop-color="#444B8C"/>
<stop offset="0.9964" stop-color="#26264F"/>
</linearGradient>
<linearGradient id="paint36_linear_102_37" x1="90.8611" y1="108.523" x2="90.4391" y2="89.2133" gradientUnits="userSpaceOnUse">
<stop stop-color="#FFC444"/>
<stop offset="0.9964" stop-color="#F36F56"/>
</linearGradient>
<linearGradient id="paint37_linear_102_37" x1="72.0682" y1="96.2482" x2="80.0877" y2="85.4851" gradientUnits="userSpaceOnUse">
<stop stop-color="#311944"/>
<stop offset="1" stop-color="#6B3976"/>
</linearGradient>
<linearGradient id="paint38_linear_102_37" x1="78.0255" y1="97.5871" x2="96.8082" y2="80.0707" gradientUnits="userSpaceOnUse">
<stop stop-color="#311944"/>
<stop offset="1" stop-color="#6B3976"/>
</linearGradient>
<linearGradient id="paint39_linear_102_37" x1="62.2334" y1="59.1641" x2="82.974" y2="57.2945" gradientUnits="userSpaceOnUse">
<stop stop-color="#FF9085"/>
<stop offset="1" stop-color="#FB6FBB"/>
</linearGradient>
<linearGradient id="paint40_linear_102_37" x1="101.57" y1="73.5604" x2="83.167" y2="57.6552" gradientUnits="userSpaceOnUse">
<stop stop-color="#311944"/>
<stop offset="1" stop-color="#6B3976"/>
</linearGradient>
<linearGradient id="paint41_linear_102_37" x1="73.0879" y1="97.0132" x2="81.1074" y2="86.2501" gradientUnits="userSpaceOnUse">
<stop stop-color="#311944"/>
<stop offset="1" stop-color="#6B3976"/>
</linearGradient>
<linearGradient id="paint42_linear_102_37" x1="60.2248" y1="61.6941" x2="75.1474" y2="59.6256" gradientUnits="userSpaceOnUse">
<stop stop-color="#FF9085"/>
<stop offset="1" stop-color="#FB6FBB"/>
</linearGradient>
<linearGradient id="paint43_linear_102_37" x1="63.121" y1="69.0749" x2="83.8616" y2="67.2053" gradientUnits="userSpaceOnUse">
<stop stop-color="#FF9085"/>
<stop offset="1" stop-color="#FB6FBB"/>
</linearGradient>
<linearGradient id="paint44_linear_102_37" x1="85.2024" y1="49.8909" x2="89.7469" y2="77.6823" gradientUnits="userSpaceOnUse">
<stop stop-color="#FF9085"/>
<stop offset="1" stop-color="#FB6FBB"/>
</linearGradient>
<linearGradient id="paint45_linear_102_37" x1="77.5152" y1="50.5446" x2="82.4218" y2="43.4221" gradientUnits="userSpaceOnUse">
<stop stop-color="#FFC444"/>
<stop offset="0.9964" stop-color="#F36F56"/>
</linearGradient>
<linearGradient id="paint46_linear_102_37" x1="76.9909" y1="47.6246" x2="80.6523" y2="39.3453" gradientUnits="userSpaceOnUse">
<stop stop-color="#FFC444"/>
<stop offset="0.9964" stop-color="#F36F56"/>
</linearGradient>
<linearGradient id="paint47_linear_102_37" x1="83.0703" y1="82.0034" x2="83.4484" y2="82.0034" gradientUnits="userSpaceOnUse">
<stop stop-color="#444B8C"/>
<stop offset="0.9964" stop-color="#26264F"/>
</linearGradient>
<linearGradient id="paint48_linear_102_37" x1="88.3623" y1="82.0034" x2="88.7404" y2="82.0034" gradientUnits="userSpaceOnUse">
<stop stop-color="#444B8C"/>
<stop offset="0.9964" stop-color="#26264F"/>
</linearGradient>
<linearGradient id="paint49_linear_102_37" x1="82.3106" y1="81.1525" x2="89.4936" y2="81.1525" gradientUnits="userSpaceOnUse">
<stop stop-color="#444B8C"/>
<stop offset="0.9964" stop-color="#26264F"/>
</linearGradient>
<linearGradient id="paint50_linear_102_37" x1="79.6641" y1="78.1296" x2="80.6092" y2="78.1296" gradientUnits="userSpaceOnUse">
<stop stop-color="#444B8C"/>
<stop offset="0.9964" stop-color="#26264F"/>
</linearGradient>
<linearGradient id="paint51_linear_102_37" x1="91.1963" y1="78.1296" x2="92.1414" y2="78.1296" gradientUnits="userSpaceOnUse">
<stop stop-color="#444B8C"/>
<stop offset="0.9964" stop-color="#26264F"/>
</linearGradient>
<linearGradient id="paint52_linear_102_37" x1="79.0078" y1="71.2285" x2="92.8601" y2="71.2285" gradientUnits="userSpaceOnUse">
<stop stop-color="#444B8C"/>
<stop offset="0.9964" stop-color="#26264F"/>
</linearGradient>
<linearGradient id="paint53_linear_102_37" x1="91.4629" y1="108.595" x2="93.0103" y2="108.595" gradientUnits="userSpaceOnUse">
<stop stop-color="#444B8C"/>
<stop offset="0.9964" stop-color="#26264F"/>
</linearGradient>
<linearGradient id="paint54_linear_102_37" x1="91.5781" y1="106.956" x2="92.9013" y2="106.956" gradientUnits="userSpaceOnUse">
<stop stop-color="#AA80F9"/>
<stop offset="0.9964" stop-color="#6165D7"/>
</linearGradient>
<linearGradient id="paint55_linear_102_37" x1="78.8926" y1="108.66" x2="80.4608" y2="108.66" gradientUnits="userSpaceOnUse">
<stop stop-color="#444B8C"/>
<stop offset="0.9964" stop-color="#26264F"/>
</linearGradient>
<linearGradient id="paint56_linear_102_37" x1="78.913" y1="106.956" x2="80.2362" y2="106.956" gradientUnits="userSpaceOnUse">
<stop stop-color="#AA80F9"/>
<stop offset="0.9964" stop-color="#6165D7"/>
</linearGradient>
<linearGradient id="paint57_linear_102_37" x1="76.2627" y1="94.6664" x2="95.5434" y2="94.6664" gradientUnits="userSpaceOnUse">
<stop stop-color="#AA80F9"/>
<stop offset="0.9964" stop-color="#6165D7"/>
</linearGradient>
<linearGradient id="paint58_linear_102_37" x1="78.1543" y1="94.7469" x2="80.8007" y2="94.7469" gradientUnits="userSpaceOnUse">
<stop stop-color="#AA80F9"/>
<stop offset="0.9964" stop-color="#6165D7"/>
</linearGradient>
<linearGradient id="paint59_linear_102_37" x1="79.29" y1="94.747" x2="80.8022" y2="94.747" gradientUnits="userSpaceOnUse">
<stop stop-color="#AA80F9"/>
<stop offset="0.9964" stop-color="#6165D7"/>
</linearGradient>
<linearGradient id="paint60_linear_102_37" x1="82.504" y1="94.7469" x2="85.1504" y2="94.7469" gradientUnits="userSpaceOnUse">
<stop stop-color="#AA80F9"/>
<stop offset="0.9964" stop-color="#6165D7"/>
</linearGradient>
<linearGradient id="paint61_linear_102_37" x1="83.6397" y1="94.747" x2="85.152" y2="94.747" gradientUnits="userSpaceOnUse">
<stop stop-color="#AA80F9"/>
<stop offset="0.9964" stop-color="#6165D7"/>
</linearGradient>
<linearGradient id="paint62_linear_102_37" x1="86.8526" y1="94.7469" x2="89.4989" y2="94.7469" gradientUnits="userSpaceOnUse">
<stop stop-color="#AA80F9"/>
<stop offset="0.9964" stop-color="#6165D7"/>
</linearGradient>
<linearGradient id="paint63_linear_102_37" x1="87.7959" y1="94.747" x2="89.4972" y2="94.747" gradientUnits="userSpaceOnUse">
<stop stop-color="#AA80F9"/>
<stop offset="0.9964" stop-color="#6165D7"/>
</linearGradient>
<linearGradient id="paint64_linear_102_37" x1="91.1973" y1="94.7469" x2="93.6546" y2="94.7469" gradientUnits="userSpaceOnUse">
<stop stop-color="#AA80F9"/>
<stop offset="0.9964" stop-color="#6165D7"/>
</linearGradient>
<linearGradient id="paint65_linear_102_37" x1="92.3331" y1="94.747" x2="93.6563" y2="94.747" gradientUnits="userSpaceOnUse">
<stop stop-color="#AA80F9"/>
<stop offset="0.9964" stop-color="#6165D7"/>
</linearGradient>
<linearGradient id="paint66_linear_102_37" x1="85.4456" y1="68.5038" x2="85.0367" y2="51.8529" gradientUnits="userSpaceOnUse">
<stop stop-color="#FF9085"/>
<stop offset="1" stop-color="#FB6FBB"/>
</linearGradient>
<linearGradient id="paint67_linear_102_37" x1="83.1296" y1="69.7678" x2="87.38" y2="72.8789" gradientUnits="userSpaceOnUse">
<stop stop-color="#FFC444"/>
<stop offset="0.9964" stop-color="#F36F56"/>
</linearGradient>
<clipPath id="clip0_102_37">
<rect width="117" height="112" fill="white"/>
</clipPath>
</defs>
</svg>
