<svg width="117" height="113" viewBox="0 0 117 113" fill="none" xmlns="http://www.w3.org/2000/svg">
<g clip-path="url(#clip0_98_19)">
<rect x="0.148716" y="56.6311" width="53.3735" height="56.0655" fill="url(#paint0_linear_98_19)" stroke="#6238D4" stroke-width="0.297433"/>
<rect x="6.73856" y="65.8265" width="40.1946" height="27.4132" fill="url(#paint1_linear_98_19)" stroke="#6238D4" stroke-width="0.297433"/>
<path d="M32.5469 79.5329L23.9808 85.7149V73.3509L32.5469 79.5329Z" fill="white"/>
<rect x="6.58887" y="97.1299" width="25.9504" height="1.33031" fill="url(#paint2_linear_98_19)"/>
<rect x="6.58887" y="102.201" width="25.9504" height="1.33031" fill="url(#paint3_linear_98_19)"/>
<rect x="27.085" y="18.3467" width="89.7236" height="94.249" fill="url(#paint4_linear_98_19)" stroke="#6238D4" stroke-width="0.5"/>
<rect x="38.1621" y="33.8047" width="67.5693" height="46.083" fill="url(#paint5_linear_98_19)" stroke="#6238D4" stroke-width="0.5"/>
<path d="M81.5469 56.8467L67.1469 67.239V46.4544L81.5469 56.8467Z" fill="white"/>
<rect x="37.9121" y="86.4268" width="43.624" height="2.23633" fill="url(#paint6_linear_98_19)"/>
<rect x="37.9121" y="94.9521" width="43.624" height="2.23633" fill="url(#paint7_linear_98_19)"/>
</g>
<defs>
<linearGradient id="paint0_linear_98_19" x1="-1.77722" y1="49.1366" x2="45.1405" y2="76.9792" gradientUnits="userSpaceOnUse">
<stop stop-color="#6238D4"/>
<stop offset="1" stop-color="white"/>
</linearGradient>
<linearGradient id="paint1_linear_98_19" x1="-3.36336" y1="58.0998" x2="21.9722" y2="90.3348" gradientUnits="userSpaceOnUse">
<stop stop-color="#D9D9D9"/>
<stop offset="0.0001" stop-color="#E0F2FB"/>
<stop offset="1" stop-color="#6238D4"/>
</linearGradient>
<linearGradient id="paint2_linear_98_19" x1="6.58887" y1="97.795" x2="32.5393" y2="97.795" gradientUnits="userSpaceOnUse">
<stop stop-color="#9C78FF"/>
<stop offset="1" stop-color="#6238D4"/>
</linearGradient>
<linearGradient id="paint3_linear_98_19" x1="6.58887" y1="102.866" x2="32.5393" y2="102.866" gradientUnits="userSpaceOnUse">
<stop stop-color="#9C78FF"/>
<stop offset="1" stop-color="#6238D4"/>
</linearGradient>
<linearGradient id="paint4_linear_98_19" x1="23.8474" y1="5.74798" x2="102.719" y2="52.5529" gradientUnits="userSpaceOnUse">
<stop stop-color="#6238D4"/>
<stop offset="1" stop-color="white"/>
</linearGradient>
<linearGradient id="paint5_linear_98_19" x1="21.1802" y1="20.8158" x2="63.7707" y2="75.0045" gradientUnits="userSpaceOnUse">
<stop stop-color="#D9D9D9"/>
<stop offset="0.0001" stop-color="#E0F2FB"/>
<stop offset="1" stop-color="#6238D4"/>
</linearGradient>
<linearGradient id="paint6_linear_98_19" x1="37.9121" y1="87.5449" x2="81.5361" y2="87.5449" gradientUnits="userSpaceOnUse">
<stop stop-color="#9C78FF"/>
<stop offset="1" stop-color="#6238D4"/>
</linearGradient>
<linearGradient id="paint7_linear_98_19" x1="37.9121" y1="96.0703" x2="81.5361" y2="96.0703" gradientUnits="userSpaceOnUse">
<stop stop-color="#9C78FF"/>
<stop offset="1" stop-color="#6238D4"/>
</linearGradient>
<clipPath id="clip0_98_19">
<rect width="117" height="112" fill="white" transform="translate(0 0.845703)"/>
</clipPath>
</defs>
</svg>
