<svg width="117" height="112" viewBox="0 0 117 112" fill="none" xmlns="http://www.w3.org/2000/svg">
<g clip-path="url(#clip0_102_333)">
<rect x="62.1084" y="-14.6582" width="54.8994" height="138.658" fill="white" fill-opacity="0.5"/>
<path d="M75.2101 79.9634L71.7988 85.1797L88.8507 96.3309L92.2619 91.1147L75.2101 79.9634Z" fill="white"/>
<path d="M74.8299 88.528C78.3889 88.528 81.2741 85.6428 81.2741 82.0838C81.2741 78.5248 78.3889 75.6396 74.8299 75.6396C71.2709 75.6396 68.3857 78.5248 68.3857 82.0838C68.3857 85.6428 71.2709 88.528 74.8299 88.528Z" fill="url(#paint0_linear_102_333)"/>
<path d="M86.548 97.2162C89.4703 97.2162 91.8392 94.8472 91.8392 91.925C91.8392 89.0027 89.4703 86.6338 86.548 86.6338C83.6258 86.6338 81.2568 89.0027 81.2568 91.925C81.2568 94.8472 83.6258 97.2162 86.548 97.2162Z" fill="url(#paint1_linear_102_333)"/>
<path d="M86.2923 66.5239C90.7754 66.5239 94.4097 61.4166 94.4097 55.1164C94.4097 48.8163 90.7754 43.709 86.2923 43.709C81.8091 43.709 78.1748 48.8163 78.1748 55.1164C78.1748 61.4166 81.8091 66.5239 86.2923 66.5239Z" fill="url(#paint2_linear_102_333)"/>
<path d="M61.4841 27.4756H46.206C30.5403 27.4756 17.8408 40.1751 17.8408 55.8407V55.841C17.8408 64.2003 24.6174 70.9768 32.9767 70.9768H74.7134C83.0727 70.9768 89.8493 64.2002 89.8493 55.8409C89.8494 40.1752 77.1498 27.4756 61.4841 27.4756Z" fill="url(#paint3_linear_102_333)"/>
<path d="M58.8027 101.99H48.8907C38.7274 101.99 30.4883 93.7508 30.4883 83.5874V83.5873C30.4883 78.164 34.8847 73.7676 40.308 73.7676H67.3856C72.8088 73.7676 77.2053 78.164 77.2053 83.5873C77.2053 93.7507 68.9662 101.99 58.8027 101.99Z" fill="url(#paint4_linear_102_333)"/>
<path d="M75.3547 64.8534H46.3131C42.3774 64.8534 39.1484 61.8366 39.1484 58.1153V52.4089C39.1484 48.6875 42.3774 45.7739 46.3131 45.8994L75.3547 46.8259C78.8697 46.9381 81.6871 49.8313 81.6871 53.2893V58.592C81.6871 62.0501 78.8697 64.8534 75.3547 64.8534Z" fill="url(#paint5_linear_102_333)"/>
<path d="M55.6138 54.9484C55.6138 57.4336 53.4982 59.4216 50.8673 59.3884C48.2126 59.3549 46.043 57.2798 46.043 54.7539C46.043 52.228 48.2126 50.2411 50.8673 50.3155C53.4982 50.3893 55.6138 52.4632 55.6138 54.9484Z" fill="white"/>
<path d="M75.2407 55.3449C75.2407 57.7467 73.265 59.6688 70.8087 59.6378C68.3311 59.6065 66.3066 57.6031 66.3066 55.1634C66.3066 52.7236 68.3311 50.8025 70.8087 50.8719C73.265 50.9408 75.2407 52.9432 75.2407 55.3449Z" fill="white"/>
<path opacity="0.3" d="M64.3841 66.9977C60.0649 61.9228 61.9842 57.8643 56.3376 50.9872C48.5682 41.5246 39.5045 42.5954 37.4284 36.1775C36.8532 34.3991 36.7871 31.9582 38.3301 28.584C26.4964 31.9974 17.8408 42.9075 17.8408 55.8402V55.8404C17.8408 64.1997 24.6173 70.9763 32.9766 70.9763H69.3496C67.171 69.7886 65.5788 68.4014 64.3841 66.9977Z" fill="white"/>
<path d="M21.9241 66.4468C26.4072 66.4468 30.0415 61.3395 30.0415 55.0393C30.0415 48.7391 26.4072 43.6318 21.9241 43.6318C17.4409 43.6318 13.8066 48.7391 13.8066 55.0393C13.8066 61.3395 17.4409 66.4468 21.9241 66.4468Z" fill="url(#paint6_linear_102_333)"/>
<path d="M15.5028 60.0322C17.4632 60.0322 19.0525 57.7989 19.0525 55.044C19.0525 52.289 17.4632 50.0557 15.5028 50.0557C13.5424 50.0557 11.9531 52.289 11.9531 55.044C11.9531 57.7989 13.5424 60.0322 15.5028 60.0322Z" fill="url(#paint7_linear_102_333)"/>
<path opacity="0.4" d="M61.2439 91.8589C59.884 85.4725 44.8418 85.6266 44.4328 81.4521C44.1174 78.2341 52.7538 75.048 53.839 74.6477C54.7672 74.3053 55.6883 74.0155 56.6005 73.7676H40.308C34.8847 73.7676 30.4883 78.164 30.4883 83.5873V83.5874C30.4883 93.7508 38.7273 101.99 48.8907 101.99H58.8027C59.7551 101.99 60.6905 101.918 61.6039 101.778C60.7414 100.709 60.179 99.5396 60.0429 98.2632C59.7415 95.434 61.7707 94.3337 61.2439 91.8589Z" fill="url(#paint8_linear_102_333)"/>
<path d="M54.0918 76.2155C62.7375 76.2155 69.7462 75.3669 69.7462 74.3202C69.7462 73.2734 62.7375 72.4248 54.0918 72.4248C45.4462 72.4248 38.4375 73.2734 38.4375 74.3202C38.4375 75.3669 45.4462 76.2155 54.0918 76.2155Z" fill="url(#paint9_linear_102_333)"/>
<path d="M33.9864 79.9634L30.5752 85.1797L47.627 96.3309L51.0382 91.1147L33.9864 79.9634Z" fill="white"/>
<path d="M33.6082 88.528C37.1672 88.528 40.0524 85.6428 40.0524 82.0838C40.0524 78.5248 37.1672 75.6396 33.6082 75.6396C30.0492 75.6396 27.1641 78.5248 27.1641 82.0838C27.1641 85.6428 30.0492 88.528 33.6082 88.528Z" fill="url(#paint10_linear_102_333)"/>
<path d="M48.3284 90.167H63.2543L62.6619 96.3431L48.0322 95.8531L48.3284 90.167Z" fill="white"/>
<path d="M45.3263 97.2181C48.2486 97.2181 50.6175 94.8492 50.6175 91.9269C50.6175 89.0047 48.2486 86.6357 45.3263 86.6357C42.4041 86.6357 40.0352 89.0047 40.0352 91.9269C40.0352 94.8492 42.4041 97.2181 45.3263 97.2181Z" fill="url(#paint11_linear_102_333)"/>
<path d="M64.5569 89.9886C63.6524 89.4822 62.3752 89.1258 60.5778 89.1914C59.7241 89.2225 59.0188 89.8709 58.9189 90.7191L58.3984 95.1352H66.0983L66.3496 94.08C66.733 92.4695 66.0016 90.7973 64.5569 89.9886Z" fill="url(#paint12_linear_102_333)"/>
<path d="M78.1517 95.2486L50.3751 94.7687C49.9929 94.7622 49.6317 94.9435 49.4086 95.2539L48.5615 96.433C48.1396 97.02 48.5457 97.8397 49.2683 97.8598L78.67 98.678L78.1517 95.2486Z" fill="url(#paint13_linear_102_333)"/>
<path d="M107.969 81.7276L79.3277 80.3942C78.4802 80.3547 77.6747 80.7646 77.2079 81.473L66.1523 98.2468L96.4417 99.0369C97.273 99.0586 98.0593 98.6595 98.5325 97.9756L108.722 83.2493C109.156 82.6223 108.73 81.7631 107.969 81.7276Z" fill="url(#paint14_linear_102_333)"/>
<path opacity="0.3" d="M77.2078 81.4731C77.6747 80.7646 78.4802 80.3547 79.3277 80.3942L79.9552 80.4234C79.9878 81.3531 80.2154 82.2164 80.7354 82.9356C82.3586 85.181 85.3758 84.0612 87.4113 86.4584C89.6472 89.0917 87.2363 91.8917 89.2295 94.3369C91.3273 96.9104 95.1086 95.1773 99.2036 97.0058L98.5325 97.9756C98.0593 98.6595 97.2731 99.0586 96.4417 99.037L66.1523 98.2469L77.2078 81.4731Z" fill="url(#paint15_linear_102_333)"/>
<path d="M46.419 0C42.3658 3.91791 35.7996 12.9696 41.9602 17.8332C48.1208 22.6968 47.4997 30.6678 46.419 34.0453" stroke="#FEBB46" stroke-width="1.04481"/>
</g>
<defs>
<linearGradient id="paint0_linear_102_333" x1="68.3857" y1="82.0838" x2="81.2741" y2="82.0838" gradientUnits="userSpaceOnUse">
<stop stop-color="#40447E"/>
<stop offset="0.9964" stop-color="#3C3B6B"/>
</linearGradient>
<linearGradient id="paint1_linear_102_333" x1="81.2568" y1="91.925" x2="91.8392" y2="91.925" gradientUnits="userSpaceOnUse">
<stop stop-color="#40447E"/>
<stop offset="0.9964" stop-color="#3C3B6B"/>
</linearGradient>
<linearGradient id="paint2_linear_102_333" x1="78.1748" y1="55.1165" x2="94.4097" y2="55.1165" gradientUnits="userSpaceOnUse">
<stop stop-color="#FFC444"/>
<stop offset="0.9964" stop-color="#F36F56"/>
</linearGradient>
<linearGradient id="paint3_linear_102_333" x1="17.8409" y1="49.2262" x2="89.8493" y2="49.2262" gradientUnits="userSpaceOnUse">
<stop stop-color="#FCB148"/>
<stop offset="0.0521" stop-color="#FDBA46"/>
<stop offset="0.1424" stop-color="#FFC244"/>
<stop offset="0.3183" stop-color="#FFC444"/>
<stop offset="0.4849" stop-color="#FDB946"/>
<stop offset="0.7754" stop-color="#F99C4D"/>
<stop offset="0.8658" stop-color="#F8924F"/>
<stop offset="1" stop-color="#F8924F"/>
</linearGradient>
<linearGradient id="paint4_linear_102_333" x1="30.4883" y1="87.8787" x2="77.2053" y2="87.8787" gradientUnits="userSpaceOnUse">
<stop stop-color="#FCB148"/>
<stop offset="0.0521" stop-color="#FDBA46"/>
<stop offset="0.1424" stop-color="#FFC244"/>
<stop offset="0.3183" stop-color="#FFC444"/>
<stop offset="0.4849" stop-color="#FDB946"/>
<stop offset="0.7754" stop-color="#F99C4D"/>
<stop offset="0.8658" stop-color="#F8924F"/>
<stop offset="1" stop-color="#F8924F"/>
</linearGradient>
<linearGradient id="paint5_linear_102_333" x1="39.1485" y1="55.3744" x2="81.6871" y2="55.3744" gradientUnits="userSpaceOnUse">
<stop stop-color="#444B8C"/>
<stop offset="0.9964" stop-color="#26264F"/>
</linearGradient>
<linearGradient id="paint6_linear_102_333" x1="13.8066" y1="55.0393" x2="30.0416" y2="55.0393" gradientUnits="userSpaceOnUse">
<stop stop-color="#FFC444"/>
<stop offset="0.9964" stop-color="#F36F56"/>
</linearGradient>
<linearGradient id="paint7_linear_102_333" x1="11.9532" y1="55.044" x2="19.0525" y2="55.044" gradientUnits="userSpaceOnUse">
<stop stop-color="#FFC444"/>
<stop offset="0.9964" stop-color="#F36F56"/>
</linearGradient>
<linearGradient id="paint8_linear_102_333" x1="30.4883" y1="87.8787" x2="61.604" y2="87.8787" gradientUnits="userSpaceOnUse">
<stop stop-color="#FCB148"/>
<stop offset="0.0521" stop-color="#FDBA46"/>
<stop offset="0.1424" stop-color="#FFC244"/>
<stop offset="0.3183" stop-color="#FFC444"/>
<stop offset="0.4849" stop-color="#FDB946"/>
<stop offset="0.7754" stop-color="#F99C4D"/>
<stop offset="0.8658" stop-color="#F8924F"/>
<stop offset="1" stop-color="#F8924F"/>
</linearGradient>
<linearGradient id="paint9_linear_102_333" x1="47.0871" y1="128.516" x2="51.5885" y2="93.6887" gradientUnits="userSpaceOnUse">
<stop stop-color="#FCB148"/>
<stop offset="0.0521" stop-color="#FDBA46"/>
<stop offset="0.1424" stop-color="#FFC244"/>
<stop offset="0.3183" stop-color="#FFC444"/>
<stop offset="0.3975" stop-color="#FEC045"/>
<stop offset="0.7095" stop-color="#FAA34B"/>
<stop offset="0.8658" stop-color="#F8924F"/>
<stop offset="1" stop-color="#F8924F"/>
</linearGradient>
<linearGradient id="paint10_linear_102_333" x1="27.1641" y1="82.0838" x2="40.0524" y2="82.0838" gradientUnits="userSpaceOnUse">
<stop stop-color="#40447E"/>
<stop offset="0.9964" stop-color="#3C3B6B"/>
</linearGradient>
<linearGradient id="paint11_linear_102_333" x1="40.0352" y1="91.9269" x2="50.6175" y2="91.9269" gradientUnits="userSpaceOnUse">
<stop stop-color="#40447E"/>
<stop offset="0.9964" stop-color="#3C3B6B"/>
</linearGradient>
<linearGradient id="paint12_linear_102_333" x1="58.3984" y1="92.1594" x2="66.4506" y2="92.1594" gradientUnits="userSpaceOnUse">
<stop stop-color="#40447E"/>
<stop offset="0.9964" stop-color="#3C3B6B"/>
</linearGradient>
<linearGradient id="paint13_linear_102_333" x1="48.3906" y1="96.7233" x2="78.67" y2="96.7233" gradientUnits="userSpaceOnUse">
<stop stop-color="#AA80F9"/>
<stop offset="0.9964" stop-color="#6165D7"/>
</linearGradient>
<linearGradient id="paint14_linear_102_333" x1="66.1523" y1="89.7146" x2="108.896" y2="89.7146" gradientUnits="userSpaceOnUse">
<stop stop-color="#AA80F9"/>
<stop offset="0.9964" stop-color="#6165D7"/>
</linearGradient>
<linearGradient id="paint15_linear_102_333" x1="66.1523" y1="89.7147" x2="99.2035" y2="89.7147" gradientUnits="userSpaceOnUse">
<stop stop-color="#AA80F9"/>
<stop offset="0.9964" stop-color="#6165D7"/>
</linearGradient>
<clipPath id="clip0_102_333">
<rect width="117" height="112" fill="white"/>
</clipPath>
</defs>
</svg>
